<?xml version="1.0" encoding="UTF-8" standalone="no"?>
<!DOCTYPE svg PUBLIC "-//W3C//DTD SVG 1.1//EN" "http://www.w3.org/Graphics/SVG/1.1/DTD/svg11.dtd">
<svg width="100%" height="100%" viewBox="0 0 800 800" version="1.1" xmlns="http://www.w3.org/2000/svg" xmlns:xlink="http://www.w3.org/1999/xlink" xml:space="preserve" xmlns:serif="http://www.serif.com/" style="fill-rule:evenodd;clip-rule:evenodd;stroke-linejoin:round;stroke-miterlimit:2;">
    <g transform="matrix(1,0,0,1,-235,-1950)">
        <g transform="matrix(2.02015,0,0,2.02017,-51.8034,1393.69)">
            <rect x="142.327" y="275.741" width="396.011" height="396.011" style="fill:none;"/>
            <g transform="matrix(0.495014,0,0,0.495007,-1818.69,-130.418)">
                <path d="M4361.54,911.598C4532.04,911.598 4670.46,1050.02 4670.46,1220.52C4670.46,1391.01 4532.04,1529.44 4361.54,1529.44C4191.04,1529.44 4052.62,1391.01 4052.62,1220.52C4052.62,1050.02 4191.04,911.598 4361.54,911.598ZM4361.54,933.82C4519.77,933.82 4648.24,1062.28 4648.24,1220.52C4648.24,1378.75 4519.77,1507.21 4361.54,1507.21C4203.31,1507.21 4074.84,1378.75 4074.84,1220.52C4074.84,1062.28 4203.31,933.82 4361.54,933.82Z"/>
            </g>
            <g transform="matrix(0.400601,0,0,0.400596,-1406.9,-15.1874)">
                <path d="M4361.54,911.598C4532.04,911.598 4670.46,1050.02 4670.46,1220.52C4670.46,1391.01 4532.04,1529.44 4361.54,1529.44C4191.04,1529.44 4052.62,1391.01 4052.62,1220.52C4052.62,1050.02 4191.04,911.598 4361.54,911.598ZM4361.54,939.057C4516.88,939.057 4643,1065.17 4643,1220.52C4643,1375.86 4516.88,1501.98 4361.54,1501.98C4206.2,1501.98 4080.08,1375.86 4080.08,1220.52C4080.08,1065.17 4206.2,939.057 4361.54,939.057Z"/>
            </g>
            <g transform="matrix(0.495007,0,0,0.495007,25.6463,-125.031)">
                <g transform="matrix(161.111,0,0,161.111,441.341,1268.19)">
                    <path d="M0.514,-0.767L0.514,-0.234L0.221,-0.767L0.086,-0.767L0.086,0.054L0.224,0.054L0.224,-0.477L0.518,0.054L0.653,0.054L0.653,-0.767L0.514,-0.767Z" style="fill-rule:nonzero;"/>
                </g>
                <g transform="matrix(161.111,0,0,161.111,560.402,1268.19)">
                    <path d="M0.605,-0.637L0.605,-0.767L0.086,-0.767L0.086,0.054L0.605,0.054L0.605,-0.077L0.224,-0.077L0.224,-0.299L0.55,-0.299L0.55,-0.429L0.224,-0.429L0.224,-0.637L0.605,-0.637Z" style="fill-rule:nonzero;"/>
                </g>
                <g transform="matrix(161.111,0,0,161.111,667.541,1268.19)">
                    <path d="M0.857,-0.767L0.712,-0.201L0.567,-0.767L0.443,-0.767L0.297,-0.202L0.153,-0.767L0.01,-0.767L0.235,0.054L0.359,0.054L0.505,-0.491L0.649,0.054L0.774,0.054L0.999,-0.767L0.857,-0.767Z" style="fill-rule:nonzero;"/>
                </g>
            </g>
        </g>
    </g>
</svg>
