<?xml version="1.0" encoding="UTF-8" standalone="no"?>
<!DOCTYPE svg PUBLIC "-//W3C//DTD SVG 1.1//EN" "http://www.w3.org/Graphics/SVG/1.1/DTD/svg11.dtd">
<svg width="100%" height="100%" viewBox="0 0 800 800" version="1.1" xmlns="http://www.w3.org/2000/svg" xmlns:xlink="http://www.w3.org/1999/xlink" xml:space="preserve" xmlns:serif="http://www.serif.com/" style="fill-rule:evenodd;clip-rule:evenodd;stroke-linecap:round;stroke-linejoin:round;stroke-miterlimit:1;">
    <g transform="matrix(1,0,0,1,-235,-1950)">
        <g transform="matrix(2.02015,0,0,2.02017,-55.2615,1393.69)">
            <rect x="142.327" y="275.741" width="396.011" height="396.011" style="fill:none;"/>
            <g transform="matrix(1,0,0,1,-4.45476,0.00133651)">
                <g transform="matrix(0,0.495007,-0.495014,0,1017.56,169.418)">
                    <path d="M754.348,1135.94C746.545,1119.47 729.763,1108.07 710.34,1108.07C701.509,1108.07 693.223,1110.43 686.087,1114.56C679.006,1096.45 661.368,1083.61 640.755,1083.61C629.903,1083.61 619.875,1087.17 611.778,1093.18C603.069,1080.03 588.126,1071.34 571.169,1071.34C544.301,1071.34 522.487,1093.15 522.487,1120.02L522.487,1219.99C506.705,1210.91 485.51,1198.85 472.323,1191.81C456.44,1183.34 434.08,1186.96 418.857,1198.25C401.912,1210.82 393.823,1231.12 407.388,1251.69C415.805,1264.46 428.9,1272.38 443.91,1280.98C461.299,1290.94 481.612,1302.63 495.307,1333.27C504.382,1353.57 506.866,1374.71 510.322,1393.64C515.262,1420.7 526.134,1450.82 552.033,1463.45C558.413,1466.56 573.713,1469.44 593.074,1470.63C629.756,1472.88 683.736,1471.69 701.833,1470.73C742.235,1468.58 772.509,1452.99 798.253,1415.44C815.996,1389.57 828.608,1340.19 828.608,1281.05C828.608,1281.05 828.608,1177.35 828.608,1177.35C828.608,1150.48 806.794,1128.67 779.926,1128.67C770.544,1128.67 761.778,1131.33 754.348,1135.94ZM597.667,1151.41L597.629,1120.02C597.629,1105.41 585.772,1093.56 571.169,1093.56C556.566,1093.56 544.71,1105.41 544.71,1120.02L544.71,1244.05C544.71,1247.03 543.115,1249.79 540.529,1251.27C537.943,1252.76 534.76,1252.75 532.183,1251.25C532.183,1251.25 484.795,1223.65 461.865,1211.42C452.977,1206.68 440.613,1209.79 432.094,1216.1C424.606,1221.66 419.946,1230.37 425.94,1239.46C432.512,1249.43 443.234,1254.98 454.953,1261.69C475.607,1273.52 499.328,1287.81 515.595,1324.2C525.444,1346.23 528.432,1369.11 532.183,1389.65C535.914,1410.09 542.211,1433.93 561.773,1443.47C578.639,1451.7 675.405,1449.88 700.654,1448.54C733.908,1446.77 758.736,1433.78 779.926,1402.88C795.981,1379.47 806.385,1334.56 806.385,1281.05C806.385,1281.05 806.385,1177.35 806.385,1177.35C806.385,1162.75 794.529,1150.89 779.926,1150.89C765.323,1150.89 753.466,1162.75 753.466,1177.35L753.466,1187.35C753.466,1191.95 749.732,1195.68 745.133,1195.68C740.534,1195.68 736.8,1191.95 736.8,1187.35L736.8,1156.75C736.8,1142.15 724.944,1130.29 710.34,1130.29C695.737,1130.29 683.881,1142.15 683.881,1156.75L683.9,1169.87C683.9,1174.46 680.166,1178.2 675.567,1178.2C670.967,1178.2 667.233,1174.46 667.233,1169.87L667.214,1132.29C667.214,1117.69 655.358,1105.83 640.755,1105.83C626.151,1105.83 614.295,1117.69 614.295,1132.29L614.334,1151.41C614.334,1156.01 610.6,1159.74 606,1159.74C601.401,1159.74 597.667,1156.01 597.667,1151.41Z"/>
                </g>
                <g transform="matrix(0.495014,0,0,0.495007,21.1675,-131.713)">
                    <path d="M514.227,1149.03C514.227,1138.6 505.758,1130.13 495.327,1130.13L407.127,1130.13C396.695,1130.13 388.227,1138.6 388.227,1149.03L388.227,1356.73C388.227,1367.16 396.695,1375.63 407.127,1375.63L495.327,1375.63C505.758,1375.63 514.227,1367.16 514.227,1356.73L514.227,1149.03Z" style="fill:none;stroke:black;stroke-width:22.22px;"/>
                </g>
            </g>
        </g>
    </g>
</svg>
