<?xml version="1.0" encoding="UTF-8" standalone="no"?>
<!DOCTYPE svg PUBLIC "-//W3C//DTD SVG 1.1//EN" "http://www.w3.org/Graphics/SVG/1.1/DTD/svg11.dtd">
<svg width="100%" height="100%" viewBox="0 0 800 800" version="1.1" xmlns="http://www.w3.org/2000/svg" xmlns:xlink="http://www.w3.org/1999/xlink" xml:space="preserve" xmlns:serif="http://www.serif.com/" style="fill-rule:evenodd;clip-rule:evenodd;stroke-linejoin:round;stroke-miterlimit:2;">
    <g transform="matrix(1,0,0,1,-3007,-809)">
        <g transform="matrix(2.02015,0,0,2.02017,2716.8,252.584)">
            <rect x="142.327" y="275.741" width="396.011" height="396.011" style="fill:none;"/>
            <g transform="matrix(1,0,0,1,-11.33,0.134926)">
                <g transform="matrix(0,0.495007,-0.495014,0,1017.56,169.418)">
                    <path d="M597.667,1151.41L597.629,1120.02C597.629,1105.41 585.772,1093.56 571.169,1093.56C556.566,1093.56 544.71,1105.41 544.71,1120.02L544.71,1244.05C544.71,1247.03 543.115,1249.79 540.529,1251.27C537.943,1252.76 534.76,1252.75 532.183,1251.25C532.183,1251.25 484.795,1223.65 461.865,1211.42C452.977,1206.68 440.613,1209.79 432.094,1216.1C424.606,1221.66 419.946,1230.37 425.94,1239.46C432.512,1249.43 443.234,1254.98 454.953,1261.69C475.607,1273.52 499.328,1287.81 515.595,1324.2C525.444,1346.23 528.432,1369.11 532.183,1389.65C535.914,1410.09 542.211,1433.93 561.773,1443.47C578.639,1451.7 675.405,1449.88 700.654,1448.54C733.908,1446.77 758.736,1433.78 779.926,1402.88C795.981,1379.47 806.385,1334.56 806.385,1281.05C806.385,1281.05 806.385,1177.35 806.385,1177.35C806.385,1162.75 794.529,1150.89 779.926,1150.89C765.323,1150.89 753.466,1162.75 753.466,1177.35L753.466,1187.35C753.466,1191.95 749.732,1195.68 745.133,1195.68C740.534,1195.68 736.8,1191.95 736.8,1187.35L736.8,1156.75C736.8,1142.15 724.944,1130.29 710.34,1130.29C695.737,1130.29 683.881,1142.15 683.881,1156.75L683.9,1169.87C683.9,1174.46 680.166,1178.2 675.567,1178.2C670.967,1178.2 667.233,1174.46 667.233,1169.87L667.214,1132.29C667.214,1117.69 655.358,1105.83 640.755,1105.83C626.151,1105.83 614.295,1117.69 614.295,1132.29L614.334,1151.41C614.334,1156.01 610.6,1159.74 606,1159.74C601.401,1159.74 597.667,1156.01 597.667,1151.41Z" style="fill:white;"/>
                </g>
                <g transform="matrix(0,0.495007,-0.495014,0,1017.56,169.418)">
                    <path d="M756.568,1128.4C747.028,1112.88 729.884,1102.52 710.34,1102.52C702.659,1102.52 695.349,1104.12 688.73,1107.01C679.643,1089.79 661.559,1078.06 640.755,1078.06C630.658,1078.06 621.202,1080.82 613.106,1085.64C603.16,1073.52 588.061,1065.78 571.169,1065.78C541.235,1065.78 516.932,1090.08 516.932,1120.02L516.932,1210.4C502.551,1202.17 485.956,1192.79 474.937,1186.91C457.305,1177.51 432.448,1181.26 415.547,1193.79C396.237,1208.11 387.291,1231.31 402.75,1254.75C411.628,1268.22 425.316,1276.73 441.149,1285.8C457.722,1295.29 477.183,1306.34 490.236,1335.54C499.117,1355.4 501.474,1376.11 504.856,1394.64C510.099,1423.36 522.111,1455.04 549.598,1468.44C556.309,1471.71 572.369,1474.92 592.733,1476.17C629.63,1478.44 683.925,1477.24 702.128,1476.28C744.317,1474.03 775.952,1457.79 802.835,1418.59C821,1392.1 834.163,1341.6 834.163,1281.05C834.163,1281.05 834.163,1177.35 834.163,1177.35C834.163,1147.42 809.86,1123.12 779.926,1123.12C771.565,1123.12 763.644,1125.01 756.568,1128.4ZM597.667,1151.41L597.629,1120.02C597.629,1105.41 585.772,1093.56 571.169,1093.56C556.566,1093.56 544.71,1105.41 544.71,1120.02L544.71,1244.05C544.71,1247.03 543.115,1249.79 540.529,1251.27C537.943,1252.76 534.76,1252.75 532.183,1251.25C532.183,1251.25 484.795,1223.65 461.865,1211.42C452.977,1206.68 440.613,1209.79 432.094,1216.1C424.606,1221.66 419.946,1230.37 425.94,1239.46C432.512,1249.43 443.234,1254.98 454.953,1261.69C475.607,1273.52 499.328,1287.81 515.595,1324.2C525.444,1346.23 528.432,1369.11 532.183,1389.65C535.914,1410.09 542.211,1433.93 561.773,1443.47C578.639,1451.7 675.405,1449.88 700.654,1448.54C733.908,1446.77 758.736,1433.78 779.926,1402.88C795.981,1379.47 806.385,1334.56 806.385,1281.05C806.385,1281.05 806.385,1177.35 806.385,1177.35C806.385,1162.75 794.529,1150.89 779.926,1150.89C765.323,1150.89 753.466,1162.75 753.466,1177.35L753.466,1187.35C753.466,1191.95 749.732,1195.68 745.133,1195.68C740.534,1195.68 736.8,1191.95 736.8,1187.35L736.8,1156.75C736.8,1142.15 724.944,1130.29 710.34,1130.29C695.737,1130.29 683.881,1142.15 683.881,1156.75L683.9,1169.87C683.9,1174.46 680.166,1178.2 675.567,1178.2C670.967,1178.2 667.233,1174.46 667.233,1169.87L667.214,1132.29C667.214,1117.69 655.358,1105.83 640.755,1105.83C626.151,1105.83 614.295,1117.69 614.295,1132.29L614.334,1151.41C614.334,1156.01 610.6,1159.74 606,1159.74C601.401,1159.74 597.667,1156.01 597.667,1151.41Z" style="fill:url(#_Linear1);"/>
                </g>
                <g transform="matrix(0.495014,0,0,0.495007,21.1675,-131.713)">
                    <path d="M514.227,1149.03C514.227,1138.6 505.758,1130.13 495.327,1130.13L407.127,1130.13C396.695,1130.13 388.227,1138.6 388.227,1149.03L388.227,1356.73C388.227,1367.16 396.695,1375.63 407.127,1375.63L495.327,1375.63C505.758,1375.63 514.227,1367.16 514.227,1356.73L514.227,1149.03Z" style="fill:url(#_Linear2);"/>
                </g>
            </g>
        </g>
    </g>
    <defs>
        <linearGradient id="_Linear1" x1="0" y1="0" x2="1" y2="0" gradientUnits="userSpaceOnUse" gradientTransform="matrix(383.183,0,0,356.254,423.202,1271.69)"><stop offset="0" style="stop-color:rgb(248,206,196);stop-opacity:1"/><stop offset="0.32" style="stop-color:rgb(232,166,187);stop-opacity:1"/><stop offset="1" style="stop-color:rgb(200,83,168);stop-opacity:1"/></linearGradient>
        <linearGradient id="_Linear2" x1="0" y1="0" x2="1" y2="0" gradientUnits="userSpaceOnUse" gradientTransform="matrix(-6.54506e-14,407,-793.004,-1.27525e-13,451.227,1025.38)"><stop offset="0" style="stop-color:rgb(248,206,196);stop-opacity:1"/><stop offset="0.32" style="stop-color:rgb(232,166,187);stop-opacity:1"/><stop offset="1" style="stop-color:rgb(200,83,168);stop-opacity:1"/></linearGradient>
    </defs>
</svg>
