<?xml version="1.0" encoding="UTF-8" standalone="no"?><!DOCTYPE svg PUBLIC "-//W3C//DTD SVG 1.1//EN" "http://www.w3.org/Graphics/SVG/1.1/DTD/svg11.dtd"><svg width="100%" height="100%" viewBox="0 0 144 144" version="1.1" xmlns="http://www.w3.org/2000/svg" xmlns:xlink="http://www.w3.org/1999/xlink" xml:space="preserve" xmlns:serif="http://www.serif.com/" style="fill-rule:evenodd;clip-rule:evenodd;stroke-linejoin:round;stroke-miterlimit:2;"><rect x="0.144" y="0.113" width="144" height="144.002" style="fill:none;"/><g><rect x="35.493" y="78.932" width="12.48" height="41.488" style="fill:url(#_Linear1);"/><rect x="57.213" y="62.792" width="12.48" height="57.628" style="fill:url(#_Linear2);"/><rect x="78.933" y="72.114" width="12.48" height="48.306" style="fill:url(#_Linear3);"/><rect x="100.653" y="50.612" width="12.48" height="69.808" style="fill:url(#_Linear4);"/></g><path d="M43.311,61.86l20.411,-26.22c5.014,4.44 20.125,17.82 20.125,17.82c0.41,0.363 0.952,0.542 1.498,0.495c0.546,-0.047 1.048,-0.316 1.39,-0.744l21.72,-27.18c0.689,-0.862 0.549,-2.122 -0.313,-2.811c-0.863,-0.689 -2.122,-0.549 -2.811,0.314l-20.407,25.536c-0,0 -20.145,-17.837 -20.145,-17.837c-0.414,-0.367 -0.96,-0.545 -1.51,-0.494c-0.55,0.05 -1.055,0.327 -1.394,0.762l-21.72,27.902c-0.678,0.871 -0.522,2.129 0.349,2.807c0.871,0.678 2.129,0.521 2.807,-0.35Z" style="fill:url(#_Linear5);"/><g><path d="M21.838,120.42l0,0.013l0,0.012l0,0.013l0.001,0.013l-0,0.013l0,0.013l0.001,0.013l0.001,0.012c0.032,0.631 0.356,1.184 0.84,1.528l0.009,0.007l0.01,0.007l0.01,0.007l0.01,0.007l0.01,0.007l0.01,0.006l0.01,0.007l0.01,0.006l0.01,0.007l0.011,0.006l0.01,0.007l0.01,0.006l0.011,0.006l0.01,0.006l0.01,0.006l0.011,0.006l0.01,0.006l0.011,0.006l0.01,0.006l0.011,0.006l0.011,0.006l0.01,0.006l0.011,0.005l0.011,0.006l0.011,0.005l0.01,0.006l0.011,0.005l0.011,0.005l0.011,0.006l0.011,0.005l0.011,0.005l0.011,0.005l0.011,0.005l0.011,0.005l0.012,0.005l0.011,0.004l0.011,0.005l0.011,0.005l0.012,0.004l0.011,0.005l0.011,0.004l0.012,0.005l0.011,0.004l0.012,0.004l0.011,0.004l0.012,0.004l0.011,0.004l0.012,0.004l0.011,0.004l0.012,0.004l0.012,0.004l0.012,0.004l0.011,0.003l0.012,0.004l0.012,0.003l0.012,0.004l0.012,0.003l0.011,0.003l0.012,0.003l0.012,0.004l0.012,0.003l0.012,0.003l0.012,0.003l0.013,0.002l0.012,0.003l0.012,0.003l0.012,0.002l0.012,0.003l0.012,0.002l0.013,0.003l0.012,0.002l0.012,0.002l0.012,0.003l0.013,0.002l0.012,0.002l0.013,0.002l0.012,0.001l0.012,0.002l0.013,0.002l0.012,0.002l0.013,0.001l0.012,0.002l0.013,0.001l0.013,0.001l0.012,0.002l0.013,0.001l0.013,0.001l0.012,0.001l0.013,0.001l0.013,0.001l0.012,0l0.013,0.001l0.013,0.001l0.013,0l0.013,0.001l0.012,-0l0.013,0l0.013,0l0.013,0.001l0.013,-0l96.611,-0c1.104,-0 2,-0.897 2,-2c0,-1.104 -0.896,-2 -2,-2l-94.611,-0l-0,-94.611c-0,-1.104 -0.896,-2 -2,-2c-1.104,-0 -2,0.896 -2,2l-0,96.611Z" style="fill:url(#_Linear6);"/></g><defs><linearGradient id="_Linear1" x1="0" y1="0" x2="1" y2="0" gradientUnits="userSpaceOnUse" gradientTransform="matrix(-100.611,100.611,-562.776,-562.776,122.449,21.8085)"><stop offset="0" style="stop-color:#96e1aa;stop-opacity:1"/><stop offset="1" style="stop-color:#0095d9;stop-opacity:1"/></linearGradient><linearGradient id="_Linear2" x1="0" y1="0" x2="1" y2="0" gradientUnits="userSpaceOnUse" gradientTransform="matrix(-100.611,100.611,-562.776,-562.776,122.449,21.8085)"><stop offset="0" style="stop-color:#96e1aa;stop-opacity:1"/><stop offset="1" style="stop-color:#0095d9;stop-opacity:1"/></linearGradient><linearGradient id="_Linear3" x1="0" y1="0" x2="1" y2="0" gradientUnits="userSpaceOnUse" gradientTransform="matrix(-100.611,100.611,-562.776,-562.776,122.449,21.8085)"><stop offset="0" style="stop-color:#96e1aa;stop-opacity:1"/><stop offset="1" style="stop-color:#0095d9;stop-opacity:1"/></linearGradient><linearGradient id="_Linear4" x1="0" y1="0" x2="1" y2="0" gradientUnits="userSpaceOnUse" gradientTransform="matrix(-100.611,100.611,-562.776,-562.776,122.449,21.8085)"><stop offset="0" style="stop-color:#96e1aa;stop-opacity:1"/><stop offset="1" style="stop-color:#0095d9;stop-opacity:1"/></linearGradient><linearGradient id="_Linear5" x1="0" y1="0" x2="1" y2="0" gradientUnits="userSpaceOnUse" gradientTransform="matrix(-100.611,1.23213e-14,-7.09941e-15,-57.9711,122.449,50.6119)"><stop offset="0" style="stop-color:#f8cec4;stop-opacity:1"/><stop offset="1" style="stop-color:#c853a8;stop-opacity:1"/></linearGradient><linearGradient id="_Linear6" x1="0" y1="0" x2="1" y2="0" gradientUnits="userSpaceOnUse" gradientTransform="matrix(100.611,-100.611,100.611,100.611,21.838,122.42)"><stop offset="0" style="stop-color:#454c54;stop-opacity:1"/><stop offset="1" style="stop-color:#a5a8af;stop-opacity:1"/></linearGradient></defs></svg>