<?xml version="1.0" encoding="UTF-8" standalone="no"?>
<!DOCTYPE svg PUBLIC "-//W3C//DTD SVG 1.1//EN" "http://www.w3.org/Graphics/SVG/1.1/DTD/svg11.dtd">
<svg width="100%" height="100%" viewBox="0 0 800 800" version="1.1" xmlns="http://www.w3.org/2000/svg" xmlns:xlink="http://www.w3.org/1999/xlink" xml:space="preserve" xmlns:serif="http://www.serif.com/" style="fill-rule:evenodd;clip-rule:evenodd;stroke-linejoin:round;stroke-miterlimit:2;">
    <g transform="matrix(1,0,0,1,-1159,-1950)">
        <g transform="matrix(2.02015,0,0,2.02017,872.216,1393.69)">
            <rect x="142.327" y="275.741" width="396.011" height="396.011" style="fill:none;"/>
            <g transform="matrix(0.495014,0,0,0.495007,-431.759,-689.886)">
                <path d="M1765.99,2119.49L1353.49,2119.49C1339.68,2119.49 1328.49,2130.68 1328.49,2144.49L1328.49,2556.99C1328.49,2570.8 1339.68,2581.99 1353.49,2581.99L1765.99,2581.99C1779.8,2581.99 1790.99,2570.8 1790.99,2556.99L1790.99,2144.49C1790.99,2130.69 1779.79,2119.49 1765.99,2119.49ZM1740.99,2169.49L1378.49,2169.49C1378.49,2255.21 1378.49,2531.99 1378.49,2531.99C1378.49,2531.99 1740.99,2531.99 1740.99,2531.99L1740.99,2169.49Z" style="fill:url(#_Linear1);"/>
            </g>
        </g>
    </g>
    <defs>
        <linearGradient id="_Linear1" x1="0" y1="0" x2="1" y2="0" gradientUnits="userSpaceOnUse" gradientTransform="matrix(800,-800.011,800.011,800,1159.74,2750.75)"><stop offset="0" style="stop-color:rgb(189,193,195);stop-opacity:1"/><stop offset="1" style="stop-color:white;stop-opacity:1"/></linearGradient>
    </defs>
</svg>
