<?xml version="1.0" encoding="UTF-8" standalone="no"?><!DOCTYPE svg PUBLIC "-//W3C//DTD SVG 1.1//EN" "http://www.w3.org/Graphics/SVG/1.1/DTD/svg11.dtd"><svg width="100%" height="100%" viewBox="0 0 144 144" version="1.1" xmlns="http://www.w3.org/2000/svg" xmlns:xlink="http://www.w3.org/1999/xlink" xml:space="preserve" xmlns:serif="http://www.serif.com/" style="fill-rule:evenodd;clip-rule:evenodd;stroke-linecap:round;stroke-linejoin:round;stroke-miterlimit:1;"><rect x="0.144" y="0.171" width="144" height="144.002" style="fill:none;"/><g transform="matrix(0.359998,0,0,0.360003,-86.9988,-324.385)"><g transform="matrix(55.5556,0,0,55.5556,294.231,1076.95)"><path d="M0.768,-0.342l-0.106,-0.109c-0.087,0.141 -0.262,0.279 -0.421,0.324l-0,-0.587l-0.142,0l0,0.767c0.27,-0.023 0.517,-0.176 0.669,-0.395Z" style="fill:#827164;fill-opacity:0.29;fill-rule:nonzero;"/></g><g transform="matrix(55.5556,0,0,55.5556,339.731,1076.95)"><path d="M0.824,-0.694l-0.136,-0.054c-0.069,0.133 -0.381,0.387 -0.628,0.491l0.04,0.137c0.102,-0.044 0.23,-0.12 0.352,-0.209l0,0.383l0.143,-0l-0,-0.495c0.1,-0.086 0.185,-0.176 0.229,-0.253Z" style="fill:#827164;fill-opacity:0.29;fill-rule:nonzero;"/></g><g transform="matrix(55.5556,0,0,55.5556,388.009,1076.95)"><path d="M0.523,-0.244l0.09,0.1c0.143,-0.094 0.233,-0.255 0.233,-0.386l-0,-0.108l-0.466,0.016l-0.016,-0.151l-0.143,0.006l0.016,0.15l-0.158,0.006l0,0.131l0.173,-0.006l0.059,0.546l0.142,-0.006l-0.059,-0.545l0.308,-0.011c-0.001,0.077 -0.057,0.175 -0.179,0.258Z" style="fill:#827164;fill-opacity:0.29;fill-rule:nonzero;"/></g><g transform="matrix(55.5556,0,0,55.5556,439.954,1076.95)"><rect x="0.113" y="-0.396" width="0.551" height="0.131" style="fill:#827164;fill-opacity:0.29;fill-rule:nonzero;"/></g><g transform="matrix(55.5556,0,0,55.5556,483.12,1076.95)"><path d="M0.091,0.075l0.124,-0l-0,-0.654l0.214,-0c-0.004,0.128 -0.038,0.182 -0.209,0.314l0.078,0.102c0.094,-0.077 0.153,-0.133 0.192,-0.193c0.007,-0.01 0.01,-0.009 0.019,-0l0.191,0.191l0.085,-0.087l-0.174,-0.177c-0.021,-0.019 -0.041,-0.021 -0.062,-0.001l-0.023,0.022l-0.007,-0.004c0.021,-0.047 0.03,-0.101 0.034,-0.167l0.233,-0l0,0.517l-0.175,0l0.033,0.127l0.123,-0c0.099,-0 0.144,-0.04 0.144,-0.14l-0,-0.62l-0.356,0l-0,-0.144l-0.126,0l0,0.144l-0.338,0l0,0.77Z" style="fill:#827164;fill-opacity:0.29;fill-rule:nonzero;"/></g><g transform="matrix(55.5556,0,0,55.5556,538.676,1076.95)"><path d="M0.806,-0.505l-0,-0.133c-0.124,-0.008 -0.245,-0.009 -0.383,0l0,0.135c0.14,-0.009 0.252,-0.01 0.383,-0.002Zm-0.737,0.174c0,0.1 0.013,0.224 0.061,0.384l0.146,-0.014c-0.049,-0.162 -0.066,-0.253 -0.066,-0.375c-0,-0.105 0.013,-0.196 0.066,-0.364l-0.144,-0.014c-0.044,0.124 -0.063,0.251 -0.063,0.383Zm0.317,0.085c0,0.118 0.059,0.214 0.223,0.237c0.056,0.008 0.147,0.011 0.234,0.004l-0,-0.138c-0.106,0.007 -0.175,0.006 -0.219,0c-0.068,-0.009 -0.105,-0.054 -0.105,-0.113l-0.133,0.01Z" style="fill:#827164;fill-opacity:0.29;fill-rule:nonzero;"/></g><g transform="matrix(55.5556,0,0,55.5556,386.509,1171.4)"><path d="M0.169,0.08l0.119,-0l-0,-0.535l0.081,0.085c0.056,-0.069 0.105,-0.147 0.147,-0.229l0,0.679l0.12,-0l-0,-0.227l0.285,-0l-0,-0.113l-0.285,0l-0,-0.115l0.284,-0l-0,-0.113l-0.284,0l-0,-0.111l0.307,-0l-0,-0.115l-0.374,0c0.015,-0.036 0.028,-0.071 0.039,-0.107l-0.12,-0.03c-0.044,0.142 -0.11,0.261 -0.2,0.372l-0,-0.1c0.037,-0.075 0.065,-0.156 0.086,-0.241l-0.112,-0.036c-0.049,0.19 -0.113,0.316 -0.221,0.427l0.06,0.117c0.024,-0.024 0.047,-0.05 0.068,-0.077l0,0.469Z" style="fill:#827164;fill-opacity:0.29;fill-rule:nonzero;"/></g><g transform="matrix(55.5556,0,0,55.5556,442.065,1171.4)"><path d="M0.054,-0.012l0.108,0.098c0.059,-0.128 0.081,-0.272 0.084,-0.465l0.142,-0c0,0.073 -0.002,0.117 -0.009,0.157c-0.007,0.039 -0.021,0.047 -0.043,0.047l-0.072,0l0.021,0.112l0.078,-0c0.077,-0 0.108,-0.032 0.126,-0.104c0.016,-0.066 0.018,-0.135 0.018,-0.318l-0.26,0l-0,-0.118l0.305,-0c0.004,0.18 0.032,0.319 0.071,0.424c-0.054,0.06 -0.121,0.107 -0.205,0.147l0.063,0.112c0.078,-0.041 0.143,-0.088 0.197,-0.144c0.027,0.044 0.056,0.077 0.085,0.1c0.071,0.056 0.162,0.035 0.169,-0.061l0.011,-0.157l-0.102,-0.049l-0.007,0.167c-0.027,-0.023 -0.052,-0.056 -0.075,-0.099c0.066,-0.097 0.11,-0.214 0.139,-0.358l-0.111,-0.036c-0.019,0.1 -0.045,0.183 -0.08,0.253c-0.021,-0.08 -0.034,-0.179 -0.036,-0.299l0.262,-0l0,-0.114l-0.084,0l0.051,-0.064c-0.039,-0.024 -0.104,-0.051 -0.151,-0.064l-0.064,0.08c0.036,0.01 0.082,0.029 0.122,0.048l-0.136,0l-0,-0.123l-0.12,0l0,0.123l-0.426,0l0,0.273c0,0.209 -0.021,0.332 -0.071,0.432Z" style="fill:#827164;fill-opacity:0.29;fill-rule:nonzero;"/></g></g><circle cx="72.144" cy="72.171" r="54.034" style="fill:url(#_Linear1);"/><rect x="40.644" y="50.003" width="63" height="44.338" style="fill:#fff;stroke:url(#_Linear2);stroke-width:4px;"/><path d="M72.144,79.184l31.5,-29.181l-63,-0l31.5,29.181Z" style="fill:#fff;stroke:url(#_Linear3);stroke-width:4px;"/><defs><linearGradient id="_Linear1" x1="0" y1="0" x2="1" y2="0" gradientUnits="userSpaceOnUse" gradientTransform="matrix(108.068,-68.2904,68.2904,108.068,18.1096,116.525)"><stop offset="0" style="stop-color:#f8cec4;stop-opacity:1"/><stop offset="1" style="stop-color:#c853a8;stop-opacity:1"/></linearGradient><linearGradient id="_Linear2" x1="0" y1="0" x2="1" y2="0" gradientUnits="userSpaceOnUse" gradientTransform="matrix(63,0,0,44.3375,40.6435,72.1715)"><stop offset="0" style="stop-color:#9b928d;stop-opacity:1"/><stop offset="1" style="stop-color:#787067;stop-opacity:1"/></linearGradient><linearGradient id="_Linear3" x1="0" y1="0" x2="1" y2="0" gradientUnits="userSpaceOnUse" gradientTransform="matrix(63,-6.83632e-16,2.90881e-16,-29.1813,40.6435,64.5934)"><stop offset="0" style="stop-color:#9b928d;stop-opacity:1"/><stop offset="1" style="stop-color:#787067;stop-opacity:1"/></linearGradient></defs></svg>