<?xml version="1.0" encoding="UTF-8" standalone="no"?><!DOCTYPE svg PUBLIC "-//W3C//DTD SVG 1.1//EN" "http://www.w3.org/Graphics/SVG/1.1/DTD/svg11.dtd"><svg width="100%" height="100%" viewBox="0 0 144 144" version="1.1" xmlns="http://www.w3.org/2000/svg" xmlns:xlink="http://www.w3.org/1999/xlink" xml:space="preserve" xmlns:serif="http://www.serif.com/" style="fill-rule:evenodd;clip-rule:evenodd;stroke-linecap:round;stroke-linejoin:round;stroke-miterlimit:1;"><rect x="0.14" y="0.113" width="144" height="144.002" style="fill:none;"/><g id="レイヤー3"><path d="M125.881,64.191c-0,-1.004 -0.816,-1.82 -1.821,-1.82l-16.519,-0c-1.004,-0 -1.82,0.816 -1.82,1.82c-0,1.005 0.816,1.821 1.82,1.821l16.519,-0c1.005,-0 1.821,-0.816 1.821,-1.821Z" style="fill:url(#_Linear1);"/><path d="M129.241,82.951c-0,-1.005 -0.816,-1.821 -1.821,-1.821l-19.879,0c-1.004,0 -1.82,0.816 -1.82,1.821c-0,1.005 0.816,1.82 1.82,1.82l19.879,0c1.005,0 1.821,-0.815 1.821,-1.82Z" style="fill:url(#_Linear2);"/><path d="M137.161,73.935c-0,-1.005 -0.816,-1.821 -1.821,-1.821l-23.959,0c-1.004,0 -1.82,0.816 -1.82,1.821c-0,1.004 0.816,1.82 1.82,1.82l23.959,0c1.005,0 1.821,-0.816 1.821,-1.82Z" style="fill:url(#_Linear3);"/></g><rect x="18.264" y="43.611" width="81" height="57.005" style="fill:url(#_Linear4);stroke:url(#_Linear5);stroke-width:4px;"/><path d="M58.764,81.13l40.5,-37.519l-81,0l40.5,37.519Z" style="fill:url(#_Linear6);stroke:url(#_Linear7);stroke-width:4px;"/><defs><linearGradient id="_Linear1" x1="0" y1="0" x2="1" y2="0" gradientUnits="userSpaceOnUse" gradientTransform="matrix(41.04,0,-1.39474e-47,7.41243,105.721,64.1914)"><stop offset="0" style="stop-color:#5956ac;stop-opacity:1"/><stop offset="1" style="stop-color:#7ac0e8;stop-opacity:1"/></linearGradient><linearGradient id="_Linear2" x1="0" y1="0" x2="1" y2="0" gradientUnits="userSpaceOnUse" gradientTransform="matrix(38.4191,0,0,5.94777,105.721,82.9508)"><stop offset="0" style="stop-color:#5956ac;stop-opacity:1"/><stop offset="1" style="stop-color:#7ac0e8;stop-opacity:1"/></linearGradient><linearGradient id="_Linear3" x1="0" y1="0" x2="1" y2="0" gradientUnits="userSpaceOnUse" gradientTransform="matrix(37.44,0,-2.43087e-63,4.93936,109.561,73.9347)"><stop offset="0" style="stop-color:#5956ac;stop-opacity:1"/><stop offset="1" style="stop-color:#7ac0e8;stop-opacity:1"/></linearGradient><linearGradient id="_Linear4" x1="0" y1="0" x2="1" y2="0" gradientUnits="userSpaceOnUse" gradientTransform="matrix(81,0,0,57.0054,18.2635,72.1141)"><stop offset="0" style="stop-color:#d5d2cc;stop-opacity:1"/><stop offset="1" style="stop-color:#e3dfd9;stop-opacity:1"/></linearGradient><linearGradient id="_Linear5" x1="0" y1="0" x2="1" y2="0" gradientUnits="userSpaceOnUse" gradientTransform="matrix(81,0,0,57.0054,18.2635,72.1141)"><stop offset="0" style="stop-color:#9b928d;stop-opacity:1"/><stop offset="1" style="stop-color:#787067;stop-opacity:1"/></linearGradient><linearGradient id="_Linear6" x1="0" y1="0" x2="1" y2="0" gradientUnits="userSpaceOnUse" gradientTransform="matrix(81,-8.78955e-16,3.7399e-16,-37.5188,18.2635,62.3708)"><stop offset="0" style="stop-color:#d5d2cc;stop-opacity:1"/><stop offset="1" style="stop-color:#e3dfd9;stop-opacity:1"/></linearGradient><linearGradient id="_Linear7" x1="0" y1="0" x2="1" y2="0" gradientUnits="userSpaceOnUse" gradientTransform="matrix(81,-8.78955e-16,3.7399e-16,-37.5188,18.2635,62.3708)"><stop offset="0" style="stop-color:#9b928d;stop-opacity:1"/><stop offset="1" style="stop-color:#787067;stop-opacity:1"/></linearGradient></defs></svg>