<?xml version="1.0" encoding="UTF-8" standalone="no"?><!DOCTYPE svg PUBLIC "-//W3C//DTD SVG 1.1//EN" "http://www.w3.org/Graphics/SVG/1.1/DTD/svg11.dtd"><svg width="100%" height="100%" viewBox="0 0 144 144" version="1.1" xmlns="http://www.w3.org/2000/svg" xmlns:xlink="http://www.w3.org/1999/xlink" xml:space="preserve" xmlns:serif="http://www.serif.com/" style="fill-rule:evenodd;clip-rule:evenodd;stroke-linejoin:round;stroke-miterlimit:2;"><rect x="0.129" y="0.01" width="144" height="144.002" style="fill:none;"/><path d="M116.629,43.508c0,-2.209 -1.79,-4 -4,-4l-81,-0c-2.209,-0 -4,1.791 -4,4l0,57.005c0,2.209 1.791,4 4,4l81,0c2.21,0 4,-1.791 4,-4l0,-57.005Zm-4,-0l-81,-0l0,57.005l81,0l0,-57.005Z"/><path d="M69.411,83.961c1.534,1.421 3.903,1.421 5.437,0l40.5,-37.519c1.207,-1.118 1.606,-2.862 1.005,-4.394c-0.6,-1.532 -2.078,-2.54 -3.724,-2.54l-81,-0c-1.645,-0 -3.123,1.008 -3.724,2.54c-0.6,1.532 -0.201,3.276 1.006,4.394l40.5,37.519Zm2.718,-2.934l40.5,-37.519l-81,-0l40.5,37.519Z"/></svg>