<?xml version="1.0" encoding="UTF-8" standalone="no"?><!DOCTYPE svg PUBLIC "-//W3C//DTD SVG 1.1//EN" "http://www.w3.org/Graphics/SVG/1.1/DTD/svg11.dtd"><svg width="100%" height="100%" viewBox="0 0 144 144" version="1.1" xmlns="http://www.w3.org/2000/svg" xmlns:xlink="http://www.w3.org/1999/xlink" xml:space="preserve" xmlns:serif="http://www.serif.com/" style="fill-rule:evenodd;clip-rule:evenodd;stroke-linejoin:round;stroke-miterlimit:2;"><rect x="0.14" y="0.132" width="144" height="144.002" style="fill:none;"/><path d="M86.844,83.104l-3.716,3.716l5.762,5.762l3.716,-3.717l-5.762,-5.761Z" style="fill:url(#_Linear1);"/><path d="M96.863,89.459c-2.041,-2.041 -5.355,-2.041 -7.397,0c-2.041,2.042 -2.041,5.356 0,7.398l21.454,21.453c2.041,2.042 5.356,2.042 7.397,0c2.042,-2.041 2.042,-5.356 0,-7.397l-21.454,-21.454Z" style="fill:url(#_Linear2);"/><path d="M35.147,35.14c14.287,-14.287 37.486,-14.287 51.774,0c14.287,14.288 14.287,37.487 -0,51.774c-14.288,14.287 -37.487,14.287 -51.774,-0c-14.287,-14.287 -14.287,-37.486 0,-51.774Zm5.471,5.472c11.268,-11.268 29.564,-11.268 40.831,-0c11.268,11.267 11.268,29.563 0,40.831c-11.267,11.267 -29.563,11.267 -40.831,-0c-11.267,-11.268 -11.267,-29.564 0,-40.831Z" style="fill:url(#_Linear3);"/><path d="M41.147,41.14c10.976,-10.976 28.798,-10.976 39.774,-0c10.976,10.976 10.976,28.798 0,39.774c-10.976,10.977 -28.798,10.977 -39.774,0c-10.977,-10.976 -10.977,-28.798 -0,-39.774Z" style="fill:url(#_Radial4);"/><path d="M47.405,82.894c-0,-0 -14.892,-8.782 -11.073,-26.347c3.311,-15.234 12.6,-19.474 17.31,-19.346c5.401,0.146 11.455,6.364 7.318,13.046c-4.876,7.877 -12.791,8.464 -14.955,18.519c-2.135,9.919 1.4,14.128 1.4,14.128Z" style="fill:#fff;fill-opacity:0.43;"/><g transform="matrix(0.179998,0,0,0.18,-191.813,-218.805)"><rect x="1304.72" y="1538.22" width="199.219" height="24.219" style="fill:url(#_Linear5);fill-rule:nonzero;"/><path d="M1297.86,1562.44c0,3.792 3.075,6.867 6.867,6.867l199.219,-0c3.793,-0 6.868,-3.075 6.868,-6.867l-0,-24.219c-0,-3.793 -3.075,-6.867 -6.868,-6.867l-199.219,-0c-3.792,-0 -6.867,3.074 -6.867,6.867l0,24.219Zm6.867,-0l0,-24.219l199.219,-0l0,24.219l-199.219,-0Z" style="fill:#fff;"/></g><defs><linearGradient id="_Linear1" x1="0" y1="0" x2="1" y2="0" gradientUnits="userSpaceOnUse" gradientTransform="matrix(3.71609,-3.71609,5.7616,5.7616,86.0088,89.7007)"><stop offset="0" style="stop-color:#dadcdd;stop-opacity:1"/><stop offset="1" style="stop-color:#a5a8af;stop-opacity:1"/></linearGradient><linearGradient id="_Linear2" x1="0" y1="0" x2="1" y2="0" gradientUnits="userSpaceOnUse" gradientTransform="matrix(23.8163,-13.3795,52.1825,92.8883,97.6474,106.565)"><stop offset="0" style="stop-color:#938284;stop-opacity:1"/><stop offset="1" style="stop-color:#31373f;stop-opacity:1"/></linearGradient><linearGradient id="_Linear3" x1="0" y1="0" x2="1" y2="0" gradientUnits="userSpaceOnUse" gradientTransform="matrix(73.2492,-6.30033,6.30033,73.2492,24.6002,64.3682)"><stop offset="0" style="stop-color:#938284;stop-opacity:1"/><stop offset="1" style="stop-color:#31373f;stop-opacity:1"/></linearGradient><radialGradient id="_Radial4" cx="0" cy="0" r="1" gradientUnits="userSpaceOnUse" gradientTransform="matrix(4.50386,47.9412,-47.9406,4.5038,75.3033,61.1049)"><stop offset="0" style="stop-color:#cbeae3;stop-opacity:1"/><stop offset="1" style="stop-color:#b2cda1;stop-opacity:1"/></radialGradient><linearGradient id="_Linear5" x1="0" y1="0" x2="1" y2="0" gradientUnits="userSpaceOnUse" gradientTransform="matrix(1.7076e-14,-278.868,525.189,3.21581e-14,1404.72,1677.27)"><stop offset="0" style="stop-color:#008678;stop-opacity:1"/><stop offset="1" style="stop-color:#419b6a;stop-opacity:1"/></linearGradient></defs></svg>