<?xml version="1.0" encoding="UTF-8" standalone="no"?><!DOCTYPE svg PUBLIC "-//W3C//DTD SVG 1.1//EN" "http://www.w3.org/Graphics/SVG/1.1/DTD/svg11.dtd"><svg width="100%" height="100%" viewBox="0 0 144 144" version="1.1" xmlns="http://www.w3.org/2000/svg" xmlns:xlink="http://www.w3.org/1999/xlink" xml:space="preserve" xmlns:serif="http://www.serif.com/" style="fill-rule:evenodd;clip-rule:evenodd;stroke-linejoin:round;stroke-miterlimit:2;"><rect x="0.133" y="0.171" width="144" height="144.002" style="fill:none;"/><circle cx="72.133" cy="72.171" r="54" style="fill:url(#_Radial1);"/><path d="M80.934,77.679l-2.741,2.74l4.249,4.25l2.741,-2.741l-4.249,-4.249Z" style="fill:url(#_Linear2);"/><path d="M88.323,82.366c-1.505,-1.505 -3.95,-1.505 -5.456,0c-1.505,1.506 -1.505,3.95 0,5.456l15.823,15.822c1.505,1.506 3.95,1.506 5.456,0c1.505,-1.505 1.505,-3.95 -0,-5.455l-15.823,-15.823Z" style="fill:url(#_Linear3);"/><path d="M42.806,42.305c10.537,-10.537 27.647,-10.537 38.184,-0c10.537,10.537 10.537,27.647 0,38.184c-10.537,10.537 -27.647,10.537 -38.184,-0c-10.537,-10.537 -10.537,-27.647 0,-38.184Zm4.035,4.035c8.31,-8.31 21.804,-8.31 30.114,-0c8.31,8.31 8.31,21.804 0,30.114c-8.31,8.31 -21.804,8.31 -30.114,-0c-8.31,-8.31 -8.31,-21.804 0,-30.114Z" style="fill:url(#_Linear4);"/><path d="M47.231,46.729c8.095,-8.095 21.239,-8.095 29.334,0c8.096,8.096 8.096,21.24 0,29.335c-8.095,8.095 -21.239,8.095 -29.334,0c-8.095,-8.095 -8.095,-21.239 -0,-29.335Z" style="fill:url(#_Radial5);"/><path d="M51.847,77.524c-0,-0 -10.983,-6.477 -8.167,-19.431c2.442,-11.235 9.293,-14.363 12.766,-14.269c3.984,0.108 8.449,4.694 5.398,9.622c-3.597,5.81 -9.434,6.242 -11.03,13.658c-1.574,7.315 1.033,10.42 1.033,10.42Z" style="fill:#fff;fill-opacity:0.43;"/><defs><radialGradient id="_Radial1" cx="0" cy="0" r="1" gradientUnits="userSpaceOnUse" gradientTransform="matrix(-58.9725,71.2018,-71.2009,-58.9717,91.4001,91.6499)"><stop offset="0" style="stop-color:#d9d3d1;stop-opacity:1"/><stop offset="1" style="stop-color:#d5d2cc;stop-opacity:1"/></radialGradient><linearGradient id="_Linear2" x1="0" y1="0" x2="1" y2="0" gradientUnits="userSpaceOnUse" gradientTransform="matrix(2.74068,-2.74068,4.24928,4.24928,80.3176,82.544)"><stop offset="0" style="stop-color:#dadcdd;stop-opacity:1"/><stop offset="1" style="stop-color:#a5a8af;stop-opacity:1"/></linearGradient><linearGradient id="_Linear3" x1="0" y1="0" x2="1" y2="0" gradientUnits="userSpaceOnUse" gradientTransform="matrix(17.565,-9.86759,38.4855,68.5068,88.9013,94.982)"><stop offset="0" style="stop-color:#938284;stop-opacity:1"/><stop offset="1" style="stop-color:#31373f;stop-opacity:1"/></linearGradient><linearGradient id="_Linear4" x1="0" y1="0" x2="1" y2="0" gradientUnits="userSpaceOnUse" gradientTransform="matrix(54.0226,-4.6466,4.6466,54.0226,35.0277,63.8609)"><stop offset="0" style="stop-color:#938284;stop-opacity:1"/><stop offset="1" style="stop-color:#31373f;stop-opacity:1"/></linearGradient><radialGradient id="_Radial5" cx="0" cy="0" r="1" gradientUnits="userSpaceOnUse" gradientTransform="matrix(3.32168,35.3575,-35.357,3.32164,72.4221,61.4541)"><stop offset="0" style="stop-color:#cbeae3;stop-opacity:1"/><stop offset="1" style="stop-color:#b2cda1;stop-opacity:1"/></radialGradient></defs></svg>