<?xml version="1.0" encoding="UTF-8" standalone="no"?><!DOCTYPE svg PUBLIC "-//W3C//DTD SVG 1.1//EN" "http://www.w3.org/Graphics/SVG/1.1/DTD/svg11.dtd"><svg width="100%" height="100%" viewBox="0 0 144 144" version="1.1" xmlns="http://www.w3.org/2000/svg" xmlns:xlink="http://www.w3.org/1999/xlink" xml:space="preserve" xmlns:serif="http://www.serif.com/" style="fill-rule:evenodd;clip-rule:evenodd;stroke-linejoin:round;stroke-miterlimit:2;"><rect x="0.133" y="0.113" width="144" height="144.002" style="fill:none;"/><path d="M86.837,83.085l-3.716,3.716l5.762,5.761l3.716,-3.716l-5.762,-5.761Z" style="fill:url(#_Linear1);"/><path d="M96.856,89.44c-2.041,-2.041 -5.356,-2.041 -7.397,0c-2.041,2.042 -2.041,5.356 0,7.398l21.454,21.453c2.041,2.042 5.356,2.042 7.397,0c2.041,-2.041 2.041,-5.356 0,-7.397l-21.454,-21.454Z" style="fill:url(#_Linear2);"/><path d="M35.14,35.121c14.287,-14.287 37.486,-14.287 51.773,0c14.288,14.288 14.288,37.486 0,51.774c-14.287,14.287 -37.486,14.287 -51.773,-0c-14.287,-14.288 -14.287,-37.486 0,-51.774Zm5.471,5.471c11.268,-11.267 29.564,-11.267 40.831,0c11.268,11.268 11.268,29.564 0,40.832c-11.267,11.267 -29.563,11.267 -40.831,-0c-11.267,-11.268 -11.267,-29.564 0,-40.832Z" style="fill:url(#_Linear3);"/><path d="M41.139,41.121c10.977,-10.977 28.799,-10.977 39.775,-0c10.976,10.976 10.976,28.798 0,39.774c-10.976,10.976 -28.798,10.976 -39.775,0c-10.976,-10.976 -10.976,-28.798 0,-39.774Z" style="fill:url(#_Radial4);"/><path d="M47.398,82.875c-0,-0 -14.892,-8.782 -11.073,-26.347c3.311,-15.234 12.6,-19.474 17.31,-19.346c5.401,0.146 11.455,6.363 7.318,13.046c-4.876,7.877 -12.792,8.464 -14.955,18.519c-2.135,9.918 1.4,14.128 1.4,14.128Z" style="fill:#fff;fill-opacity:0.43;"/><g transform="matrix(0.179998,0,0,0.18,-191.82,-218.824)"><path d="M1386.47,1660.84l30.1,0l0,-28.766l-30.1,-0l0,28.766Zm-46.4,-196.793l9.6,22.665c12,-10.136 29.867,-17.605 49.053,-17.605c21.319,0 38.414,12.27 38.414,28.807c-0,10.135 -6.678,17.07 -18.697,28.539c-21.314,20.804 -29.57,38.141 -29.837,66.946l26.367,0c-0.266,-22.137 7.211,-36.807 19.496,-49.609c13.324,-14.137 29.037,-24.805 29.037,-45.876c0,-30.671 -29.304,-53.574 -62.648,-53.574c-27.452,0 -45.318,9.587 -60.785,19.707Z" style="fill:url(#_Linear5);fill-rule:nonzero;"/><path d="M1379.61,1660.84c-0,3.793 3.074,6.868 6.867,6.868l30.1,-0c3.793,-0 6.868,-3.075 6.868,-6.868l-0,-28.766c-0,-3.793 -3.075,-6.868 -6.868,-6.868l-30.1,0c-3.793,0 -6.867,3.075 -6.867,6.868l-0,28.766Zm6.867,0l30.1,0l0,-28.766l-30.1,-0l0,28.766Zm-50.16,-202.539c-2.78,1.818 -3.859,5.366 -2.563,8.425l9.6,22.664c0.851,2.009 2.606,3.494 4.728,4.001c2.123,0.507 4.359,-0.025 6.026,-1.433c10.914,-9.218 27.173,-15.984 44.622,-15.984c17.061,0 31.546,8.706 31.546,21.94c0,3.611 -1.298,6.614 -3.559,9.774c-2.97,4.152 -7.383,8.427 -13.011,13.796c-0.019,0.018 -0.038,0.036 -0.056,0.055c-22.847,22.3 -31.621,40.919 -31.907,71.797c-0.017,1.832 0.699,3.595 1.989,4.897c1.29,1.301 3.046,2.034 4.878,2.034l26.367,-0c1.836,-0 3.595,-0.735 4.885,-2.041c1.29,-1.306 2.004,-3.074 1.982,-4.909c-0.24,-19.978 6.498,-33.219 17.584,-44.773c0.014,-0.015 0.029,-0.029 0.043,-0.044c6.801,-7.217 14.191,-13.57 19.902,-20.786c6.52,-8.238 11.005,-17.521 11.005,-29.8c-0,-34.275 -32.254,-60.441 -69.516,-60.441c-29.137,0 -48.129,10.087 -64.545,20.828Zm3.76,5.746l9.6,22.665c12,-10.136 29.867,-17.605 49.053,-17.605c21.319,0 38.414,12.27 38.414,28.807c-0,10.135 -6.678,17.07 -18.697,28.539c-21.314,20.804 -29.57,38.141 -29.837,66.946l26.367,0c-0.266,-22.137 7.211,-36.807 19.496,-49.609c13.324,-14.137 29.037,-24.805 29.037,-45.876c0,-30.671 -29.304,-53.574 -62.648,-53.574c-27.452,0 -45.318,9.587 -60.785,19.707Z" style="fill:#fff;"/></g><defs><linearGradient id="_Linear1" x1="0" y1="0" x2="1" y2="0" gradientUnits="userSpaceOnUse" gradientTransform="matrix(3.71609,-3.71609,5.7616,5.7616,86.0017,89.6816)"><stop offset="0" style="stop-color:#dadcdd;stop-opacity:1"/><stop offset="1" style="stop-color:#a5a8af;stop-opacity:1"/></linearGradient><linearGradient id="_Linear2" x1="0" y1="0" x2="1" y2="0" gradientUnits="userSpaceOnUse" gradientTransform="matrix(23.8163,-13.3795,52.1825,92.8883,97.6403,106.546)"><stop offset="0" style="stop-color:#938284;stop-opacity:1"/><stop offset="1" style="stop-color:#31373f;stop-opacity:1"/></linearGradient><linearGradient id="_Linear3" x1="0" y1="0" x2="1" y2="0" gradientUnits="userSpaceOnUse" gradientTransform="matrix(73.2492,-6.30033,6.30033,73.2492,24.5931,64.3491)"><stop offset="0" style="stop-color:#938284;stop-opacity:1"/><stop offset="1" style="stop-color:#31373f;stop-opacity:1"/></linearGradient><radialGradient id="_Radial4" cx="0" cy="0" r="1" gradientUnits="userSpaceOnUse" gradientTransform="matrix(4.50386,47.9412,-47.9406,4.5038,75.2962,61.0858)"><stop offset="0" style="stop-color:#d5e5e8;stop-opacity:1"/><stop offset="1" style="stop-color:#b5cce8;stop-opacity:1"/></radialGradient><linearGradient id="_Linear5" x1="0" y1="0" x2="1" y2="0" gradientUnits="userSpaceOnUse" gradientTransform="matrix(1.7076e-14,-278.868,525.189,3.21581e-14,1404.72,1677.27)"><stop offset="0" style="stop-color:#0066c5;stop-opacity:1"/><stop offset="1" style="stop-color:#0089b8;stop-opacity:1"/></linearGradient></defs></svg>