<?xml version="1.0" encoding="UTF-8" standalone="no"?><!DOCTYPE svg PUBLIC "-//W3C//DTD SVG 1.1//EN" "http://www.w3.org/Graphics/SVG/1.1/DTD/svg11.dtd"><svg width="100%" height="100%" viewBox="0 0 144 144" version="1.1" xmlns="http://www.w3.org/2000/svg" xmlns:xlink="http://www.w3.org/1999/xlink" xml:space="preserve" xmlns:serif="http://www.serif.com/" style="fill-rule:evenodd;clip-rule:evenodd;stroke-linejoin:round;stroke-miterlimit:2;"><rect x="0.129" y="0.151" width="144" height="144.002" style="fill:none;"/><path d="M86.843,83.123l-3.716,3.716l5.762,5.762l3.716,-3.716l-5.762,-5.762Z" style="fill:url(#_Linear1);"/><path d="M96.863,89.479c-2.042,-2.042 -5.356,-2.042 -7.398,-0c-2.041,2.041 -2.041,5.356 0,7.397l21.454,21.454c2.041,2.041 5.356,2.041 7.397,-0c2.042,-2.042 2.042,-5.356 0,-7.398l-21.453,-21.453Z" style="fill:url(#_Linear2);"/><path d="M35.146,35.16c14.287,-14.288 37.486,-14.288 51.774,-0c14.287,14.287 14.287,37.486 -0,51.773c-14.288,14.287 -37.487,14.287 -51.774,-0c-14.287,-14.287 -14.287,-37.486 0,-51.773Zm5.471,5.471c11.268,-11.268 29.564,-11.268 40.832,-0c11.267,11.267 11.267,29.563 -0,40.831c-11.268,11.268 -29.564,11.268 -40.832,-0c-11.267,-11.268 -11.267,-29.564 0,-40.831Z" style="fill:url(#_Linear3);"/><path d="M41.146,41.159c10.976,-10.976 28.798,-10.976 39.774,-0c10.976,10.976 10.976,28.798 0,39.775c-10.976,10.976 -28.798,10.976 -39.774,-0c-10.977,-10.977 -10.977,-28.799 -0,-39.775Z" style="fill:url(#_Radial4);"/><path d="M47.404,82.913c-0,0 -14.892,-8.782 -11.073,-26.347c3.311,-15.233 12.6,-19.473 17.31,-19.346c5.401,0.146 11.455,6.364 7.318,13.046c-4.876,7.877 -12.791,8.464 -14.955,18.519c-2.135,9.919 1.4,14.128 1.4,14.128Z" style="fill:#fff;fill-opacity:0.43;"/><defs><linearGradient id="_Linear1" x1="0" y1="0" x2="1" y2="0" gradientUnits="userSpaceOnUse" gradientTransform="matrix(3.71609,-3.71609,5.7616,5.7616,86.0078,89.7198)"><stop offset="0" style="stop-color:#dadcdd;stop-opacity:1"/><stop offset="1" style="stop-color:#a5a8af;stop-opacity:1"/></linearGradient><linearGradient id="_Linear2" x1="0" y1="0" x2="1" y2="0" gradientUnits="userSpaceOnUse" gradientTransform="matrix(23.8163,-13.3795,52.1825,92.8883,97.6464,106.584)"><stop offset="0" style="stop-color:#938284;stop-opacity:1"/><stop offset="1" style="stop-color:#31373f;stop-opacity:1"/></linearGradient><linearGradient id="_Linear3" x1="0" y1="0" x2="1" y2="0" gradientUnits="userSpaceOnUse" gradientTransform="matrix(73.2492,-6.30033,6.30033,73.2492,24.5992,64.3873)"><stop offset="0" style="stop-color:#938284;stop-opacity:1"/><stop offset="1" style="stop-color:#31373f;stop-opacity:1"/></linearGradient><radialGradient id="_Radial4" cx="0" cy="0" r="1" gradientUnits="userSpaceOnUse" gradientTransform="matrix(4.50386,47.9412,-47.9406,4.5038,75.3023,61.1241)"><stop offset="0" style="stop-color:#d9d3d1;stop-opacity:1"/><stop offset="1" style="stop-color:#d5d2cc;stop-opacity:1"/></radialGradient></defs></svg>