<?xml version="1.0" encoding="UTF-8" standalone="no"?><!DOCTYPE svg PUBLIC "-//W3C//DTD SVG 1.1//EN" "http://www.w3.org/Graphics/SVG/1.1/DTD/svg11.dtd"><svg width="100%" height="100%" viewBox="0 0 144 144" version="1.1" xmlns="http://www.w3.org/2000/svg" xmlns:xlink="http://www.w3.org/1999/xlink" xml:space="preserve" xmlns:serif="http://www.serif.com/" style="fill-rule:evenodd;clip-rule:evenodd;stroke-linejoin:round;stroke-miterlimit:2;"><rect x="0.129" y="0.113" width="144" height="144.002" style="fill:none;"/><path d="M86.833,83.085l-3.716,3.716l5.762,5.761l3.716,-3.716l-5.762,-5.761Z" style="fill:url(#_Linear1);"/><path d="M96.853,89.44c-2.041,-2.041 -5.356,-2.041 -7.397,0c-2.042,2.042 -2.042,5.356 -0,7.398l21.453,21.453c2.042,2.042 5.356,2.042 7.398,0c2.041,-2.041 2.041,-5.356 -0,-7.397l-21.454,-21.454Z" style="fill:url(#_Linear2);"/><path d="M35.137,35.121c14.287,-14.287 37.486,-14.287 51.773,0c14.287,14.288 14.287,37.486 -0,51.774c-14.287,14.287 -37.486,14.287 -51.773,-0c-14.288,-14.288 -14.288,-37.486 -0,-51.774Zm5.471,5.471c11.267,-11.267 29.563,-11.267 40.831,0c11.268,11.268 11.268,29.564 -0,40.832c-11.268,11.267 -29.564,11.267 -40.831,-0c-11.268,-11.268 -11.268,-29.564 -0,-40.832Z" style="fill:url(#_Linear3);"/><path d="M41.136,41.121c10.976,-10.977 28.799,-10.977 39.775,-0c10.976,10.976 10.976,28.798 -0,39.774c-10.976,10.976 -28.799,10.976 -39.775,0c-10.976,-10.976 -10.976,-28.798 -0,-39.774Z" style="fill:url(#_Radial4);"/><path d="M47.394,82.875c0,-0 -14.891,-8.782 -11.073,-26.347c3.312,-15.234 12.601,-19.474 17.31,-19.346c5.401,0.146 11.455,6.363 7.319,13.046c-4.877,7.877 -12.792,8.464 -14.956,18.519c-2.134,9.918 1.4,14.128 1.4,14.128Z" style="fill:#fff;fill-opacity:0.43;"/><defs><linearGradient id="_Linear1" x1="0" y1="0" x2="1" y2="0" gradientUnits="userSpaceOnUse" gradientTransform="matrix(3.71609,-3.71609,5.7616,5.7616,85.9982,89.6816)"><stop offset="0" style="stop-color:#dadcdd;stop-opacity:1"/><stop offset="1" style="stop-color:#a5a8af;stop-opacity:1"/></linearGradient><linearGradient id="_Linear2" x1="0" y1="0" x2="1" y2="0" gradientUnits="userSpaceOnUse" gradientTransform="matrix(23.8163,-13.3795,52.1825,92.8883,97.6368,106.546)"><stop offset="0" style="stop-color:#938284;stop-opacity:1"/><stop offset="1" style="stop-color:#31373f;stop-opacity:1"/></linearGradient><linearGradient id="_Linear3" x1="0" y1="0" x2="1" y2="0" gradientUnits="userSpaceOnUse" gradientTransform="matrix(73.2492,-6.30033,6.30033,73.2492,24.5896,64.3491)"><stop offset="0" style="stop-color:#938284;stop-opacity:1"/><stop offset="1" style="stop-color:#31373f;stop-opacity:1"/></linearGradient><radialGradient id="_Radial4" cx="0" cy="0" r="1" gradientUnits="userSpaceOnUse" gradientTransform="matrix(4.50386,47.9412,-47.9406,4.5038,75.2927,61.0858)"><stop offset="0" style="stop-color:#d5e5e8;stop-opacity:1"/><stop offset="1" style="stop-color:#b5cce8;stop-opacity:1"/></radialGradient></defs></svg>