<?xml version="1.0" encoding="UTF-8" standalone="no"?><!DOCTYPE svg PUBLIC "-//W3C//DTD SVG 1.1//EN" "http://www.w3.org/Graphics/SVG/1.1/DTD/svg11.dtd"><svg width="100%" height="100%" viewBox="0 0 144 144" version="1.1" xmlns="http://www.w3.org/2000/svg" xmlns:xlink="http://www.w3.org/1999/xlink" xml:space="preserve" xmlns:serif="http://www.serif.com/" style="fill-rule:evenodd;clip-rule:evenodd;stroke-linecap:round;stroke-miterlimit:1;"><rect x="0.136" y="0.01" width="144" height="144.002" style="fill:none;"/><path d="M85.891,86.37l2.7,2.7" style="fill:none;stroke:#000;stroke-width:4px;"/><path d="M96.238,89.337c-2.042,-2.042 -5.356,-2.042 -7.398,-0c-2.041,2.041 -2.041,5.356 0,7.397l21.454,21.454c2.041,2.041 5.356,2.041 7.397,-0c2.042,-2.042 2.042,-5.356 0,-7.398l-21.453,-21.453Z" style="fill:none;stroke:#000;stroke-width:4px;"/><path d="M34.521,35.018c14.287,-14.287 37.486,-14.287 51.774,-0c14.287,14.287 14.287,37.486 -0,51.773c-14.288,14.287 -37.487,14.287 -51.774,0c-14.287,-14.287 -14.287,-37.486 0,-51.773Zm2.829,2.828c12.726,-12.726 33.39,-12.726 46.116,0c12.726,12.726 12.726,33.391 0,46.117c-12.726,12.726 -33.39,12.726 -46.116,-0c-12.727,-12.726 -12.727,-33.391 -0,-46.117l-0,0Z"/><path d="M40.521,41.017c10.976,-10.976 28.798,-10.976 39.774,0c10.976,10.976 10.976,28.799 0,39.775c-10.976,10.976 -28.798,10.976 -39.774,-0c-10.977,-10.976 -10.977,-28.799 -0,-39.775Zm2.828,2.829c9.415,-9.416 24.703,-9.415 34.118,-0c9.415,9.415 9.415,24.702 -0,34.117c-9.415,9.416 -24.703,9.416 -34.118,0c-9.415,-9.415 -9.415,-24.702 -0,-34.117l-0,-0Z"/><path d="M76.779,62.194l-14.438,-0l0,14.437l-3.996,0l0,-14.437l-14.437,-0l0,-3.996l14.437,-0l0,-14.438l3.996,0l0,14.438l14.438,-0l-0,3.996Z" style="fill-rule:nonzero;"/></svg>