<?xml version="1.0" encoding="UTF-8" standalone="no"?><!DOCTYPE svg PUBLIC "-//W3C//DTD SVG 1.1//EN" "http://www.w3.org/Graphics/SVG/1.1/DTD/svg11.dtd"><svg width="100%" height="100%" viewBox="0 0 144 144" version="1.1" xmlns="http://www.w3.org/2000/svg" xmlns:xlink="http://www.w3.org/1999/xlink" xml:space="preserve" xmlns:serif="http://www.serif.com/" style="fill-rule:evenodd;clip-rule:evenodd;stroke-linejoin:round;stroke-miterlimit:2;"><rect x="0.144" y="0.171" width="144" height="144.002" style="fill:none;"/><circle cx="72.144" cy="72.171" r="54" style="fill:url(#_Radial1);"/><path d="M80.944,77.679l-2.74,2.74l4.249,4.25l2.741,-2.741l-4.25,-4.249Z" style="fill:url(#_Linear2);"/><path d="M88.334,82.366c-1.506,-1.505 -3.95,-1.505 -5.456,0c-1.505,1.506 -1.505,3.95 0,5.456l15.823,15.822c1.505,1.506 3.95,1.506 5.455,0c1.506,-1.505 1.506,-3.95 0,-5.455l-15.822,-15.823Z" style="fill:url(#_Linear3);"/><path d="M42.817,42.305c10.537,-10.537 27.647,-10.537 38.184,-0c10.537,10.537 10.537,27.647 -0,38.184c-10.537,10.537 -27.647,10.537 -38.184,-0c-10.537,-10.537 -10.537,-27.647 -0,-38.184Zm4.035,4.035c8.31,-8.31 21.804,-8.31 30.114,-0c8.31,8.31 8.31,21.804 -0,30.114c-8.31,8.31 -21.804,8.31 -30.114,-0c-8.31,-8.31 -8.31,-21.804 -0,-30.114Z" style="fill:url(#_Linear4);"/><path d="M47.241,46.729c8.096,-8.095 21.24,-8.095 29.335,0c8.095,8.096 8.095,21.24 0,29.335c-8.095,8.095 -21.239,8.095 -29.335,0c-8.095,-8.095 -8.095,-21.239 0,-29.335Z" style="fill:url(#_Linear5);"/><path d="M51.857,77.524c0,-0 -10.983,-6.477 -8.167,-19.431c2.443,-11.235 9.294,-14.363 12.767,-14.269c3.983,0.108 8.448,4.694 5.397,9.622c-3.596,5.81 -9.434,6.242 -11.029,13.658c-1.575,7.315 1.032,10.42 1.032,10.42Z" style="fill:#fff;fill-opacity:0.43;"/><defs><radialGradient id="_Radial1" cx="0" cy="0" r="1" gradientUnits="userSpaceOnUse" gradientTransform="matrix(-87.8375,77.84,-77.839,-87.8363,120.276,40.6581)"><stop offset="0" style="stop-color:#b2cda1;stop-opacity:1"/><stop offset="1" style="stop-color:#cbeae3;stop-opacity:1"/></radialGradient><linearGradient id="_Linear2" x1="0" y1="0" x2="1" y2="0" gradientUnits="userSpaceOnUse" gradientTransform="matrix(2.74068,-2.74068,4.24928,4.24928,80.3283,82.544)"><stop offset="0" style="stop-color:#dadcdd;stop-opacity:1"/><stop offset="1" style="stop-color:#a5a8af;stop-opacity:1"/></linearGradient><linearGradient id="_Linear3" x1="0" y1="0" x2="1" y2="0" gradientUnits="userSpaceOnUse" gradientTransform="matrix(17.565,-9.86759,38.4855,68.5068,88.9119,94.982)"><stop offset="0" style="stop-color:#938284;stop-opacity:1"/><stop offset="1" style="stop-color:#31373f;stop-opacity:1"/></linearGradient><linearGradient id="_Linear4" x1="0" y1="0" x2="1" y2="0" gradientUnits="userSpaceOnUse" gradientTransform="matrix(54.0226,-4.6466,4.6466,54.0226,35.0383,63.8609)"><stop offset="0" style="stop-color:#938284;stop-opacity:1"/><stop offset="1" style="stop-color:#31373f;stop-opacity:1"/></linearGradient><linearGradient id="_Linear5" x1="0" y1="0" x2="1" y2="0" gradientUnits="userSpaceOnUse" gradientTransform="matrix(3.32168,35.3575,-35.357,3.32164,72.4328,61.4541)"><stop offset="0" style="stop-color:#b2cda1;stop-opacity:1"/><stop offset="1" style="stop-color:#cbeae3;stop-opacity:1"/></linearGradient></defs></svg>