<?xml version="1.0" encoding="UTF-8" standalone="no"?><!DOCTYPE svg PUBLIC "-//W3C//DTD SVG 1.1//EN" "http://www.w3.org/Graphics/SVG/1.1/DTD/svg11.dtd"><svg width="100%" height="100%" viewBox="0 0 144 144" version="1.1" xmlns="http://www.w3.org/2000/svg" xmlns:xlink="http://www.w3.org/1999/xlink" xml:space="preserve" xmlns:serif="http://www.serif.com/" style="fill-rule:evenodd;clip-rule:evenodd;stroke-linecap:round;stroke-miterlimit:1;"><rect x="0.133" y="0.01" width="144" height="144.002" style="fill:none;"/><path d="M86.51,86.37l2.7,2.7" style="fill:none;stroke:#000;stroke-width:4px;"/><path d="M96.856,89.337c-2.041,-2.042 -5.356,-2.042 -7.397,-0c-2.041,2.041 -2.041,5.356 0,7.397l21.454,21.454c2.041,2.041 5.356,2.041 7.397,-0c2.041,-2.042 2.041,-5.356 0,-7.398l-21.454,-21.453Z" style="fill:none;stroke:#000;stroke-width:4px;"/><path d="M35.14,35.018c14.287,-14.287 37.486,-14.287 51.773,-0c14.288,14.287 14.288,37.486 0,51.773c-14.287,14.287 -37.486,14.287 -51.773,0c-14.287,-14.287 -14.287,-37.486 0,-51.773Zm2.829,2.828c12.726,-12.726 33.39,-12.726 46.116,0c12.726,12.726 12.726,33.391 0,46.117c-12.726,12.726 -33.39,12.726 -46.116,-0c-12.727,-12.726 -12.727,-33.391 -0,-46.117l-0,0Z"/><path d="M41.139,41.017c10.977,-10.976 28.799,-10.976 39.775,0c10.976,10.976 10.976,28.799 0,39.775c-10.976,10.976 -28.798,10.976 -39.775,-0c-10.976,-10.976 -10.976,-28.799 0,-39.775Zm2.829,2.829c9.415,-9.416 24.703,-9.415 34.118,-0c9.415,9.415 9.415,24.702 -0,34.117c-9.415,9.416 -24.703,9.416 -34.118,0c-9.415,-9.415 -9.415,-24.702 -0,-34.117l-0,-0Z"/><path d="M58.036,76.991l4.997,-0l0,-4.792l-4.997,-0l0,4.792Zm-7.092,-30.462l1.598,3.812c1.845,-1.517 4.592,-2.706 7.501,-2.706c3.237,-0 5.701,1.804 5.701,4.224c0,1.435 -0.944,2.501 -2.793,4.224c-3.317,3.198 -4.546,5.946 -4.587,10.375l4.423,-0c0,-3.404 1.109,-5.618 2.998,-7.587c2.048,-2.173 4.423,-3.732 4.423,-7.012c0,-4.797 -4.546,-8.401 -9.796,-8.401c-4.303,-0 -7.091,1.515 -9.468,3.071Z" style="fill-rule:nonzero;"/></svg>