<?xml version="1.0" encoding="UTF-8" standalone="no"?>
<!DOCTYPE svg PUBLIC "-//W3C//DTD SVG 1.1//EN" "http://www.w3.org/Graphics/SVG/1.1/DTD/svg11.dtd">
<svg width="100%" height="100%" viewBox="0 0 800 800" version="1.1" xmlns="http://www.w3.org/2000/svg" xmlns:xlink="http://www.w3.org/1999/xlink" xml:space="preserve" xmlns:serif="http://www.serif.com/" style="fill-rule:evenodd;clip-rule:evenodd;stroke-linecap:round;stroke-linejoin:round;stroke-miterlimit:1;">
    <g transform="matrix(1,0,0,1,-235,-1950)">
        <g transform="matrix(2.02015,0,0,2.02017,-51.8034,1393.69)">
            <rect x="142.327" y="275.741" width="396.011" height="396.011" style="fill:none;"/>
            <g transform="matrix(0.495014,0,0,0.495007,-466.361,-109.818)">
                <rect x="1426.05" y="965.333" width="264" height="48" style="fill:none;stroke:black;stroke-width:22.22px;"/>
            </g>
            <g transform="matrix(0.495014,0,0,0.495007,-466.361,-61.0229)">
                <rect x="1426.05" y="965.333" width="264" height="48" style="fill:none;stroke:black;stroke-width:22.22px;"/>
            </g>
            <g transform="matrix(0.495014,0,0,0.495007,-466.361,-12.2274)">
                <rect x="1426.05" y="965.333" width="264" height="48" style="fill:none;stroke:black;stroke-width:22.22px;"/>
            </g>
            <g transform="matrix(0.495014,0,0,0.495007,-466.361,36.568)">
                <rect x="1426.05" y="965.333" width="264" height="48" style="fill:none;stroke:black;stroke-width:22.22px;"/>
            </g>
            <g transform="matrix(0.495014,0,0,0.495007,-467.197,-673.684)">
                <path d="M1363.74,2659.66L1363.74,2041.82L1755.74,2041.82L1755.74,2659.66" style="fill:none;stroke:black;stroke-width:22.22px;"/>
            </g>
            <g transform="matrix(0.495014,0,0,0.495007,-467.197,-673.684)">
                <path d="M1401.17,2041.82L1401.17,1982.79L1559.74,1982.79L1559.74,2041.82" style="fill:none;stroke:black;stroke-width:22.22px;"/>
            </g>
            <g transform="matrix(0.495014,0,0,0.495007,-464.759,-673.684)">
                <path d="M1629.17,2659.66L1629.17,2546.74L1480.45,2546.74L1480.45,2659.66" style="fill:none;stroke:black;stroke-width:22.22px;"/>
            </g>
            <g transform="matrix(0.495014,0,0,0.495007,-462.896,-673.684)">
                <path d="M1262.05,2659.66L1983.05,2659.66" style="fill:none;stroke:black;stroke-width:22.22px;"/>
            </g>
            <g transform="matrix(0.495014,0,0,0.495007,25.6434,-689.886)">
                <path d="M760.128,2179.89L923.3,2179.89L923.3,2692.39" style="fill:none;stroke:black;stroke-width:22.22px;"/>
            </g>
            <g transform="matrix(0.495014,0,0,0.495007,25.6434,-695.826)">
                <path d="M760.128,2259.75L866.3,2259.75L866.3,2296.89L760.128,2296.89" style="fill:none;stroke:black;stroke-width:22.22px;"/>
            </g>
            <g transform="matrix(0.495014,0,0,0.495007,25.6434,-652.531)">
                <path d="M760.128,2259.75L866.3,2259.75L866.3,2296.89L760.128,2296.89" style="fill:none;stroke:black;stroke-width:22.22px;"/>
            </g>
            <g transform="matrix(0.495014,0,0,0.495007,25.6434,-609.235)">
                <path d="M760.128,2259.75L866.3,2259.75L866.3,2296.89L760.128,2296.89" style="fill:none;stroke:black;stroke-width:22.22px;"/>
            </g>
            <g transform="matrix(0.495014,0,0,0.495007,25.6434,-565.94)">
                <path d="M760.128,2259.75L866.3,2259.75L866.3,2296.89L760.128,2296.89" style="fill:none;stroke:black;stroke-width:22.22px;"/>
            </g>
        </g>
    </g>
</svg>
