<?xml version="1.0" encoding="UTF-8" standalone="no"?><!DOCTYPE svg PUBLIC "-//W3C//DTD SVG 1.1//EN" "http://www.w3.org/Graphics/SVG/1.1/DTD/svg11.dtd"><svg width="100%" height="100%" viewBox="0 0 144 144" version="1.1" xmlns="http://www.w3.org/2000/svg" xmlns:xlink="http://www.w3.org/1999/xlink" xml:space="preserve" xmlns:serif="http://www.serif.com/" style="fill-rule:evenodd;clip-rule:evenodd;stroke-linecap:round;stroke-linejoin:round;stroke-miterlimit:1;"><rect x="0.129" y="0.01" width="144" height="144.002" style="fill:none;"/><path d="M58.227,70.209l-11.583,0l-12.611,11.002l0.068,-11.002l-2.91,0c-5.669,0 -10.272,-4.602 -10.272,-10.272l0,-30.816c0,-5.669 4.603,-10.272 10.272,-10.272l44.976,0c5.67,0 10.272,4.603 10.272,10.272l0,30.816c0,0.998 -0.142,1.962 -0.407,2.873l-17.941,0c-4.672,0 -8.619,3.126 -9.864,7.399Z" style="fill:none;"/><clipPath id="_clip1"><path d="M58.227,70.209l-11.583,0l-12.611,11.002l0.068,-11.002l-2.91,0c-5.669,0 -10.272,-4.602 -10.272,-10.272l0,-30.816c0,-5.669 4.603,-10.272 10.272,-10.272l44.976,0c5.67,0 10.272,4.603 10.272,10.272l0,30.816c0,0.998 -0.142,1.962 -0.407,2.873l-17.941,0c-4.672,0 -8.619,3.126 -9.864,7.399Z"/></clipPath><g clip-path="url(#_clip1)"><path d="M53.639,27.797c-6.082,-0 -11.117,5.075 -11.117,11.236l0,10.682c0,6.242 5.035,11.317 11.117,11.317c1.481,-0 2.881,-0.28 4.162,-0.839l4.399,5.399l4.797,-0l-5.916,-7.437c2.277,-2.078 3.756,-5.079 3.756,-8.44l-0,-10.682c-0,-6.161 -5.035,-11.236 -11.198,-11.236Zm-6.722,21.918l-0,-10.682c-0,-4.321 3.041,-7.161 6.802,-7.161c3.842,-0 6.723,2.88 6.723,7.161l-0,10.682c-0,4.401 -2.881,7.202 -6.723,7.202c-3.801,-0 -6.802,-2.881 -6.802,-7.202Z" style="fill-rule:nonzero;"/></g><path d="M58.227,70.209l-11.583,0l-12.611,11.002l0.068,-11.002l-2.91,0c-5.669,0 -10.272,-4.602 -10.272,-10.272l0,-30.816c0,-5.669 4.603,-10.272 10.272,-10.272l44.976,0c5.67,0 10.272,4.603 10.272,10.272l0,30.816c0,0.998 -0.142,1.962 -0.407,2.873l-17.941,0c-4.672,0 -8.619,3.126 -9.864,7.399Z" style="fill:none;stroke:#000;stroke-width:4px;"/><path d="M110.158,114.17l0.068,11.002l-12.612,-11.002l-29.523,0c-5.669,0 -10.272,-4.602 -10.272,-10.272l0,-30.816c0,-5.669 4.603,-10.272 10.272,-10.272l44.976,0c5.67,0 10.272,4.603 10.272,10.272l0,30.816c0,5.67 -4.602,10.272 -10.272,10.272l-2.909,0Z" style="fill:none;"/><clipPath id="_clip2"><path d="M110.158,114.17l0.068,11.002l-12.612,-11.002l-29.523,0c-5.669,0 -10.272,-4.602 -10.272,-10.272l0,-30.816c0,-5.669 4.603,-10.272 10.272,-10.272l44.976,0c5.67,0 10.272,4.603 10.272,10.272l0,30.816c0,5.67 -4.602,10.272 -10.272,10.272l-2.909,0Z"/></clipPath><g clip-path="url(#_clip2)"><path d="M90.579,79.758l4.759,14.24l-9.518,-0l4.759,-14.24Zm-12.717,24.715l4.479,-0l2.24,-6.72l11.997,-0l2.24,6.72l4.519,-0l-10.718,-32.235l-4.039,-0l-10.718,32.235Z" style="fill-rule:nonzero;"/></g><path d="M110.158,114.17l0.068,11.002l-12.612,-11.002l-29.523,0c-5.669,0 -10.272,-4.602 -10.272,-10.272l0,-30.816c0,-5.669 4.603,-10.272 10.272,-10.272l44.976,0c5.67,0 10.272,4.603 10.272,10.272l0,30.816c0,5.67 -4.602,10.272 -10.272,10.272l-2.909,0Z" style="fill:none;stroke:#000;stroke-width:4px;"/></svg>