<?xml version="1.0" encoding="UTF-8" standalone="no"?><!DOCTYPE svg PUBLIC "-//W3C//DTD SVG 1.1//EN" "http://www.w3.org/Graphics/SVG/1.1/DTD/svg11.dtd"><svg width="100%" height="100%" viewBox="0 0 144 144" version="1.1" xmlns="http://www.w3.org/2000/svg" xmlns:xlink="http://www.w3.org/1999/xlink" xml:space="preserve" xmlns:serif="http://www.serif.com/" style="fill-rule:evenodd;clip-rule:evenodd;stroke-linejoin:round;stroke-miterlimit:2;"><rect x="0.129" y="0.151" width="144" height="144.002" style="fill:none;"/><path d="M34.101,70.351l-0.068,11.002l12.611,-11.002l29.523,0c5.67,0 10.272,-4.603 10.272,-10.272l0,-30.816c0,-5.669 -4.602,-10.272 -10.272,-10.272l-44.976,0c-5.669,0 -10.272,4.603 -10.272,10.272l0,30.816c0,5.669 4.603,10.272 10.272,10.272l2.91,0Z" style="fill:url(#_Linear1);"/><clipPath id="_clip2"><path d="M34.101,70.351l-0.068,11.002l12.611,-11.002l29.523,0c5.67,0 10.272,-4.603 10.272,-10.272l0,-30.816c0,-5.669 -4.602,-10.272 -10.272,-10.272l-44.976,0c-5.669,0 -10.272,4.603 -10.272,10.272l0,30.816c0,5.669 4.603,10.272 10.272,10.272l2.91,0Z"/></clipPath><g clip-path="url(#_clip2)"><path d="M53.639,27.639c-6.362,-0 -11.597,5.315 -11.597,11.756l0,10.282c0,6.521 5.235,11.797 11.597,11.797c1.401,-0 2.721,-0.24 3.962,-0.72l4.359,5.4l6.037,-0l-6.277,-7.997c2.198,-2.159 3.597,-5.159 3.597,-8.48l-0,-10.282c-0,-6.441 -5.276,-11.756 -11.678,-11.756Zm-6.002,22.038l-0,-10.282c-0,-4.121 2.721,-6.561 6.082,-6.561c3.442,-0 6.003,2.48 6.003,6.561l-0,10.282c-0,4.201 -2.561,6.602 -6.003,6.602c-3.401,-0 -6.082,-2.441 -6.082,-6.602Z" style="fill:#fff;fill-rule:nonzero;"/></g><path d="M110.158,114.312l0.068,11.001l-12.612,-11.001l-29.523,-0c-5.669,-0 -10.272,-4.603 -10.272,-10.272l0,-30.816c0,-5.669 4.603,-10.272 10.272,-10.272l44.976,-0c5.67,-0 10.272,4.603 10.272,10.272l0,30.816c0,5.669 -4.602,10.272 -10.272,10.272l-2.909,-0Z" style="fill:#fff;"/><clipPath id="_clip3"><path d="M110.158,114.312l0.068,11.001l-12.612,-11.001l-29.523,-0c-5.669,-0 -10.272,-4.603 -10.272,-10.272l0,-30.816c0,-5.669 4.603,-10.272 10.272,-10.272l44.976,-0c5.67,-0 10.272,4.603 10.272,10.272l0,30.816c0,5.669 -4.602,10.272 -10.272,10.272l-2.909,-0Z"/></clipPath><g clip-path="url(#_clip3)"><path d="M90.579,81.799l3.88,11.76l-7.799,0l3.919,-11.76Zm-13.357,23.115l5.679,0l2.199,-6.6l10.918,0l2.2,6.6l5.719,0l-10.878,-32.835l-4.959,0l-10.878,32.835Z" style="fill:url(#_Linear4);fill-rule:nonzero;"/></g><path d="M110.158,114.312l0.068,11.001l-12.612,-11.001l-29.523,-0c-5.669,-0 -10.272,-4.603 -10.272,-10.272l0,-30.816c0,-5.669 4.603,-10.272 10.272,-10.272l44.976,-0c5.67,-0 10.272,4.603 10.272,10.272l0,30.816c0,5.669 -4.602,10.272 -10.272,10.272l-2.909,-0Zm-4.999,-0.053l-4.258,-3.715c-0.911,-0.794 -2.078,-1.232 -3.287,-1.232l-29.523,-0c-2.909,-0 -5.272,-2.362 -5.272,-5.272c0,-0 0,-30.816 0,-30.816c0,-2.91 2.363,-5.272 5.272,-5.272c0,-0 44.976,-0 44.976,-0c2.91,-0 5.272,2.362 5.272,5.272c0,-0 0,30.816 0,30.816c0,2.91 -2.362,5.272 -5.272,5.272c0,-0 -2.909,-0 -2.909,-0c-1.332,-0 -2.608,0.531 -3.547,1.475c-0.919,0.925 -1.439,2.171 -1.452,3.472Z" style="fill:url(#_Linear5);"/><defs><linearGradient id="_Linear1" x1="0" y1="0" x2="1" y2="0" gradientUnits="userSpaceOnUse" gradientTransform="matrix(65.52,-47.0121,44.7458,62.3615,20.9194,66.0033)"><stop offset="0" style="stop-color:#16b39b;stop-opacity:1"/><stop offset="1" style="stop-color:#0095d9;stop-opacity:1"/></linearGradient><linearGradient id="_Linear4" x1="0" y1="0" x2="1" y2="0" gradientUnits="userSpaceOnUse" gradientTransform="matrix(23.6397,0,0,40,78.7595,87.5568)"><stop offset="0" style="stop-color:#f9884f;stop-opacity:1"/><stop offset="1" style="stop-color:#df644e;stop-opacity:1"/></linearGradient><linearGradient id="_Linear5" x1="0" y1="0" x2="1" y2="0" gradientUnits="userSpaceOnUse" gradientTransform="matrix(-65.52,0,0,62.3615,123.339,94.1327)"><stop offset="0" style="stop-color:#df644e;stop-opacity:1"/><stop offset="1" style="stop-color:#f9884f;stop-opacity:1"/></linearGradient></defs></svg>