<?xml version="1.0" encoding="UTF-8" standalone="no"?><!DOCTYPE svg PUBLIC "-//W3C//DTD SVG 1.1//EN" "http://www.w3.org/Graphics/SVG/1.1/DTD/svg11.dtd"><svg width="100%" height="100%" viewBox="0 0 144 144" version="1.1" xmlns="http://www.w3.org/2000/svg" xmlns:xlink="http://www.w3.org/1999/xlink" xml:space="preserve" xmlns:serif="http://www.serif.com/" style="fill-rule:evenodd;clip-rule:evenodd;stroke-linejoin:round;stroke-miterlimit:2;"><rect x="0.136" y="0.151" width="144" height="144.002" style="fill:none;"/><path d="M33.486,70.351l-0.069,11.002l12.612,-11.002l29.523,0c5.669,0 10.272,-4.603 10.272,-10.272l0,-30.816c0,-5.669 -4.603,-10.272 -10.272,-10.272l-44.976,0c-5.669,0 -10.272,4.603 -10.272,10.272l0,30.816c0,5.669 4.603,10.272 10.272,10.272l2.91,0Z" style="fill:url(#_Linear1);"/><clipPath id="_clip2"><path d="M33.486,70.351l-0.069,11.002l12.612,-11.002l29.523,0c5.669,0 10.272,-4.603 10.272,-10.272l0,-30.816c0,-5.669 -4.603,-10.272 -10.272,-10.272l-44.976,0c-5.669,0 -10.272,4.603 -10.272,10.272l0,30.816c0,5.669 4.603,10.272 10.272,10.272l2.91,0Z"/></clipPath><g clip-path="url(#_clip2)"><path d="M53.024,27.639c-6.362,-0 -11.597,5.315 -11.597,11.756l-0,10.282c-0,6.521 5.235,11.797 11.597,11.797c1.401,-0 2.721,-0.24 3.962,-0.72l4.358,5.4l6.037,-0l-6.276,-7.997c2.198,-2.159 3.596,-5.159 3.596,-8.48l0,-10.282c0,-6.441 -5.275,-11.756 -11.677,-11.756Zm-6.002,22.038l-0,-10.282c-0,-4.121 2.721,-6.561 6.082,-6.561c3.441,-0 6.002,2.48 6.002,6.561l0,10.282c0,4.201 -2.561,6.602 -6.002,6.602c-3.401,-0 -6.082,-2.441 -6.082,-6.602Z" style="fill:#fff;fill-rule:nonzero;"/></g><path d="M109.542,114.312l0.069,11.001l-12.612,-11.001l-29.523,-0c-5.669,-0 -10.272,-4.603 -10.272,-10.272l-0,-30.816c-0,-5.669 4.603,-10.272 10.272,-10.272l44.976,-0c5.669,-0 10.272,4.603 10.272,10.272l-0,30.816c-0,5.669 -4.603,10.272 -10.272,10.272l-2.91,-0Z" style="fill:#fff;"/><clipPath id="_clip3"><path d="M109.542,114.312l0.069,11.001l-12.612,-11.001l-29.523,-0c-5.669,-0 -10.272,-4.603 -10.272,-10.272l-0,-30.816c-0,-5.669 4.603,-10.272 10.272,-10.272l44.976,-0c5.669,-0 10.272,4.603 10.272,10.272l-0,30.816c-0,5.669 -4.603,10.272 -10.272,10.272l-2.91,-0Z"/></clipPath><g clip-path="url(#_clip3)"><path d="M89.964,81.799l3.879,11.76l-7.798,0l3.919,-11.76Zm-13.357,23.115l5.679,0l2.199,-6.6l10.918,0l2.2,6.6l5.718,0l-10.877,-32.835l-4.959,0l-10.878,32.835Z" style="fill:url(#_Linear4);fill-rule:nonzero;"/></g><path d="M109.542,114.312l0.069,11.001l-12.612,-11.001l-29.523,-0c-5.669,-0 -10.272,-4.603 -10.272,-10.272l-0,-30.816c-0,-5.669 4.603,-10.272 10.272,-10.272l44.976,-0c5.669,-0 10.272,4.603 10.272,10.272l-0,30.816c-0,5.669 -4.603,10.272 -10.272,10.272l-2.91,-0Zm-4.998,-0.053l-4.258,-3.715c-0.911,-0.794 -2.079,-1.232 -3.287,-1.232l-29.523,-0c-2.91,-0 -5.272,-2.362 -5.272,-5.272l-0,-30.816c-0,-2.91 2.362,-5.272 5.272,-5.272c0,-0 44.976,-0 44.976,-0c2.91,-0 5.272,2.362 5.272,5.272l-0,30.816c-0,2.91 -2.362,5.272 -5.272,5.272c-0,-0 -2.91,-0 -2.91,-0c-1.331,-0 -2.608,0.531 -3.546,1.475c-0.919,0.925 -1.44,2.171 -1.452,3.472Z" style="fill:url(#_Linear5);"/><defs><linearGradient id="_Linear1" x1="0" y1="0" x2="1" y2="0" gradientUnits="userSpaceOnUse" gradientTransform="matrix(-65.52,51.9011,-49.3992,-62.3615,85.824,18.9912)"><stop offset="0" style="stop-color:#c853a8;stop-opacity:1"/><stop offset="1" style="stop-color:#ff7892;stop-opacity:1"/></linearGradient><linearGradient id="_Linear4" x1="0" y1="0" x2="1" y2="0" gradientUnits="userSpaceOnUse" gradientTransform="matrix(23.6397,0,0,40,78.1442,87.5568)"><stop offset="0" style="stop-color:#7793de;stop-opacity:1"/><stop offset="1" style="stop-color:#6458b4;stop-opacity:1"/></linearGradient><linearGradient id="_Linear5" x1="0" y1="0" x2="1" y2="0" gradientUnits="userSpaceOnUse" gradientTransform="matrix(-65.52,0,0,62.3615,122.724,94.1327)"><stop offset="0" style="stop-color:#6458b4;stop-opacity:1"/><stop offset="1" style="stop-color:#7793de;stop-opacity:1"/></linearGradient></defs></svg>