<?xml version="1.0" encoding="UTF-8" standalone="no"?><!DOCTYPE svg PUBLIC "-//W3C//DTD SVG 1.1//EN" "http://www.w3.org/Graphics/SVG/1.1/DTD/svg11.dtd"><svg width="100%" height="100%" viewBox="0 0 144 144" version="1.1" xmlns="http://www.w3.org/2000/svg" xmlns:xlink="http://www.w3.org/1999/xlink" xml:space="preserve" xmlns:serif="http://www.serif.com/" style="fill-rule:evenodd;clip-rule:evenodd;stroke-linecap:round;stroke-linejoin:round;stroke-miterlimit:1;"><rect x="0.133" y="0.01" width="144" height="144.002" style="fill:none;"/><path d="M58.495,84.054c-1.449,0.199 -2.925,0.302 -4.425,0.302c-4.674,-0 -9.116,-0.998 -13.127,-2.792l-14.14,4.892l4.718,-11.319c-5.961,-5.847 -9.661,-13.99 -9.661,-22.99c0,-17.777 14.433,-32.209 32.21,-32.209c17.776,-0 32.209,14.432 32.209,32.209c-0,1.952 -0.174,3.863 -0.508,5.72c-13.804,1.899 -24.831,12.563 -27.276,26.187Z" style="fill:none;"/><clipPath id="_clip1"><path d="M58.495,84.054c-1.449,0.199 -2.925,0.302 -4.425,0.302c-4.674,-0 -9.116,-0.998 -13.127,-2.792l-14.14,4.892l4.718,-11.319c-5.961,-5.847 -9.661,-13.99 -9.661,-22.99c0,-17.777 14.433,-32.209 32.21,-32.209c17.776,-0 32.209,14.432 32.209,32.209c-0,1.952 -0.174,3.863 -0.508,5.72c-13.804,1.899 -24.831,12.563 -27.276,26.187Z"/></clipPath><g clip-path="url(#_clip1)"><path d="M53.81,35.197c-5.626,-0 -10.283,4.694 -10.283,10.393l-0,9.881c-0,5.774 4.657,10.468 10.283,10.468c1.37,0 2.665,-0.259 3.849,-0.776l4.07,4.994l4.437,0l-5.472,-6.879c2.106,-1.922 3.474,-4.698 3.474,-7.807l-0,-9.881c-0,-5.699 -4.658,-10.393 -10.358,-10.393Zm-6.218,20.274l-0,-9.881c-0,-3.996 2.813,-6.624 6.292,-6.624c3.553,0 6.218,2.665 6.218,6.624l0,9.881c0,4.071 -2.665,6.662 -6.218,6.662c-3.516,-0 -6.292,-2.665 -6.292,-6.662Z" style="fill-rule:nonzero;"/></g><path d="M58.495,84.054c-1.449,0.199 -2.925,0.302 -4.425,0.302c-4.674,-0 -9.116,-0.998 -13.127,-2.792l-14.14,4.892l4.718,-11.319c-5.961,-5.847 -9.661,-13.99 -9.661,-22.99c0,-17.777 14.433,-32.209 32.21,-32.209c17.776,-0 32.209,14.432 32.209,32.209c-0,1.952 -0.174,3.863 -0.508,5.72c-13.804,1.899 -24.831,12.563 -27.276,26.187Z" style="fill:none;stroke:#000;stroke-width:4px;"/><path d="M112.745,112.765c5.961,-5.847 9.66,-13.991 9.66,-22.991c0,-17.777 -14.432,-32.209 -32.209,-32.209c-17.776,-0 -32.209,14.432 -32.209,32.209c0,17.777 14.433,32.209 32.209,32.209c4.674,0 9.116,-0.997 13.127,-2.791l14.14,4.892l-4.718,-11.319Z" style="fill:none;"/><clipPath id="_clip2"><path d="M112.745,112.765c5.961,-5.847 9.66,-13.991 9.66,-22.991c0,-17.777 -14.432,-32.209 -32.209,-32.209c-17.776,-0 -32.209,14.432 -32.209,32.209c0,17.777 14.433,32.209 32.209,32.209c4.674,0 9.116,-0.997 13.127,-2.791l14.14,4.892l-4.718,-11.319Z"/></clipPath><g clip-path="url(#_clip2)"><path d="M90.196,80.798l4.402,13.172l-8.804,-0l4.402,-13.172Zm-11.763,22.861l4.143,-0l2.071,-6.216l11.098,-0l2.072,6.216l4.18,-0l-9.914,-29.817l-3.736,-0l-9.914,29.817Z" style="fill-rule:nonzero;"/></g><path d="M112.745,112.765c5.961,-5.847 9.66,-13.991 9.66,-22.991c0,-17.777 -14.432,-32.209 -32.209,-32.209c-17.776,-0 -32.209,14.432 -32.209,32.209c0,17.777 14.433,32.209 32.209,32.209c4.674,0 9.116,-0.997 13.127,-2.791l14.14,4.892l-4.718,-11.319Z" style="fill:none;stroke:#000;stroke-width:4px;"/></svg>