<?xml version="1.0" encoding="UTF-8" standalone="no"?><!DOCTYPE svg PUBLIC "-//W3C//DTD SVG 1.1//EN" "http://www.w3.org/Graphics/SVG/1.1/DTD/svg11.dtd"><svg width="100%" height="100%" viewBox="0 0 144 144" version="1.1" xmlns="http://www.w3.org/2000/svg" xmlns:xlink="http://www.w3.org/1999/xlink" xml:space="preserve" xmlns:serif="http://www.serif.com/" style="fill-rule:evenodd;clip-rule:evenodd;stroke-linejoin:round;stroke-miterlimit:2;"><rect x="0.129" y="0.113" width="144" height="144.002" style="fill:none;"/><path d="M34.101,71.573l-0.068,11.001l12.611,-11.001l29.523,-0c5.67,-0 10.272,-4.603 10.272,-10.272l0,-30.816c0,-5.669 -4.602,-10.272 -10.272,-10.272l-44.976,-0c-5.669,-0 -10.272,4.603 -10.272,10.272l0,30.816c0,5.669 4.603,10.272 10.272,10.272l2.91,-0Z" style="fill:url(#_Linear1);"/><clipPath id="_clip2"><path d="M34.101,71.573l-0.068,11.001l12.611,-11.001l29.523,-0c5.67,-0 10.272,-4.603 10.272,-10.272l0,-30.816c0,-5.669 -4.602,-10.272 -10.272,-10.272l-44.976,-0c-5.669,-0 -10.272,4.603 -10.272,10.272l0,30.816c0,5.669 4.603,10.272 10.272,10.272l2.91,-0Z"/></clipPath><g clip-path="url(#_clip2)"><path d="M53.639,28.86c-6.362,0 -11.597,5.315 -11.597,11.757l0,10.282c0,6.521 5.235,11.796 11.597,11.796c1.401,0 2.721,-0.24 3.962,-0.719l4.359,5.399l6.037,0l-6.277,-7.997c2.198,-2.158 3.597,-5.158 3.597,-8.479l-0,-10.282c-0,-6.442 -5.276,-11.757 -11.678,-11.757Zm-6.002,22.039l-0,-10.282c-0,-4.121 2.721,-6.562 6.082,-6.562c3.442,0 6.003,2.481 6.003,6.562l-0,10.282c-0,4.201 -2.561,6.601 -6.003,6.601c-3.401,0 -6.082,-2.44 -6.082,-6.601Z" style="fill:#fff;fill-rule:nonzero;"/></g><path d="M110.158,115.534l0.068,11.001l-12.612,-11.001l-29.523,-0c-5.669,-0 -10.272,-4.603 -10.272,-10.272l0,-30.816c0,-5.67 4.603,-10.272 10.272,-10.272l44.976,-0c5.67,-0 10.272,4.602 10.272,10.272l0,30.816c0,5.669 -4.602,10.272 -10.272,10.272l-2.909,-0Z" style="fill:url(#_Linear3);"/><clipPath id="_clip4"><path d="M110.158,115.534l0.068,11.001l-12.612,-11.001l-29.523,-0c-5.669,-0 -10.272,-4.603 -10.272,-10.272l0,-30.816c0,-5.67 4.603,-10.272 10.272,-10.272l44.976,-0c5.67,-0 10.272,4.602 10.272,10.272l0,30.816c0,5.669 -4.602,10.272 -10.272,10.272l-2.909,-0Z"/></clipPath><g clip-path="url(#_clip4)"><path d="M90.579,83.021l3.88,11.76l-7.799,-0l3.919,-11.76Zm-13.357,23.115l5.679,-0l2.199,-6.6l10.918,-0l2.2,6.6l5.719,-0l-10.878,-32.835l-4.959,-0l-10.878,32.835Z" style="fill:#fff;fill-rule:nonzero;"/></g><defs><linearGradient id="_Linear1" x1="0" y1="0" x2="1" y2="0" gradientUnits="userSpaceOnUse" gradientTransform="matrix(65.52,-47.0121,44.7458,62.3615,20.9194,67.225)"><stop offset="0" style="stop-color:#0095d9;stop-opacity:1"/><stop offset="1" style="stop-color:#16b39b;stop-opacity:1"/></linearGradient><linearGradient id="_Linear3" x1="0" y1="0" x2="1" y2="0" gradientUnits="userSpaceOnUse" gradientTransform="matrix(65.52,-51.9842,-49.4782,-62.3615,57.8194,119.209)"><stop offset="0" style="stop-color:#df644e;stop-opacity:1"/><stop offset="1" style="stop-color:#f9884f;stop-opacity:1"/></linearGradient></defs></svg>