<?xml version="1.0" encoding="UTF-8" standalone="no"?><!DOCTYPE svg PUBLIC "-//W3C//DTD SVG 1.1//EN" "http://www.w3.org/Graphics/SVG/1.1/DTD/svg11.dtd"><svg width="100%" height="100%" viewBox="0 0 144 144" version="1.1" xmlns="http://www.w3.org/2000/svg" xmlns:xlink="http://www.w3.org/1999/xlink" xml:space="preserve" xmlns:serif="http://www.serif.com/" style="fill-rule:evenodd;clip-rule:evenodd;stroke-linejoin:round;stroke-miterlimit:2;"><rect x="0.144" y="0.132" width="144" height="144.002" style="fill:none;"/><path d="M31.531,75.745c-5.96,-5.848 -9.66,-13.991 -9.66,-22.991c0,-17.777 14.432,-32.209 32.209,-32.209c17.777,-0 32.209,14.432 32.209,32.209c0,17.777 -14.432,32.209 -32.209,32.209c-4.673,0 -9.116,-0.997 -13.126,-2.791l-14.14,4.892l4.717,-11.319Z" style="fill:url(#_Linear1);"/><clipPath id="_clip2"><path d="M31.531,75.745c-5.96,-5.848 -9.66,-13.991 -9.66,-22.991c0,-17.777 14.432,-32.209 32.209,-32.209c17.777,-0 32.209,14.432 32.209,32.209c0,17.777 -14.432,32.209 -32.209,32.209c-4.673,0 -9.116,-0.997 -13.126,-2.791l-14.14,4.892l4.717,-11.319Z"/></clipPath><g clip-path="url(#_clip2)"><path d="M53.818,34.412c-6.362,0 -11.598,5.315 -11.598,11.757l0,10.282c0,6.521 5.236,11.796 11.598,11.796c1.4,0 2.721,-0.24 3.961,-0.719l4.359,5.399l6.037,0l-6.277,-7.997c2.198,-2.158 3.597,-5.158 3.597,-8.479l0,-10.282c0,-6.442 -5.275,-11.757 -11.677,-11.757Zm-6.003,22.039l0,-10.282c0,-4.121 2.721,-6.562 6.083,-6.562c3.441,0 6.002,2.481 6.002,6.562l0,10.282c0,4.201 -2.561,6.601 -6.002,6.601c-3.402,0 -6.083,-2.44 -6.083,-6.601Z" style="fill:#fff;fill-rule:nonzero;"/></g><path d="M112.756,113.372c5.96,-5.847 9.66,-13.99 9.66,-22.99c-0,-17.777 -14.432,-32.21 -32.209,-32.21c-17.777,0 -32.209,14.433 -32.209,32.21c-0,17.776 14.432,32.209 32.209,32.209c4.673,-0 9.116,-0.998 13.126,-2.792l14.14,4.892l-4.717,-11.319Z" style="fill:url(#_Linear3);"/><clipPath id="_clip4"><path d="M112.756,113.372c5.96,-5.847 9.66,-13.99 9.66,-22.99c-0,-17.777 -14.432,-32.21 -32.209,-32.21c-17.777,0 -32.209,14.433 -32.209,32.21c-0,17.776 14.432,32.209 32.209,32.209c4.673,-0 9.116,-0.998 13.126,-2.792l14.14,4.892l-4.717,-11.319Z"/></clipPath><g clip-path="url(#_clip4)"><path d="M90.207,82.813l3.879,11.76l-7.798,-0l3.919,-11.76Zm-13.357,23.115l5.678,-0l2.2,-6.6l10.918,-0l2.199,6.6l5.719,-0l-10.878,-32.835l-4.959,-0l-10.877,32.835Z" style="fill:#fff;fill-rule:nonzero;"/></g><defs><linearGradient id="_Linear1" x1="0" y1="0" x2="1" y2="0" gradientUnits="userSpaceOnUse" gradientTransform="matrix(64.4182,0,0,66.5187,21.8711,53.8043)"><stop offset="0" style="stop-color:#9b8c81;stop-opacity:1"/><stop offset="1" style="stop-color:#614d3e;stop-opacity:1"/></linearGradient><linearGradient id="_Linear3" x1="0" y1="0" x2="1" y2="0" gradientUnits="userSpaceOnUse" gradientTransform="matrix(-64.4182,0,0,66.5187,122.416,91.4317)"><stop offset="0" style="stop-color:#746a65;stop-opacity:1"/><stop offset="1" style="stop-color:#a69f9a;stop-opacity:1"/></linearGradient></defs></svg>