<?xml version="1.0" encoding="UTF-8" standalone="no"?><!DOCTYPE svg PUBLIC "-//W3C//DTD SVG 1.1//EN" "http://www.w3.org/Graphics/SVG/1.1/DTD/svg11.dtd"><svg width="100%" height="100%" viewBox="0 0 144 144" version="1.1" xmlns="http://www.w3.org/2000/svg" xmlns:xlink="http://www.w3.org/1999/xlink" xml:space="preserve" xmlns:serif="http://www.serif.com/" style="fill-rule:evenodd;clip-rule:evenodd;stroke-linejoin:round;stroke-miterlimit:2;"><rect x="0.144" y="0.113" width="144" height="144.002" style="fill:none;"/><path d="M34.115,71.573l-0.068,11.001l12.612,-11.001l29.523,-0c5.669,-0 10.272,-4.603 10.272,-10.272l-0,-30.816c-0,-5.669 -4.603,-10.272 -10.272,-10.272l-44.976,-0c-5.67,-0 -10.272,4.603 -10.272,10.272l-0,30.816c-0,5.669 4.602,10.272 10.272,10.272l2.909,-0Z" style="fill:url(#_Linear1);"/><clipPath id="_clip2"><path d="M34.115,71.573l-0.068,11.001l12.612,-11.001l29.523,-0c5.669,-0 10.272,-4.603 10.272,-10.272l-0,-30.816c-0,-5.669 -4.603,-10.272 -10.272,-10.272l-44.976,-0c-5.67,-0 -10.272,4.603 -10.272,10.272l-0,30.816c-0,5.669 4.602,10.272 10.272,10.272l2.909,-0Z"/></clipPath><g clip-path="url(#_clip2)"><path d="M53.654,28.86c-6.363,0 -11.598,5.315 -11.598,11.757l0,10.282c0,6.521 5.235,11.796 11.598,11.796c1.4,0 2.721,-0.24 3.961,-0.719l4.359,5.399l6.037,0l-6.277,-7.997c2.198,-2.158 3.597,-5.158 3.597,-8.479l-0,-10.282c-0,-6.442 -5.275,-11.757 -11.677,-11.757Zm-6.003,22.039l0,-10.282c0,-4.121 2.721,-6.562 6.083,-6.562c3.441,0 6.002,2.481 6.002,6.562l-0,10.282c-0,4.201 -2.561,6.601 -6.002,6.601c-3.402,0 -6.083,-2.44 -6.083,-6.601Z" style="fill:#fff;fill-rule:nonzero;"/></g><path d="M110.172,115.534l0.068,11.001l-12.612,-11.001l-29.522,-0c-5.67,-0 -10.272,-4.603 -10.272,-10.272l-0,-30.816c-0,-5.67 4.602,-10.272 10.272,-10.272l44.976,-0c5.669,-0 10.272,4.602 10.272,10.272l-0,30.816c-0,5.669 -4.603,10.272 -10.272,10.272l-2.91,-0Z" style="fill:url(#_Linear3);"/><clipPath id="_clip4"><path d="M110.172,115.534l0.068,11.001l-12.612,-11.001l-29.522,-0c-5.67,-0 -10.272,-4.603 -10.272,-10.272l-0,-30.816c-0,-5.67 4.602,-10.272 10.272,-10.272l44.976,-0c5.669,-0 10.272,4.602 10.272,10.272l-0,30.816c-0,5.669 -4.603,10.272 -10.272,10.272l-2.91,-0Z"/></clipPath><g clip-path="url(#_clip4)"><path d="M90.594,83.021l3.879,11.76l-7.799,-0l3.92,-11.76Zm-13.358,23.115l5.679,-0l2.2,-6.6l10.918,-0l2.199,6.6l5.719,-0l-10.878,-32.835l-4.959,-0l-10.878,32.835Z" style="fill:#fff;fill-rule:nonzero;"/></g><defs><linearGradient id="_Linear1" x1="0" y1="0" x2="1" y2="0" gradientUnits="userSpaceOnUse" gradientTransform="matrix(65.52,0,0,62.3615,20.9335,51.3937)"><stop offset="0" style="stop-color:#9b8c81;stop-opacity:1"/><stop offset="1" style="stop-color:#614d3e;stop-opacity:1"/></linearGradient><linearGradient id="_Linear3" x1="0" y1="0" x2="1" y2="0" gradientUnits="userSpaceOnUse" gradientTransform="matrix(-65.52,0,0,62.3615,123.354,95.3544)"><stop offset="0" style="stop-color:#746a65;stop-opacity:1"/><stop offset="1" style="stop-color:#a69f9a;stop-opacity:1"/></linearGradient></defs></svg>