<?xml version="1.0" encoding="UTF-8" standalone="no"?>
<!DOCTYPE svg PUBLIC "-//W3C//DTD SVG 1.1//EN" "http://www.w3.org/Graphics/SVG/1.1/DTD/svg11.dtd">
<svg width="100%" height="100%" viewBox="0 0 800 800" version="1.1" xmlns="http://www.w3.org/2000/svg" xmlns:xlink="http://www.w3.org/1999/xlink" xml:space="preserve" xmlns:serif="http://www.serif.com/" style="fill-rule:evenodd;clip-rule:evenodd;stroke-linecap:round;stroke-linejoin:round;stroke-miterlimit:1;">
    <g transform="matrix(1,0,0,1,-3007,-810)">
        <g transform="matrix(2.02015,0,0,2.02017,2720.26,252.584)">
            <rect x="142.327" y="275.741" width="396.011" height="396.011" style="fill:none;"/>
            <clipPath id="_clip1">
                <rect x="142.327" y="275.741" width="396.011" height="396.011"/>
            </clipPath>
            <g clip-path="url(#_clip1)">
                <rect x="142.327" y="275.741" width="396.011" height="396.011" style="fill:none;"/>
                <g transform="matrix(0.430249,0,0,0.430243,66.8158,-62.7504)">
                    <path d="M386.047,1489.96L306.047,1119.96L518.047,1273.96L635.719,1060.96L753.391,1273.96L965.391,1119.96L885.391,1489.96L386.047,1489.96Z" style="fill:none;stroke:black;stroke-width:25.57px;"/>
                </g>
                <g transform="matrix(1,0,0,1,6.82121e-13,-7.92012)">
                    <g transform="matrix(0.430249,0,0,0.430243,61.4041,-67.9133)">
                        <circle cx="648.297" cy="1000.21" r="44.25" style="fill:none;stroke:black;stroke-width:25.57px;stroke-linejoin:miter;"/>
                    </g>
                    <g transform="matrix(0.430249,0,0,0.430243,-80.4368,-40.808)">
                        <circle cx="648.297" cy="1000.21" r="44.25" style="fill:none;stroke:black;stroke-width:25.57px;stroke-linejoin:miter;"/>
                    </g>
                    <g transform="matrix(0.430249,0,0,0.430243,203.245,-40.808)">
                        <circle cx="648.297" cy="1000.21" r="44.25" style="fill:none;stroke:black;stroke-width:25.57px;stroke-linejoin:miter;"/>
                    </g>
                </g>
                <g transform="matrix(0.495014,0,0,0.495007,-889.161,-119.586)">
                    <path d="M2266.9,1459.34L2700.62,1459.34" style="fill:none;stroke:black;stroke-width:22.22px;"/>
                </g>
            </g>
        </g>
    </g>
</svg>
