<?xml version="1.0" encoding="UTF-8" standalone="no"?>
<!DOCTYPE svg PUBLIC "-//W3C//DTD SVG 1.1//EN" "http://www.w3.org/Graphics/SVG/1.1/DTD/svg11.dtd">
<svg width="100%" height="100%" viewBox="0 0 800 800" version="1.1" xmlns="http://www.w3.org/2000/svg" xmlns:xlink="http://www.w3.org/1999/xlink" xml:space="preserve" xmlns:serif="http://www.serif.com/" style="fill-rule:evenodd;clip-rule:evenodd;stroke-linejoin:round;stroke-miterlimit:2;">
    <g transform="matrix(1,0,0,1,-235,-809)">
        <g transform="matrix(2.02015,0,0,2.02017,-51.8034,252.584)">
            <rect x="142.327" y="275.741" width="396.011" height="396.011" style="fill:none;"/>
            <g>
                <g transform="matrix(0.430249,0,0,0.430243,66.8158,-62.7504)">
                    <path d="M386.047,1489.96L306.047,1119.96L518.047,1273.96L635.719,1060.96L753.391,1273.96L965.391,1119.96L885.391,1489.96L386.047,1489.96Z" style="fill:url(#_Linear1);"/>
                </g>
                <g transform="matrix(0.495014,0,0,0.495007,25.6434,-125.031)">
                    <path d="M635.719,1047.97L737.995,1233.1L922.258,1099.25L852.725,1420.84L635.719,1420.84L635.719,1047.97Z" style="fill:url(#_Linear2);"/>
                </g>
                <g>
                    <g transform="matrix(0.430249,0,0,0.430243,61.4041,-67.9133)">
                        <circle cx="648.297" cy="1000.21" r="44.25" style="fill:url(#_Linear3);"/>
                    </g>
                    <g transform="matrix(0.430249,0,0,0.430243,-80.4368,-40.808)">
                        <circle cx="648.297" cy="1000.21" r="44.25" style="fill:url(#_Linear4);"/>
                    </g>
                    <g transform="matrix(0.430249,0,0,0.430243,203.245,-40.808)">
                        <circle cx="648.297" cy="1000.21" r="44.25" style="fill:url(#_Linear5);"/>
                    </g>
                </g>
                <g transform="matrix(0.430249,0,0,0.430243,66.4595,-62.7504)">
                    <rect x="387.047" y="1518.55" width="499" height="31.41" style="fill:url(#_Linear6);"/>
                </g>
                <g transform="matrix(0.215124,0,0,0.430243,257.07,-62.7504)">
                    <rect x="387.047" y="1518.55" width="499" height="31.41" style="fill:url(#_Linear7);"/>
                </g>
            </g>
        </g>
    </g>
    <defs>
        <linearGradient id="_Linear1" x1="0" y1="0" x2="1" y2="0" gradientUnits="userSpaceOnUse" gradientTransform="matrix(659.344,0,0,429,306.047,1275.46)"><stop offset="0" style="stop-color:rgb(241,231,132);stop-opacity:1"/><stop offset="1" style="stop-color:rgb(214,149,0);stop-opacity:1"/></linearGradient>
        <linearGradient id="_Linear2" x1="0" y1="0" x2="1" y2="0" gradientUnits="userSpaceOnUse" gradientTransform="matrix(286.539,0,0,372.872,635.719,1234.4)"><stop offset="0" style="stop-color:rgb(241,231,132);stop-opacity:1"/><stop offset="1" style="stop-color:rgb(214,149,0);stop-opacity:1"/></linearGradient>
        <linearGradient id="_Linear3" x1="0" y1="0" x2="1" y2="0" gradientUnits="userSpaceOnUse" gradientTransform="matrix(88.5,88.5,-88.5,88.5,604.047,955.963)"><stop offset="0" style="stop-color:rgb(241,231,132);stop-opacity:1"/><stop offset="1" style="stop-color:rgb(214,149,0);stop-opacity:1"/></linearGradient>
        <linearGradient id="_Linear4" x1="0" y1="0" x2="1" y2="0" gradientUnits="userSpaceOnUse" gradientTransform="matrix(88.5,88.5,-88.5,88.5,604.047,955.963)"><stop offset="0" style="stop-color:rgb(241,231,132);stop-opacity:1"/><stop offset="1" style="stop-color:rgb(214,149,0);stop-opacity:1"/></linearGradient>
        <linearGradient id="_Linear5" x1="0" y1="0" x2="1" y2="0" gradientUnits="userSpaceOnUse" gradientTransform="matrix(88.5,88.5,-88.5,88.5,604.047,955.963)"><stop offset="0" style="stop-color:rgb(241,231,132);stop-opacity:1"/><stop offset="1" style="stop-color:rgb(214,149,0);stop-opacity:1"/></linearGradient>
        <linearGradient id="_Linear6" x1="0" y1="0" x2="1" y2="0" gradientUnits="userSpaceOnUse" gradientTransform="matrix(499,0,0,31.41,387.047,1534.26)"><stop offset="0" style="stop-color:rgb(155,140,129);stop-opacity:1"/><stop offset="1" style="stop-color:rgb(97,77,62);stop-opacity:1"/></linearGradient>
        <linearGradient id="_Linear7" x1="0" y1="0" x2="1" y2="0" gradientUnits="userSpaceOnUse" gradientTransform="matrix(499,0,0,31.41,387.047,1534.26)"><stop offset="0" style="stop-color:rgb(155,140,129);stop-opacity:1"/><stop offset="1" style="stop-color:rgb(97,77,62);stop-opacity:1"/></linearGradient>
    </defs>
</svg>
