<?xml version="1.0" encoding="UTF-8" standalone="no"?>
<!DOCTYPE svg PUBLIC "-//W3C//DTD SVG 1.1//EN" "http://www.w3.org/Graphics/SVG/1.1/DTD/svg11.dtd">
<svg width="100%" height="100%" viewBox="0 0 800 800" version="1.1" xmlns="http://www.w3.org/2000/svg" xmlns:xlink="http://www.w3.org/1999/xlink" xml:space="preserve" xmlns:serif="http://www.serif.com/" style="fill-rule:evenodd;clip-rule:evenodd;stroke-linecap:round;stroke-linejoin:round;stroke-miterlimit:1;">
    <g transform="matrix(1,0,0,1,-1159,-3091)">
        <g transform="matrix(2.02015,0,0,2.02017,868.758,2534.8)">
            <rect x="142.327" y="275.741" width="396.011" height="396.011" style="fill:none;"/>
            <g>
                <g transform="matrix(0.495014,0,0,0.495007,20.8331,-127.895)">
                    <rect x="376.538" y="946.522" width="537.796" height="537.796" style="fill:none;stroke:black;stroke-width:22.22px;"/>
                </g>
                <g transform="matrix(1,0,0,1,0.341708,-17.7807)">
                    <g transform="matrix(0.495014,0,0,0.495007,27.3552,-93.4813)">
                        <path d="M466.07,1051.74L797.07,1051.74" style="fill:none;stroke:black;stroke-width:22.22px;stroke-linejoin:miter;"/>
                    </g>
                    <g transform="matrix(0.495014,0,0,0.495007,27.3552,-29.0909)">
                        <path d="M466.07,1051.74L797.07,1051.74" style="fill:none;stroke:black;stroke-width:22.22px;stroke-linejoin:miter;"/>
                    </g>
                    <g transform="matrix(0.495014,0,0,0.495007,27.3552,35.2996)">
                        <path d="M466.07,1051.74L797.07,1051.74" style="fill:none;stroke:black;stroke-width:22.22px;stroke-linejoin:miter;"/>
                    </g>
                </g>
            </g>
        </g>
    </g>
</svg>
