<?xml version="1.0" encoding="UTF-8" standalone="no"?>
<!DOCTYPE svg PUBLIC "-//W3C//DTD SVG 1.1//EN" "http://www.w3.org/Graphics/SVG/1.1/DTD/svg11.dtd">
<svg width="100%" height="100%" viewBox="0 0 800 800" version="1.1" xmlns="http://www.w3.org/2000/svg" xmlns:xlink="http://www.w3.org/1999/xlink" xml:space="preserve" xmlns:serif="http://www.serif.com/" style="fill-rule:evenodd;clip-rule:evenodd;stroke-linecap:round;stroke-linejoin:round;stroke-miterlimit:1;">
    <g transform="matrix(1,0,0,1,-235,-3091)">
        <g transform="matrix(2.02015,0,0,2.02017,-55.2615,2534.8)">
            <rect x="142.327" y="275.741" width="396.011" height="396.011" style="fill:none;"/>
            <g>
                <g transform="matrix(0.495014,0,0,0.495007,20.8331,-127.895)">
                    <rect x="376.538" y="946.522" width="537.796" height="537.796" style="fill:none;stroke:black;stroke-width:22.22px;"/>
                </g>
                <g transform="matrix(0.495007,0,0,0.495007,92.2544,-119.586)">
                    <path d="M363.354,1076.81L375.335,1076.81L395.019,1044.06L395.019,1108.7L411.87,1108.7L411.87,1008.38L394.896,1008.38L369.345,1055.42L343.67,1008.38L326.697,1008.38L326.697,1108.7L343.548,1108.7L343.548,1044.06L363.354,1076.81Z" style="fill-rule:nonzero;stroke:black;stroke-width:1.39px;stroke-linecap:butt;stroke-miterlimit:2;"/>
                    <path d="M496.326,1024.25L496.326,1008.38L432.908,1008.38L432.908,1108.7L496.326,1108.7L496.326,1092.71L449.759,1092.71L449.759,1065.56L489.604,1065.56L489.604,1049.69L449.759,1049.69L449.759,1024.25L496.326,1024.25Z" style="fill-rule:nonzero;stroke:black;stroke-width:1.39px;stroke-linecap:butt;stroke-miterlimit:2;"/>
                    <path d="M566.497,1008.38L566.497,1073.51L530.671,1008.38L514.186,1008.38L514.186,1108.7L531.037,1108.7L531.037,1043.81L566.985,1108.7L583.47,1108.7L583.47,1008.38L566.497,1008.38Z" style="fill-rule:nonzero;stroke:black;stroke-width:1.39px;stroke-linecap:butt;stroke-miterlimit:2;"/>
                    <path d="M658.53,1008.38L658.53,1074.25C658.53,1085.74 650.46,1094.42 639.945,1094.42C629.552,1094.42 621.359,1085.62 621.359,1074.25L621.359,1008.38L604.508,1008.38L604.508,1074.25C604.508,1094.17 620.505,1110.29 639.945,1110.29C659.385,1110.29 675.626,1094.17 675.626,1074.25L675.626,1008.38L658.53,1008.38Z" style="fill-rule:nonzero;stroke:black;stroke-width:1.39px;stroke-linecap:butt;stroke-miterlimit:2;"/>
                </g>
                <g transform="matrix(1,0,0,1,0.341708,-5.44509)">
                    <g transform="matrix(0.495014,0,0,0.495007,27.3552,-41.4265)">
                        <path d="M466.07,1051.74L797.07,1051.74" style="fill:none;stroke:black;stroke-width:22.22px;stroke-linejoin:miter;"/>
                    </g>
                    <g transform="matrix(0.495014,0,0,0.495007,27.3552,1.88661)">
                        <path d="M466.07,1051.74L797.07,1051.74" style="fill:none;stroke:black;stroke-width:22.22px;stroke-linejoin:miter;"/>
                    </g>
                    <g transform="matrix(0.495014,0,0,0.495007,27.3552,45.1997)">
                        <path d="M466.07,1051.74L797.07,1051.74" style="fill:none;stroke:black;stroke-width:22.22px;stroke-linejoin:miter;"/>
                    </g>
                </g>
            </g>
        </g>
    </g>
</svg>
