<?xml version="1.0" encoding="UTF-8" standalone="no"?>
<!DOCTYPE svg PUBLIC "-//W3C//DTD SVG 1.1//EN" "http://www.w3.org/Graphics/SVG/1.1/DTD/svg11.dtd">
<svg width="100%" height="100%" viewBox="0 0 800 800" version="1.1" xmlns="http://www.w3.org/2000/svg" xmlns:xlink="http://www.w3.org/1999/xlink" xml:space="preserve" xmlns:serif="http://www.serif.com/" style="fill-rule:evenodd;clip-rule:evenodd;stroke-linejoin:round;stroke-miterlimit:2;">
    <g transform="matrix(1,0,0,1,-2083,-809)">
        <g transform="matrix(2.02015,0,0,2.02017,1792.78,252.584)">
            <rect x="142.327" y="275.741" width="396.011" height="396.011" style="fill:none;"/>
            <g>
                <g transform="matrix(0.495014,0,0,0.495007,20.8331,-127.895)">
                    <rect x="376.538" y="946.522" width="537.796" height="537.796" style="fill:url(#_Linear1);"/>
                </g>
                <g transform="matrix(0.495007,0,0,0.495007,92.2544,-119.586)">
                    <path d="M363.354,1076.81L375.335,1076.81L395.019,1044.06L395.019,1108.7L411.87,1108.7L411.87,1008.38L394.896,1008.38L369.345,1055.42L343.67,1008.38L326.697,1008.38L326.697,1108.7L343.548,1108.7L343.548,1044.06L363.354,1076.81Z" style="fill:white;fill-rule:nonzero;stroke:white;stroke-width:2.78px;"/>
                    <path d="M496.326,1024.25L496.326,1008.38L432.908,1008.38L432.908,1108.7L496.326,1108.7L496.326,1092.71L449.759,1092.71L449.759,1065.56L489.604,1065.56L489.604,1049.69L449.759,1049.69L449.759,1024.25L496.326,1024.25Z" style="fill:white;fill-rule:nonzero;stroke:white;stroke-width:2.78px;"/>
                    <path d="M566.497,1008.38L566.497,1073.51L530.671,1008.38L514.186,1008.38L514.186,1108.7L531.037,1108.7L531.037,1043.81L566.985,1108.7L583.47,1108.7L583.47,1008.38L566.497,1008.38Z" style="fill:white;fill-rule:nonzero;stroke:white;stroke-width:2.78px;"/>
                    <path d="M658.53,1008.38L658.53,1074.25C658.53,1085.74 650.46,1094.42 639.945,1094.42C629.552,1094.42 621.359,1085.62 621.359,1074.25L621.359,1008.38L604.508,1008.38L604.508,1074.25C604.508,1094.17 620.505,1110.29 639.945,1110.29C659.385,1110.29 675.626,1094.17 675.626,1074.25L675.626,1008.38L658.53,1008.38Z" style="fill:white;fill-rule:nonzero;stroke:white;stroke-width:2.78px;"/>
                </g>
                <g transform="matrix(1,0,0,1,0.341708,-5.44509)">
                    <g transform="matrix(0.495014,0,0,0.495007,27.3552,-41.4265)">
                        <path d="M466.07,1065.63L797.07,1065.63C804.736,1065.63 810.959,1059.4 810.959,1051.74C810.959,1044.07 804.736,1037.85 797.07,1037.85L466.07,1037.85C458.405,1037.85 452.181,1044.07 452.181,1051.74C452.181,1059.4 458.405,1065.63 466.07,1065.63Z" style="fill:white;"/>
                    </g>
                    <g transform="matrix(0.495014,0,0,0.495007,27.3552,1.88661)">
                        <path d="M466.07,1065.63L797.07,1065.63C804.736,1065.63 810.959,1059.4 810.959,1051.74C810.959,1044.07 804.736,1037.85 797.07,1037.85L466.07,1037.85C458.405,1037.85 452.181,1044.07 452.181,1051.74C452.181,1059.4 458.405,1065.63 466.07,1065.63Z" style="fill:white;"/>
                    </g>
                    <g transform="matrix(0.495014,0,0,0.495007,27.3552,45.1997)">
                        <path d="M466.07,1065.63L797.07,1065.63C804.736,1065.63 810.959,1059.4 810.959,1051.74C810.959,1044.07 804.736,1037.85 797.07,1037.85L466.07,1037.85C458.405,1037.85 452.181,1044.07 452.181,1051.74C452.181,1059.4 458.405,1065.63 466.07,1065.63Z" style="fill:white;"/>
                    </g>
                </g>
            </g>
        </g>
    </g>
    <defs>
        <linearGradient id="_Linear1" x1="0" y1="0" x2="1" y2="0" gradientUnits="userSpaceOnUse" gradientTransform="matrix(4.89865e-14,800.011,-800.011,4.89865e-14,645.436,815.415)"><stop offset="0" style="stop-color:rgb(150,225,170);stop-opacity:1"/><stop offset="0.38" style="stop-color:rgb(94,196,188);stop-opacity:1"/><stop offset="1" style="stop-color:rgb(0,149,217);stop-opacity:1"/></linearGradient>
    </defs>
</svg>
