<?xml version="1.0" encoding="UTF-8" standalone="no"?>
<!DOCTYPE svg PUBLIC "-//W3C//DTD SVG 1.1//EN" "http://www.w3.org/Graphics/SVG/1.1/DTD/svg11.dtd">
<svg width="100%" height="100%" viewBox="0 0 800 800" version="1.1" xmlns="http://www.w3.org/2000/svg" xmlns:xlink="http://www.w3.org/1999/xlink" xml:space="preserve" xmlns:serif="http://www.serif.com/" style="fill-rule:evenodd;clip-rule:evenodd;stroke-linejoin:round;stroke-miterlimit:2;">
    <g transform="matrix(1,0,0,1,-2083,-3091)">
        <g transform="matrix(2.02015,0,0,2.02017,1796.24,2534.8)">
            <rect x="142.327" y="275.741" width="396.011" height="396.011" style="fill:none;"/>
            <g transform="matrix(0.495014,0,0,0.495007,-1820.4,-130.418)">
                <path d="M4361.54,911.598C4532.04,911.598 4670.46,1050.02 4670.46,1220.52C4670.46,1391.01 4532.04,1529.44 4361.54,1529.44C4191.04,1529.44 4052.62,1391.01 4052.62,1220.52C4052.62,1050.02 4191.04,911.598 4361.54,911.598ZM4361.54,933.82C4519.77,933.82 4648.24,1062.28 4648.24,1220.52C4648.24,1378.75 4519.77,1507.21 4361.54,1507.21C4203.31,1507.21 4074.84,1378.75 4074.84,1220.52C4074.84,1062.28 4203.31,933.82 4361.54,933.82Z"/>
            </g>
            <g transform="matrix(0.495014,0,0,0.495007,23.9316,-125.031)">
                <path d="M425.719,1436.12L425.719,1431.17C425.719,1351.48 490.417,1286.78 570.108,1286.78L701.329,1286.78C781.02,1286.78 845.719,1351.48 845.719,1431.17L845.719,1436.12C790.578,1487.27 716.773,1518.55 635.719,1518.55C554.664,1518.55 480.859,1487.27 425.719,1436.12ZM823.391,1426.3C773.076,1469.92 707.457,1496.33 635.719,1496.33C563.98,1496.33 498.361,1469.92 448.046,1426.3C450.598,1361.12 504.314,1309 570.108,1309C570.108,1309 701.329,1309 701.329,1309C767.124,1309 820.84,1361.12 823.391,1426.3Z"/>
            </g>
            <g transform="matrix(0.209098,0,0,0.209095,-573.369,182.797)">
                <path d="M4361.54,911.598C4532.04,911.598 4670.46,1050.02 4670.46,1220.52C4670.46,1391.01 4532.04,1529.44 4361.54,1529.44C4191.04,1529.44 4052.62,1391.01 4052.62,1220.52C4052.62,1050.02 4191.04,911.598 4361.54,911.598ZM4361.54,964.206C4503,964.206 4617.85,1079.06 4617.85,1220.52C4617.85,1361.98 4503,1476.83 4361.54,1476.83C4220.08,1476.83 4105.23,1361.98 4105.23,1220.52C4105.23,1079.06 4220.08,964.206 4361.54,964.206Z"/>
            </g>
        </g>
    </g>
</svg>
