<?xml version="1.0" encoding="UTF-8" standalone="no"?>
<!DOCTYPE svg PUBLIC "-//W3C//DTD SVG 1.1//EN" "http://www.w3.org/Graphics/SVG/1.1/DTD/svg11.dtd">
<svg width="100%" height="100%" viewBox="0 0 800 800" version="1.1" xmlns="http://www.w3.org/2000/svg" xmlns:xlink="http://www.w3.org/1999/xlink" xml:space="preserve" xmlns:serif="http://www.serif.com/" style="fill-rule:evenodd;clip-rule:evenodd;stroke-linejoin:round;stroke-miterlimit:2;">
    <g transform="matrix(1,0,0,1,-3007,-3091)">
        <g transform="matrix(2.02015,0,0,2.02017,2720.26,2534.8)">
            <rect x="142.327" y="275.741" width="396.011" height="396.011" style="fill:none;"/>
            <g transform="matrix(0.288189,0,0,0.288185,-916.617,64.2695)">
                <path d="M4361.54,911.598C4532.04,911.598 4670.46,1050.02 4670.46,1220.52C4670.46,1391.01 4532.04,1529.44 4361.54,1529.44C4191.04,1529.44 4052.62,1391.01 4052.62,1220.52C4052.62,1050.02 4191.04,911.598 4361.54,911.598ZM4361.54,949.768C4510.97,949.768 4632.29,1071.09 4632.29,1220.52C4632.29,1369.95 4510.97,1491.27 4361.54,1491.27C4212.11,1491.27 4090.79,1369.95 4090.79,1220.52C4090.79,1071.09 4212.11,949.768 4361.54,949.768Z"/>
            </g>
            <g transform="matrix(0.495014,0,0,0.495007,21.8012,-696.03)">
                <path d="M354.048,2659.65L932.913,2659.65L932.913,2651.36C932.913,2541.52 843.742,2452.35 733.908,2452.35L553.052,2452.35C443.219,2452.35 354.048,2541.52 354.048,2651.36L354.048,2659.65ZM910.145,2637.43L376.816,2637.43C383.933,2546.35 460.177,2474.57 553.052,2474.57C553.052,2474.57 733.908,2474.57 733.908,2474.57C826.784,2474.57 903.028,2546.35 910.145,2637.43Z"/>
            </g>
        </g>
    </g>
</svg>
