<?xml version="1.0" encoding="UTF-8" standalone="no"?>
<!DOCTYPE svg PUBLIC "-//W3C//DTD SVG 1.1//EN" "http://www.w3.org/Graphics/SVG/1.1/DTD/svg11.dtd">
<svg width="100%" height="100%" viewBox="0 0 800 800" version="1.1" xmlns="http://www.w3.org/2000/svg" xmlns:xlink="http://www.w3.org/1999/xlink" xml:space="preserve" xmlns:serif="http://www.serif.com/" style="fill-rule:evenodd;clip-rule:evenodd;stroke-linejoin:round;stroke-miterlimit:2;">
    <g transform="matrix(1,0,0,1,-3007,-809)">
        <g transform="matrix(2.02015,0,0,2.02017,2720.26,252.584)">
            <rect x="142.327" y="275.741" width="396.011" height="396.011" style="fill:none;"/>
            <g transform="matrix(0.495014,0,0,0.495007,-1818.69,-130.896)">
                <circle cx="4361.54" cy="1220.52" r="308.919" style="fill:url(#_Linear1);"/>
            </g>
            <g transform="matrix(0.495014,0,0,0.495007,25.6434,-125.031)">
                <path d="M425.719,1436.12L425.719,1431.17C425.719,1351.48 490.417,1286.78 570.108,1286.78L701.329,1286.78C781.02,1286.78 845.719,1351.48 845.719,1431.17L845.719,1436.12C790.578,1487.27 716.773,1518.55 635.719,1518.55C554.664,1518.55 480.859,1487.27 425.719,1436.12Z" style="fill:white;"/>
            </g>
            <g transform="matrix(0.209098,0,0,0.209095,-571.657,182.797)">
                <circle cx="4361.54" cy="1220.52" r="308.919" style="fill:white;"/>
            </g>
        </g>
    </g>
    <defs>
        <linearGradient id="_Linear1" x1="0" y1="0" x2="1" y2="0" gradientUnits="userSpaceOnUse" gradientTransform="matrix(800,-800.011,800.011,800,3961.54,1621.49)"><stop offset="0" style="stop-color:rgb(248,206,196);stop-opacity:1"/><stop offset="1" style="stop-color:rgb(200,83,168);stop-opacity:1"/></linearGradient>
    </defs>
</svg>
