<?xml version="1.0" encoding="UTF-8" standalone="no"?>
<!DOCTYPE svg PUBLIC "-//W3C//DTD SVG 1.1//EN" "http://www.w3.org/Graphics/SVG/1.1/DTD/svg11.dtd">
<svg width="100%" height="100%" viewBox="0 0 800 800" version="1.1" xmlns="http://www.w3.org/2000/svg" xmlns:xlink="http://www.w3.org/1999/xlink" xml:space="preserve" xmlns:serif="http://www.serif.com/" style="fill-rule:evenodd;clip-rule:evenodd;stroke-linecap:round;stroke-linejoin:round;stroke-miterlimit:1;">
    <g transform="matrix(1,0,0,1,-235,-809)">
        <g transform="matrix(2.02015,0,0,2.02017,-51.8034,252.584)">
            <rect x="142.327" y="275.741" width="396.011" height="396.011" style="fill:none;"/>
            <g transform="matrix(1,0,0,1,-25.7488,-5.51775)">
                <g transform="matrix(0.495014,0,0,0.495007,28.9087,-97.0298)">
                    <path d="M687.28,980.293L406.378,980.293L406.378,1438.97L865.059,1438.97L865.059,1159.34" style="fill:none;stroke:url(#_Linear1);stroke-width:38.89px;"/>
                </g>
                <g transform="matrix(0.145129,0.145127,-0.145129,0.145127,682.6,-20.5642)">
                    <path d="M519.133,2352.46L519.133,2855.01L744,2855.01L744,2352.46L1108.68,2352.46L631.567,1875.35L154.455,2352.46L519.133,2352.46Z" style="fill:url(#_Linear2);"/>
                </g>
            </g>
        </g>
    </g>
    <defs>
        <linearGradient id="_Linear1" x1="0" y1="0" x2="1" y2="0" gradientUnits="userSpaceOnUse" gradientTransform="matrix(-629.34,629.346,-629.346,-629.34,865.059,980.293)"><stop offset="0" style="stop-color:rgb(211,213,214);stop-opacity:1"/><stop offset="1" style="stop-color:rgb(136,142,147);stop-opacity:1"/></linearGradient>
        <linearGradient id="_Linear2" x1="0" y1="0" x2="1" y2="0" gradientUnits="userSpaceOnUse" gradientTransform="matrix(15.1964,1798.95,-1798.95,15.1964,616.37,1950.73)"><stop offset="0" style="stop-color:rgb(122,192,232);stop-opacity:1"/><stop offset="1" style="stop-color:rgb(89,86,172);stop-opacity:1"/></linearGradient>
    </defs>
</svg>
