<?xml version="1.0" encoding="UTF-8" standalone="no"?>
<!DOCTYPE svg PUBLIC "-//W3C//DTD SVG 1.1//EN" "http://www.w3.org/Graphics/SVG/1.1/DTD/svg11.dtd">
<svg width="100%" height="100%" viewBox="0 0 800 800" version="1.1" xmlns="http://www.w3.org/2000/svg" xmlns:xlink="http://www.w3.org/1999/xlink" xml:space="preserve" xmlns:serif="http://www.serif.com/" style="fill-rule:evenodd;clip-rule:evenodd;stroke-linecap:round;stroke-linejoin:round;stroke-miterlimit:1;">
    <g transform="matrix(1,0,0,1,-235,-1950)">
        <g transform="matrix(2.02015,0,0,2.02017,-55.2615,1393.69)">
            <rect x="142.327" y="275.741" width="396.011" height="396.011" style="fill:none;"/>
            <g transform="matrix(0.585115,0,0,0.585107,-22.3389,-207.471)">
                <g transform="matrix(0.837909,0,0,0.837909,373.581,124.836)">
                    <path d="M386.575,1235.86L386.196,1296.98L456.26,1235.86L585.564,1235.86C617.06,1235.86 642.631,1210.29 642.631,1178.8L642.631,1007.6C642.631,976.101 617.06,950.53 585.564,950.53L370.41,950.53C338.914,950.53 313.343,976.101 313.343,1007.6L313.343,1178.8C313.343,1210.29 338.914,1235.86 370.41,1235.86L386.575,1235.86Z" style="fill:none;stroke:black;stroke-width:22.44px;"/>
                </g>
                <g transform="matrix(0.845999,0,0,0.846011,436.717,73.4887)">
                    <g transform="matrix(238.889,0,0,238.889,328.434,1229.04)">
                        <path d="M0.226,0.052L0.34,0.052L0.34,-0.057L0.226,-0.057L0.226,0.052ZM0.052,-0.686L0.088,-0.601C0.133,-0.638 0.2,-0.667 0.272,-0.667C0.352,-0.667 0.416,-0.621 0.416,-0.559C0.416,-0.522 0.391,-0.495 0.346,-0.452C0.266,-0.374 0.235,-0.309 0.234,-0.201L0.334,-0.201C0.333,-0.284 0.36,-0.339 0.406,-0.387C0.457,-0.44 0.516,-0.48 0.516,-0.559C0.516,-0.674 0.406,-0.76 0.28,-0.76C0.177,-0.76 0.11,-0.724 0.052,-0.686Z" style="fill-rule:nonzero;"/>
                    </g>
                </g>
            </g>
            <g transform="matrix(1.01401,0,0,1.01401,-26.2102,-13.2969)">
                <g transform="matrix(0.193823,0,0,0.193821,-550.238,246.409)">
                    <path d="M4361.54,911.598C4532.04,911.598 4670.46,1050.02 4670.46,1220.52C4670.46,1391.01 4532.04,1529.44 4361.54,1529.44C4191.04,1529.44 4052.62,1391.01 4052.62,1220.52C4052.62,1050.02 4191.04,911.598 4361.54,911.598ZM4361.54,967.568C4501.15,967.568 4614.49,1080.91 4614.49,1220.52C4614.49,1360.12 4501.15,1473.47 4361.54,1473.47C4221.93,1473.47 4108.59,1360.12 4108.59,1220.52C4108.59,1080.91 4221.93,967.568 4361.54,967.568Z"/>
                </g>
                <g transform="matrix(0.332924,0,0,0.33292,80.9005,-264.935)">
                    <path d="M354.048,2659.65L932.913,2659.65L932.913,2651.36C932.913,2541.52 843.742,2452.35 733.908,2452.35L553.052,2452.35C443.219,2452.35 354.048,2541.52 354.048,2651.36L354.048,2659.65ZM898.554,2627.06L388.407,2627.06C400.165,2546.72 469.451,2484.94 553.052,2484.94C553.052,2484.94 733.908,2484.94 733.908,2484.94C817.51,2484.94 886.796,2546.72 898.554,2627.06Z"/>
                </g>
            </g>
        </g>
    </g>
</svg>
