<?xml version="1.0" encoding="UTF-8" standalone="no"?>
<!DOCTYPE svg PUBLIC "-//W3C//DTD SVG 1.1//EN" "http://www.w3.org/Graphics/SVG/1.1/DTD/svg11.dtd">
<svg width="100%" height="100%" viewBox="0 0 800 800" version="1.1" xmlns="http://www.w3.org/2000/svg" xmlns:xlink="http://www.w3.org/1999/xlink" xml:space="preserve" xmlns:serif="http://www.serif.com/" style="fill-rule:evenodd;clip-rule:evenodd;stroke-linecap:round;stroke-linejoin:round;stroke-miterlimit:1;">
    <g transform="matrix(1,0,0,1,-3007,-809)">
        <g transform="matrix(2.02015,0,0,2.02017,2720.26,252.584)">
            <rect x="142.327" y="275.741" width="396.011" height="396.011" style="fill:none;"/>
            <g transform="matrix(1,0,0,1,0.721761,-14.8744)">
                <g transform="matrix(1,0,0,1,-2.63439,1.98952e-13)">
                    <g transform="matrix(0.495014,0,0,0.495007,25.6434,-125.031)">
                        <path d="M375.416,1278.35L379.749,1371.68" style="fill:none;stroke:black;stroke-width:22.22px;"/>
                    </g>
                    <g transform="matrix(-0.495014,0,0,0.495007,656.867,-125.031)">
                        <path d="M375.416,1278.35L379.749,1371.68" style="fill:none;stroke:black;stroke-width:22.22px;"/>
                    </g>
                </g>
                <g transform="matrix(1,0,0,1,-2.06665,-1.42109e-14)">
                    <g transform="matrix(0.495014,0,0,0.495007,25.9982,-125.031)">
                        <path d="M326.082,1438.35L358.082,1041.02L635.719,1041.02" style="fill:none;stroke:black;stroke-width:22.22px;"/>
                    </g>
                    <g transform="matrix(-0.495014,0,0,0.495007,655.377,-125.031)">
                        <path d="M326.082,1438.35L358.082,1041.02L635.719,1041.02" style="fill:none;stroke:black;stroke-width:22.22px;"/>
                    </g>
                </g>
                <g transform="matrix(0.495014,0,0,0.495007,25.4016,-125.031)">
                    <path d="M347.416,1278.35L918.082,1278.35" style="fill:none;stroke:black;stroke-width:22.22px;"/>
                </g>
                <g transform="matrix(0.495014,0,0,0.495007,17.0691,-125.031)">
                    <g transform="matrix(1,0,0,1,-25.5457,182.667)">
                        <path d="M546.901,858.349L461.416,1095.68" style="fill:none;stroke:black;stroke-width:22.22px;"/>
                    </g>
                    <g transform="matrix(1,0,0,1,59.939,182.667)">
                        <path d="M546.901,858.349L461.416,1095.68" style="fill:none;stroke:black;stroke-width:22.22px;"/>
                    </g>
                    <g transform="matrix(1,0,0,1,145.424,182.667)">
                        <path d="M546.901,858.349L461.416,1095.68" style="fill:none;stroke:black;stroke-width:22.22px;"/>
                    </g>
                    <g transform="matrix(1,0,0,1,230.909,182.667)">
                        <path d="M546.901,858.349L461.416,1095.68" style="fill:none;stroke:black;stroke-width:22.22px;"/>
                    </g>
                    <g transform="matrix(1,0,0,1,316.393,182.667)">
                        <path d="M546.901,858.349L461.416,1095.68" style="fill:none;stroke:black;stroke-width:22.22px;"/>
                    </g>
                    <g transform="matrix(1,0,0,1,467.878,0)">
                        <path d="M462.567,1093.68L395.416,1278.35" style="fill:none;stroke:black;stroke-width:22.22px;"/>
                    </g>
                    <g transform="matrix(1,0,0,1,-45.0305,0)">
                        <path d="M480.901,1041.02L400.749,1260.35" style="fill:none;stroke:black;stroke-width:22.22px;"/>
                    </g>
                </g>
            </g>
        </g>
    </g>
</svg>
