<?xml version="1.0" encoding="UTF-8" standalone="no"?><!DOCTYPE svg PUBLIC "-//W3C//DTD SVG 1.1//EN" "http://www.w3.org/Graphics/SVG/1.1/DTD/svg11.dtd"><svg width="100%" height="100%" viewBox="0 0 144 144" version="1.1" xmlns="http://www.w3.org/2000/svg" xmlns:xlink="http://www.w3.org/1999/xlink" xml:space="preserve" xmlns:serif="http://www.serif.com/" style="fill-rule:evenodd;clip-rule:evenodd;stroke-linejoin:round;stroke-miterlimit:2;"><rect x="0.14" y="0.151" width="144" height="144.002" style="fill:none;"/><path d="M65.35,103.482l-0.082,13.203l15.135,-13.203l31.829,0c6.803,0 12.327,-5.523 12.327,-12.327l-0,-45.429c-0,-6.803 -5.524,-12.327 -12.327,-12.327l-80.184,0c-6.803,0 -12.327,5.524 -12.327,12.327l0,45.429c0,6.804 5.524,12.327 12.327,12.327l33.302,0Z" style="fill:url(#_Linear1);"/><clipPath id="_clip2"><path d="M65.35,103.482l-0.082,13.203l15.135,-13.203l31.829,0c6.803,0 12.327,-5.523 12.327,-12.327l-0,-45.429c-0,-6.803 -5.524,-12.327 -12.327,-12.327l-80.184,0c-6.803,0 -12.327,5.524 -12.327,12.327l0,45.429c0,6.804 5.524,12.327 12.327,12.327l33.302,0Z"/></clipPath><g clip-path="url(#_clip2)"><path d="M55.838,56.648l-0,-5.195l-20.795,0l0,32.835l5.555,0l-0,-14.12l13.32,0l-0,-5.195l-13.32,0l-0,-8.325l15.24,0Z" style="fill:#fff;fill-rule:nonzero;"/><path d="M69.48,61.173l3.879,11.76l-7.798,0l3.919,-11.76Zm-13.357,23.115l5.679,0l2.199,-6.6l10.918,0l2.2,6.6l5.718,0l-10.877,-32.835l-4.959,0l-10.878,32.835Z" style="fill:#fff;fill-rule:nonzero;"/><path d="M97.56,50.973c-6.362,0 -11.598,5.315 -11.598,11.757l0,10.282c0,6.521 5.236,11.796 11.598,11.796c1.4,0 2.721,-0.24 3.961,-0.719l4.359,5.399l6.037,0l-6.277,-7.997c2.198,-2.158 3.597,-5.159 3.597,-8.479l-0,-10.282c-0,-6.442 -5.275,-11.757 -11.677,-11.757Zm-6.003,22.039l0,-10.282c0,-4.121 2.721,-6.562 6.083,-6.562c3.441,0 6.002,2.481 6.002,6.562l0,10.282c0,4.201 -2.561,6.601 -6.002,6.601c-3.402,0 -6.083,-2.44 -6.083,-6.601Z" style="fill:#fff;fill-rule:nonzero;"/></g><defs><linearGradient id="_Linear1" x1="0" y1="0" x2="1" y2="0" gradientUnits="userSpaceOnUse" gradientTransform="matrix(78.6278,-56.4173,53.6976,74.8375,53.1311,98.2647)"><stop offset="0" style="stop-color:#0095d9;stop-opacity:1"/><stop offset="1" style="stop-color:#16b39b;stop-opacity:1"/></linearGradient></defs></svg>