<?xml version="1.0" encoding="UTF-8" standalone="no"?><!DOCTYPE svg PUBLIC "-//W3C//DTD SVG 1.1//EN" "http://www.w3.org/Graphics/SVG/1.1/DTD/svg11.dtd"><svg width="100%" height="100%" viewBox="0 0 144 144" version="1.1" xmlns="http://www.w3.org/2000/svg" xmlns:xlink="http://www.w3.org/1999/xlink" xml:space="preserve" xmlns:serif="http://www.serif.com/" style="fill-rule:evenodd;clip-rule:evenodd;stroke-linecap:round;stroke-linejoin:round;stroke-miterlimit:1;"><rect x="0.136" y="0.01" width="144" height="144.002" style="fill:none;"/><path d="M65.346,100.451l-0.082,13.203l15.135,-13.203l31.829,0c6.804,0 12.327,-5.524 12.327,-12.327l0,-45.429c0,-6.804 -5.523,-12.327 -12.327,-12.327l-80.183,-0c-6.804,-0 -12.327,5.523 -12.327,12.327l-0,45.429c-0,6.803 5.523,12.327 12.327,12.327l33.301,0Z" style="fill:none;"/><clipPath id="_clip1"><path d="M65.346,100.451l-0.082,13.203l15.135,-13.203l31.829,0c6.804,0 12.327,-5.524 12.327,-12.327l0,-45.429c0,-6.804 -5.523,-12.327 -12.327,-12.327l-80.183,-0c-6.804,-0 -12.327,5.523 -12.327,12.327l-0,45.429c-0,6.803 5.523,12.327 12.327,12.327l33.301,0Z"/></clipPath><g clip-path="url(#_clip1)"><path d="M57.114,52.557l0,-3.715l-19.955,-0l0,31.995l3.995,-0l0,-14.44l14,-0l0,-3.715l-14,-0l0,-10.125l15.96,-0Z" style="fill-rule:nonzero;"/><path d="M69.196,55.602l5.039,15.08l-10.077,-0l5.038,-15.08Zm-12.517,25.235l4.079,-0l2.28,-6.76l12.317,-0l2.28,6.76l4.079,-0l-10.638,-31.995l-3.759,-0l-10.638,31.995Z" style="fill-rule:nonzero;"/><path d="M96.076,48.362c-6.042,-0 -10.997,4.995 -10.997,11.076l-0,10.802c-0,6.162 4.955,11.117 10.997,11.117c1.481,-0 2.881,-0.28 4.161,-0.839l4.44,5.399l4.396,-0l-5.795,-7.277c2.317,-2.038 3.835,-5.039 3.835,-8.4l0,-10.802c0,-6.081 -4.995,-11.076 -11.037,-11.076Zm-7.002,21.878l-0,-10.802c-0,-4.401 3.121,-7.361 7.042,-7.361c3.961,-0 6.963,3 6.963,7.361l-0,10.802c-0,4.441 -3.002,7.402 -6.963,7.402c-3.921,-0 -7.042,-3.001 -7.042,-7.402Z" style="fill-rule:nonzero;"/></g><path d="M65.346,100.451l-0.082,13.203l15.135,-13.203l31.829,0c6.804,0 12.327,-5.524 12.327,-12.327l0,-45.429c0,-6.804 -5.523,-12.327 -12.327,-12.327l-80.183,-0c-6.804,-0 -12.327,5.523 -12.327,12.327l-0,45.429c-0,6.803 5.523,12.327 12.327,12.327l33.301,0Z" style="fill:none;stroke:#000;stroke-width:4px;"/></svg>