<?xml version="1.0" encoding="UTF-8" standalone="no"?><!DOCTYPE svg PUBLIC "-//W3C//DTD SVG 1.1//EN" "http://www.w3.org/Graphics/SVG/1.1/DTD/svg11.dtd"><svg width="100%" height="100%" viewBox="0 0 144 144" version="1.1" xmlns="http://www.w3.org/2000/svg" xmlns:xlink="http://www.w3.org/1999/xlink" xml:space="preserve" xmlns:serif="http://www.serif.com/" style="fill-rule:evenodd;clip-rule:evenodd;stroke-linejoin:round;stroke-miterlimit:2;"><rect x="0.136" y="0.171" width="144" height="144.002" style="fill:none;"/><path d="M65.346,100.612l-0.082,13.202l15.135,-13.202l31.829,-0c6.804,-0 12.327,-5.524 12.327,-12.327l0,-45.429c0,-6.804 -5.523,-12.327 -12.327,-12.327l-80.183,-0c-6.804,-0 -12.327,5.523 -12.327,12.327l-0,45.429c-0,6.803 5.523,12.327 12.327,12.327l33.301,-0Z" style="fill:url(#_Linear1);"/><clipPath id="_clip2"><path d="M65.346,100.612l-0.082,13.202l15.135,-13.202l31.829,-0c6.804,-0 12.327,-5.524 12.327,-12.327l0,-45.429c0,-6.804 -5.523,-12.327 -12.327,-12.327l-80.183,-0c-6.804,-0 -12.327,5.523 -12.327,12.327l-0,45.429c-0,6.803 5.523,12.327 12.327,12.327l33.301,-0Z"/></clipPath><g clip-path="url(#_clip2)"><path d="M55.834,53.778l0,-5.195l-20.795,-0l0,32.835l5.555,-0l0,-14.12l13.32,-0l0,-5.195l-13.32,-0l0,-8.325l15.24,-0Z" style="fill:#fff;fill-rule:nonzero;"/><path d="M69.477,58.303l3.879,11.76l-7.799,-0l3.92,-11.76Zm-13.358,23.115l5.679,-0l2.2,-6.6l10.917,-0l2.2,6.6l5.719,-0l-10.878,-32.835l-4.959,-0l-10.878,32.835Z" style="fill:#fff;fill-rule:nonzero;"/><path d="M97.556,48.103c-6.362,-0 -11.597,5.315 -11.597,11.756l-0,10.282c-0,6.522 5.235,11.797 11.597,11.797c1.401,-0 2.721,-0.24 3.962,-0.72l4.358,5.4l6.037,-0l-6.276,-7.997c2.198,-2.158 3.596,-5.159 3.596,-8.48l0,-10.282c0,-6.441 -5.275,-11.756 -11.677,-11.756Zm-6.002,22.038l-0,-10.282c-0,-4.121 2.721,-6.561 6.082,-6.561c3.441,-0 6.003,2.48 6.003,6.561l-0,10.282c-0,4.201 -2.562,6.602 -6.003,6.602c-3.401,-0 -6.082,-2.441 -6.082,-6.602Z" style="fill:#fff;fill-rule:nonzero;"/></g><defs><linearGradient id="_Linear1" x1="0" y1="0" x2="1" y2="0" gradientUnits="userSpaceOnUse" gradientTransform="matrix(78.6278,-56.4173,53.6976,74.8375,53.1275,95.3942)"><stop offset="0" style="stop-color:#7561a6;stop-opacity:1"/><stop offset="1" style="stop-color:#4a338e;stop-opacity:1"/></linearGradient></defs></svg>