<?xml version="1.0" encoding="UTF-8" standalone="no"?><!DOCTYPE svg PUBLIC "-//W3C//DTD SVG 1.1//EN" "http://www.w3.org/Graphics/SVG/1.1/DTD/svg11.dtd"><svg width="100%" height="100%" viewBox="0 0 144 144" version="1.1" xmlns="http://www.w3.org/2000/svg" xmlns:xlink="http://www.w3.org/1999/xlink" xml:space="preserve" xmlns:serif="http://www.serif.com/" style="fill-rule:evenodd;clip-rule:evenodd;stroke-linejoin:round;stroke-miterlimit:2;"><rect x="0.144" y="0.151" width="144" height="144.002" style="fill:none;"/><path d="M72.144,15.869l39.953,79.906l-79.907,0l39.954,-79.906Z" style="fill:url(#_Linear1);"/><path d="M75.138,14.371c-0.567,-1.134 -1.726,-1.851 -2.994,-1.851c-1.269,0 -2.428,0.717 -2.995,1.851l-39.954,79.907c-0.519,1.038 -0.463,2.271 0.147,3.258c0.61,0.987 1.688,1.588 2.848,1.588l79.907,-0c1.16,-0 2.238,-0.601 2.848,-1.588c0.61,-0.987 0.666,-2.22 0.147,-3.258l-39.954,-79.907Zm-2.994,1.498l39.953,79.906l-79.907,0l39.954,-79.906Z" style="fill:#49401c;"/><path d="M68.544,84.485l7.2,-0l-0,-7.2l-7.2,-0l-0,7.2Zm0.051,-13.64l7.046,0l0,-28.314l-7.046,-0l-0,28.314Z" style="fill:#49401c;fill-rule:nonzero;"/><path d="M29.939,111.337l-3.48,13.582l-3.48,-13.582l-2.975,0l-3.504,13.558l-3.455,-13.558l-3.432,0l5.399,19.701l2.976,0l3.504,-13.078l3.455,13.078l3,0l5.399,-19.701l-3.407,0Z" style="fill:#49401c;fill-rule:nonzero;"/><path d="M41.1,117.169l2.327,7.056l-4.679,0l2.352,-7.056Zm-8.015,13.869l3.407,0l1.32,-3.96l6.551,0l1.32,3.96l3.431,0l-6.527,-19.701l-2.975,0l-6.527,19.701Z" style="fill:#49401c;fill-rule:nonzero;"/><path d="M61.884,131.038l3.91,0l-6.022,-7.968c2.88,-0.815 4.822,-2.997 4.822,-5.686c0,-3.409 -3.093,-6.047 -6.839,-6.047l-6.334,0l0,19.701l3.309,0l0,-7.656l1.633,0l5.521,7.656Zm-7.154,-10.773l0,-5.811l3.025,0c1.945,0 3.506,1.273 3.506,2.93c0,1.68 -1.537,2.881 -3.914,2.881l-2.617,0Z" style="fill:#49401c;fill-rule:nonzero;"/><path d="M78.637,111.337l0,12.79l-7.035,-12.79l-3.237,0l0,19.701l3.309,0l0,-12.742l7.059,12.742l3.237,0l0,-19.701l-3.333,0Z" style="fill:#49401c;fill-rule:nonzero;"/><rect x="86.101" y="111.337" width="3.309" height="19.701" style="fill:#49401c;fill-rule:nonzero;"/><path d="M103.813,111.337l0,12.79l-7.035,-12.79l-3.237,0l0,19.701l3.309,0l0,-12.742l7.059,12.742l3.237,0l0,-19.701l-3.333,0Z" style="fill:#49401c;fill-rule:nonzero;"/><path d="M118.236,122.806l3.625,0l0,2.425c0,1.825 -1.585,3.026 -3.649,3.026c-2.017,0 -3.626,-1.489 -3.626,-3.986l0,-5.615c0,-2.665 1.897,-4.49 4.058,-4.49c1.608,0 3.121,0.865 4.32,2.137l1.607,-2.569c-1.583,-1.702 -3.406,-2.685 -5.903,-2.685c-4.322,0 -7.391,3.069 -7.391,7.607l0,5.615c0,3.89 3.117,7.079 6.935,7.079c3.817,0 7.006,-2.877 7.006,-6.119l0,-5.302l-6.982,0l-0,2.877Z" style="fill:#49401c;fill-rule:nonzero;"/><path d="M129.349,131.038l3.501,0l0,-3.381l-3.501,0l0,3.381Zm0.096,-6.405l3.309,0l0,-13.296l-3.309,0l0,13.296Z" style="fill:#49401c;fill-rule:nonzero;"/><defs><linearGradient id="_Linear1" x1="0" y1="0" x2="1" y2="0" gradientUnits="userSpaceOnUse" gradientTransform="matrix(-1.19307e-13,79.9068,-79.9068,-1.19307e-13,72.1435,15.8685)"><stop offset="0" style="stop-color:#f9da44;stop-opacity:1"/><stop offset="0.47" style="stop-color:#fad23a;stop-opacity:1"/><stop offset="0.63" style="stop-color:#fcbf24;stop-opacity:1"/><stop offset="0.78" style="stop-color:#feab0c;stop-opacity:1"/><stop offset="1" style="stop-color:#ff7c00;stop-opacity:1"/></linearGradient></defs></svg>