<?xml version="1.0" encoding="UTF-8" standalone="no"?><!DOCTYPE svg PUBLIC "-//W3C//DTD SVG 1.1//EN" "http://www.w3.org/Graphics/SVG/1.1/DTD/svg11.dtd"><svg width="100%" height="100%" viewBox="0 0 144 144" version="1.1" xmlns="http://www.w3.org/2000/svg" xmlns:xlink="http://www.w3.org/1999/xlink" xml:space="preserve" xmlns:serif="http://www.serif.com/" style="fill-rule:evenodd;clip-rule:evenodd;stroke-linejoin:round;stroke-miterlimit:2;"><rect x="0.14" y="0.113" width="144" height="144.002" style="fill:none;"/><path d="M72.14,15.83l39.953,79.907l-79.906,0l39.953,-79.907Z" style="fill:url(#_Linear1);"/><path d="M75.135,14.333c-0.567,-1.135 -1.727,-1.851 -2.995,-1.851c-1.268,-0 -2.428,0.716 -2.995,1.851l-39.953,79.907c-0.519,1.038 -0.464,2.27 0.146,3.257c0.61,0.988 1.688,1.588 2.849,1.588l79.906,0c1.161,0 2.239,-0.6 2.849,-1.588c0.61,-0.987 0.665,-2.219 0.146,-3.257l-39.953,-79.907Zm-2.995,1.497l39.953,79.907l-79.906,0l39.953,-79.907Z" style="fill:#49401c;"/><path d="M68.46,84.447l7.2,-0l-0,-7.2l-7.2,-0l-0,7.2Zm0.051,-13.64l7.046,-0l0,-28.315l-7.046,0l-0,28.315Z" style="fill:#49401c;fill-rule:nonzero;"/><path d="M22.366,128.195c-2.16,-0 -4.056,-1.849 -4.056,-4.489l0,-5.089c0,-2.665 1.896,-4.489 4.056,-4.489c1.608,-0 3.12,0.864 4.32,2.136l1.608,-2.568c-1.584,-1.702 -3.408,-2.685 -5.904,-2.685c-4.32,-0 -7.389,3.069 -7.389,7.606l0,5.089c0,4.489 3.069,7.606 7.389,7.606c2.424,-0 4.32,-0.983 5.904,-2.71l-1.608,-2.568c-1.176,1.273 -2.688,2.161 -4.32,2.161Z" style="fill:#49401c;fill-rule:nonzero;"/><path d="M38.064,117.131l2.327,7.056l-4.679,-0l2.352,-7.056Zm-8.015,13.869l3.407,-0l1.32,-3.96l6.551,-0l1.32,3.96l3.431,-0l-6.527,-19.701l-2.975,-0l-6.527,19.701Z" style="fill:#49401c;fill-rule:nonzero;"/><path d="M58.705,111.299l0,12.936c0,2.256 -1.585,3.96 -3.649,3.96c-2.041,-0 -3.65,-1.728 -3.65,-3.96l0,-12.936l-3.309,-0l0,12.936c0,3.912 3.141,7.077 6.959,7.077c3.817,-0 7.006,-3.165 7.006,-7.077l0,-12.936l-3.357,-0Z" style="fill:#49401c;fill-rule:nonzero;"/><path d="M78.766,111.299l-14.061,-0l0,3.117l5.4,-0l0,16.584l3.309,-0l0,-16.584l5.352,-0l0,-3.117Z" style="fill:#49401c;fill-rule:nonzero;"/><rect x="81.385" y="111.299" width="3.309" height="19.701" style="fill:#49401c;fill-rule:nonzero;"/><path d="M95.784,111.011c-3.818,-0 -6.959,3.189 -6.959,7.054l0,6.169c0,3.913 3.141,7.078 6.959,7.078c3.817,-0 7.006,-3.165 7.006,-7.078l0,-6.169c0,-3.865 -3.165,-7.054 -7.006,-7.054Zm-3.602,13.223l0,-6.169c0,-2.473 1.633,-3.937 3.65,-3.937c2.064,-0 3.601,1.488 3.601,3.937l0,6.169c0,2.52 -1.537,3.961 -3.601,3.961c-2.041,-0 -3.65,-1.465 -3.65,-3.961Z" style="fill:#49401c;fill-rule:nonzero;"/><path d="M117.193,111.299l0,12.79l-7.035,-12.79l-3.237,-0l0,19.701l3.309,-0l0,-12.742l7.059,12.742l3.237,-0l0,-19.701l-3.333,-0Z" style="fill:#49401c;fill-rule:nonzero;"/><path d="M125.137,131l3.501,-0l0,-3.381l-3.501,-0l0,3.381Zm0.096,-6.405l3.309,-0l0,-13.296l-3.309,-0l0,13.296Z" style="fill:#49401c;fill-rule:nonzero;"/><defs><linearGradient id="_Linear1" x1="0" y1="0" x2="1" y2="0" gradientUnits="userSpaceOnUse" gradientTransform="matrix(57.7668,-49.86,49.86,57.7668,31.2866,95.5636)"><stop offset="0" style="stop-color:#eca400;stop-opacity:1"/><stop offset="1" style="stop-color:#f9da44;stop-opacity:1"/></linearGradient></defs></svg>