<?xml version="1.0" encoding="UTF-8" standalone="no"?><!DOCTYPE svg PUBLIC "-//W3C//DTD SVG 1.1//EN" "http://www.w3.org/Graphics/SVG/1.1/DTD/svg11.dtd"><svg width="100%" height="100%" viewBox="0 0 144 144" version="1.1" xmlns="http://www.w3.org/2000/svg" xmlns:xlink="http://www.w3.org/1999/xlink" xml:space="preserve" xmlns:serif="http://www.serif.com/" style="fill-rule:evenodd;clip-rule:evenodd;stroke-linejoin:round;stroke-miterlimit:2;"><rect x="0.129" y="0.132" width="144" height="144.002" style="fill:none;"/><path d="M75.124,30.682c-0.567,-1.134 -1.726,-1.851 -2.995,-1.851c-1.268,0 -2.427,0.717 -2.995,1.851l-39.953,79.907c-0.519,1.038 -0.463,2.271 0.147,3.258c0.61,0.987 1.687,1.588 2.848,1.588l79.907,-0c1.16,-0 2.238,-0.601 2.848,-1.588c0.61,-0.987 0.666,-2.22 0.147,-3.258l-39.954,-79.907Z" style="fill:url(#_Linear1);"/><path d="M68.529,100.796l7.2,0l0,-7.2l-7.2,0l0,7.2Zm0.051,-13.64l7.047,0l0,-28.314l-7.047,-0l0,28.314Z" style="fill:#fff;fill-rule:nonzero;stroke:#000;stroke-width:0.18px;"/><defs><linearGradient id="_Linear1" x1="0" y1="0" x2="1" y2="0" gradientUnits="userSpaceOnUse" gradientTransform="matrix(-49.9943,61.6064,-61.6063,-49.9943,92.1983,41.8602)"><stop offset="0" style="stop-color:#e48c48;stop-opacity:1"/><stop offset="1" style="stop-color:#d54115;stop-opacity:1"/></linearGradient></defs></svg>