<?xml version="1.0" encoding="UTF-8" standalone="no"?><!DOCTYPE svg PUBLIC "-//W3C//DTD SVG 1.1//EN" "http://www.w3.org/Graphics/SVG/1.1/DTD/svg11.dtd"><svg width="100%" height="100%" viewBox="0 0 144 144" version="1.1" xmlns="http://www.w3.org/2000/svg" xmlns:xlink="http://www.w3.org/1999/xlink" xml:space="preserve" xmlns:serif="http://www.serif.com/" style="fill-rule:evenodd;clip-rule:evenodd;stroke-linejoin:round;stroke-miterlimit:2;"><rect x="0.133" y="0.151" width="144" height="144.002" style="fill:none;"/><path d="M72.133,15.869l39.953,79.906l-79.906,0l39.953,-79.906Z" style="fill:url(#_Linear1);"/><path d="M75.128,14.371c-0.567,-1.134 -1.727,-1.851 -2.995,-1.851c-1.268,0 -2.428,0.717 -2.995,1.851l-39.953,79.907c-0.519,1.038 -0.464,2.271 0.146,3.258c0.61,0.987 1.688,1.588 2.849,1.588l79.906,-0c1.161,-0 2.239,-0.601 2.849,-1.588c0.61,-0.987 0.665,-2.22 0.146,-3.258l-39.953,-79.907Zm-2.995,1.498l39.953,79.906l-79.906,0l39.953,-79.906Z" style="fill:#49401c;"/><path d="M68.533,84.485l7.2,-0l-0,-7.2l-7.2,-0l-0,7.2Zm0.051,-13.64l7.047,0l-0,-28.314l-7.047,-0l0,28.314Z" style="fill:#49401c;fill-rule:nonzero;"/><path d="M49.382,129.815l2.544,2.015c1.488,-2.422 2.832,-6.023 3.552,-8.448l-2.544,-1.15c-0.864,2.735 -2.088,5.521 -3.552,7.583Zm-0.144,-12.216c1.416,0.816 2.88,1.753 4.248,2.786l1.584,-2.426c-1.104,-0.889 -2.544,-1.92 -4.2,-2.783l-1.632,2.423Zm1.152,-5.854c1.56,0.816 3.024,1.752 4.296,2.664l1.512,-2.424c-1.224,-0.96 -2.832,-1.968 -4.248,-2.664l-1.56,2.424Zm5.136,19.365l15.093,0l0,-2.757l-6.192,0l0,-4.611l5.304,0l0,-2.829l-5.304,0l0,-4.011l5.736,0l0,-2.805l-5.304,0l1.296,-1.92c-1.536,-1.128 -3.526,-2.256 -5.301,-2.928l-1.464,2.304c1.896,0.888 3.215,1.632 4.654,2.544l-8.062,0l0,2.805l5.496,0l0,4.011l-5.064,0l0,2.829l5.064,0l0,4.611l-5.952,0l0,2.757Z" style="fill:#49401c;fill-rule:nonzero;"/><path d="M94.595,116.95l0,-2.205l-5.781,0c0.384,-0.433 0.744,-0.913 1.056,-1.37l-1.753,-0.433l5.662,0l0,-2.157l-8.4,0l0,-1.2l-2.877,0l0,1.2l-8.04,0l0,2.157l5.254,0l-1.896,0.481c0.264,0.336 0.623,0.841 0.864,1.322l-5.014,0l0,2.205l20.925,0Zm-21.117,12.602l2.208,1.582c1.151,-1.462 2.086,-2.998 2.805,-4.68l-2.349,-1.005c-0.648,1.438 -1.632,2.879 -2.664,4.103Zm2.184,-4.418l7.895,0l-1.175,1.152c0.936,0.576 2.038,1.44 3.021,2.352l1.779,-1.848c-0.721,-0.624 -1.465,-1.176 -2.209,-1.656l7.606,0l0,-7.341l-16.917,0l0,7.341Zm2.781,-1.965l0,-0.891l11.379,0l0,0.891l-11.379,0Zm0,-2.616l0,-0.843l11.379,0l0,0.843l-11.379,0Zm0.387,7.703c0,2.399 0.624,3.166 3.19,3.166l5.81,0c2.014,0 2.541,-0.815 2.541,-2.493l0,-1.009l-2.661,-0.769l0,1.946l-5.186,0c-0.697,0 -0.793,-0.216 -0.793,-0.793l0,-2.687l-2.901,0l0,2.639Zm1.391,-13.511l1.534,-0.409c-0.263,-0.48 -0.647,-1.009 -0.983,-1.394l6.146,0c-0.312,0.625 -0.648,1.202 -1.153,1.803l-5.544,0Zm9.072,11.829c1.246,1.346 2.278,3.098 2.998,4.465l2.424,-1.319c-0.816,-1.608 -2.28,-3.433 -3.144,-4.463l-2.278,1.317Z" style="fill:#49401c;fill-rule:nonzero;"/><defs><linearGradient id="_Linear1" x1="0" y1="0" x2="1" y2="0" gradientUnits="userSpaceOnUse" gradientTransform="matrix(-1.19307e-13,79.9068,-79.9068,-1.19307e-13,72.1329,15.8685)"><stop offset="0" style="stop-color:#f9da44;stop-opacity:1"/><stop offset="0.47" style="stop-color:#fad23a;stop-opacity:1"/><stop offset="0.63" style="stop-color:#fcbf24;stop-opacity:1"/><stop offset="0.78" style="stop-color:#feab0c;stop-opacity:1"/><stop offset="1" style="stop-color:#ff7c00;stop-opacity:1"/></linearGradient></defs></svg>