<?xml version="1.0" encoding="UTF-8" standalone="no"?><!DOCTYPE svg PUBLIC "-//W3C//DTD SVG 1.1//EN" "http://www.w3.org/Graphics/SVG/1.1/DTD/svg11.dtd"><svg width="100%" height="100%" viewBox="0 0 144 144" version="1.1" xmlns="http://www.w3.org/2000/svg" xmlns:xlink="http://www.w3.org/1999/xlink" xml:space="preserve" xmlns:serif="http://www.serif.com/" style="fill-rule:evenodd;clip-rule:evenodd;stroke-linejoin:round;stroke-miterlimit:2;"><rect x="0.136" y="0.171" width="144" height="144.002" style="fill:none;"/><path d="M74.509,30.721c-0.567,-1.135 -1.727,-1.851 -2.995,-1.851c-1.268,-0 -2.428,0.716 -2.995,1.851l-39.953,79.906c-0.519,1.038 -0.464,2.271 0.146,3.258c0.61,0.987 1.688,1.588 2.849,1.588l79.906,0c1.161,0 2.239,-0.601 2.849,-1.588c0.61,-0.987 0.665,-2.22 0.146,-3.258l-39.953,-79.906Z" style="fill:url(#_Linear1);"/><path d="M74.509,30.721c-0.567,-1.135 -1.727,-1.851 -2.995,-1.851c-1.268,-0 -2.428,0.716 -2.995,1.851l-39.953,79.906c-0.519,1.038 -0.464,2.271 0.146,3.258c0.61,0.987 1.688,1.588 2.849,1.588l79.906,0c1.161,0 2.239,-0.601 2.849,-1.588c0.61,-0.987 0.665,-2.22 0.146,-3.258l-39.953,-79.906Zm-2.952,1.475l39.954,79.907c0.007,0.015 0.006,0.033 -0.002,0.047c-0.009,0.015 -0.025,0.023 -0.042,0.023l-79.906,0c-0.017,0 -0.033,-0.008 -0.042,-0.023c-0.008,-0.014 -0.009,-0.032 -0.002,-0.047c0,0 39.954,-79.907 39.954,-79.907c0.008,-0.016 0.025,-0.026 0.043,-0.026c0.018,-0 0.035,0.01 0.043,0.026Z" style="fill:#492a17;"/><path d="M68.536,100.834l7.2,0l0,-7.2l-7.2,0l0,7.2Zm0.052,-13.639l7.046,-0l0,-28.315l-7.046,0l-0,28.315Z" style="fill:#fff;fill-rule:nonzero;stroke:#492a17;stroke-width:3px;"/><defs><linearGradient id="_Linear1" x1="0" y1="0" x2="1" y2="0" gradientUnits="userSpaceOnUse" gradientTransform="matrix(-49.9943,61.6064,-61.6063,-49.9943,91.583,41.8985)"><stop offset="0" style="stop-color:#e48c48;stop-opacity:1"/><stop offset="1" style="stop-color:#d54115;stop-opacity:1"/></linearGradient></defs></svg>