<?xml version="1.0" encoding="UTF-8" standalone="no"?><!DOCTYPE svg PUBLIC "-//W3C//DTD SVG 1.1//EN" "http://www.w3.org/Graphics/SVG/1.1/DTD/svg11.dtd"><svg width="100%" height="100%" viewBox="0 0 144 144" version="1.1" xmlns="http://www.w3.org/2000/svg" xmlns:xlink="http://www.w3.org/1999/xlink" xml:space="preserve" xmlns:serif="http://www.serif.com/" style="fill-rule:evenodd;clip-rule:evenodd;stroke-linejoin:round;stroke-miterlimit:2;"><rect x="0.129" y="0.171" width="144" height="144.002" style="fill:none;"/><path d="M75.707,30.429c-0.677,-1.355 -2.063,-2.211 -3.578,-2.211c-1.515,0 -2.9,0.856 -3.577,2.211l-39.954,79.907c-0.62,1.24 -0.553,2.713 0.175,3.892c0.729,1.179 2.017,1.897 3.403,1.897l79.907,-0c1.386,-0 2.674,-0.718 3.402,-1.897c0.729,-1.179 0.795,-2.652 0.175,-3.892l-39.953,-79.907Zm-3.578,1.789l39.954,79.907l-79.907,-0l39.953,-79.907Z"/><path d="M69.307,99.994l5.644,0l0,-5.393l-5.644,-0l0,5.393Zm0.35,-12.643l4.944,-0l0,-27.35l-4.944,-0l0,27.35Z" style="fill-rule:nonzero;"/></svg>