<?xml version="1.0" encoding="UTF-8" standalone="no"?><!DOCTYPE svg PUBLIC "-//W3C//DTD SVG 1.1//EN" "http://www.w3.org/Graphics/SVG/1.1/DTD/svg11.dtd"><svg width="100%" height="100%" viewBox="0 0 144 144" version="1.1" xmlns="http://www.w3.org/2000/svg" xmlns:xlink="http://www.w3.org/1999/xlink" xml:space="preserve" xmlns:serif="http://www.serif.com/" style="fill-rule:evenodd;clip-rule:evenodd;stroke-linejoin:round;stroke-miterlimit:2;"><rect x="0.14" y="0.132" width="144" height="144.002" style="fill:none;"/><path d="M75.135,14.352c-0.567,-1.134 -1.727,-1.851 -2.995,-1.851c-1.268,0 -2.428,0.717 -2.995,1.851l-39.953,79.907c-0.519,1.038 -0.464,2.27 0.146,3.258c0.61,0.987 1.688,1.588 2.849,1.588l79.906,-0c1.161,-0 2.239,-0.601 2.849,-1.588c0.61,-0.988 0.665,-2.22 0.146,-3.258l-39.953,-79.907Z" style="fill:url(#_Linear1);"/><path d="M68.54,84.466l7.2,-0l-0,-7.2l-7.2,-0l-0,7.2Zm0.051,-13.64l7.047,0l-0,-28.314l-7.047,-0l0,28.314Z" style="fill:#fff;fill-rule:nonzero;"/><path d="M22.446,128.214c-2.16,-0 -4.056,-1.848 -4.056,-4.489l0,-5.089c0,-2.665 1.896,-4.489 4.056,-4.489c1.608,-0 3.12,0.864 4.32,2.136l1.608,-2.568c-1.584,-1.702 -3.408,-2.685 -5.904,-2.685c-4.319,-0 -7.389,3.069 -7.389,7.606l0,5.089c0,4.489 3.07,7.606 7.389,7.606c2.424,-0 4.32,-0.983 5.904,-2.709l-1.608,-2.569c-1.176,1.273 -2.688,2.161 -4.32,2.161Z" style="fill:#78685a;fill-rule:nonzero;"/><path d="M38.144,117.15l2.328,7.056l-4.68,-0l2.352,-7.056Zm-8.015,13.869l3.408,-0l1.32,-3.96l6.55,-0l1.32,3.96l3.431,-0l-6.526,-19.701l-2.976,-0l-6.527,19.701Z" style="fill:#78685a;fill-rule:nonzero;"/><path d="M58.785,111.318l0,12.936c0,2.256 -1.584,3.96 -3.649,3.96c-2.041,-0 -3.65,-1.728 -3.65,-3.96l0,-12.936l-3.309,-0l0,12.936c0,3.912 3.142,7.077 6.959,7.077c3.817,-0 7.006,-3.165 7.006,-7.077l0,-12.936l-3.357,-0Z" style="fill:#78685a;fill-rule:nonzero;"/><path d="M78.846,111.318l-14.061,-0l0,3.117l5.4,-0l0,16.584l3.309,-0l0,-16.584l5.352,-0l0,-3.117Z" style="fill:#78685a;fill-rule:nonzero;"/><rect x="81.465" y="111.318" width="3.309" height="19.701" style="fill:#78685a;fill-rule:nonzero;"/><path d="M95.864,111.03c-3.817,-0 -6.959,3.189 -6.959,7.054l0,6.169c0,3.913 3.142,7.078 6.959,7.078c3.817,-0 7.006,-3.165 7.006,-7.078l0,-6.169c0,-3.865 -3.165,-7.054 -7.006,-7.054Zm-3.602,13.223l0,-6.169c0,-2.473 1.633,-3.937 3.65,-3.937c2.065,-0 3.601,1.488 3.601,3.937l0,6.169c0,2.521 -1.536,3.961 -3.601,3.961c-2.041,-0 -3.65,-1.464 -3.65,-3.961Z" style="fill:#78685a;fill-rule:nonzero;"/><path d="M117.273,111.318l0,12.79l-7.034,-12.79l-3.238,-0l0,19.701l3.309,-0l0,-12.742l7.059,12.742l3.237,-0l0,-19.701l-3.333,-0Z" style="fill:#78685a;fill-rule:nonzero;"/><path d="M125.217,131.019l3.501,-0l0,-3.381l-3.501,-0l0,3.381Zm0.096,-6.405l3.309,-0l0,-13.296l-3.309,-0l0,13.296Z" style="fill:#78685a;fill-rule:nonzero;"/><defs><linearGradient id="_Linear1" x1="0" y1="0" x2="1" y2="0" gradientUnits="userSpaceOnUse" gradientTransform="matrix(-49.9943,61.6064,-61.6063,-49.9943,92.209,25.5298)"><stop offset="0" style="stop-color:#e48c48;stop-opacity:1"/><stop offset="1" style="stop-color:#d54115;stop-opacity:1"/></linearGradient></defs></svg>