<?xml version="1.0" encoding="UTF-8" standalone="no"?><!DOCTYPE svg PUBLIC "-//W3C//DTD SVG 1.1//EN" "http://www.w3.org/Graphics/SVG/1.1/DTD/svg11.dtd"><svg width="100%" height="100%" viewBox="0 0 144 144" version="1.1" xmlns="http://www.w3.org/2000/svg" xmlns:xlink="http://www.w3.org/1999/xlink" xml:space="preserve" xmlns:serif="http://www.serif.com/" style="fill-rule:evenodd;clip-rule:evenodd;stroke-linejoin:round;stroke-miterlimit:2;"><rect x="0.133" y="0.01" width="144" height="144.002" style="fill:none;"/><circle cx="72.133" cy="71.471" r="45" style="fill:url(#_Linear1);"/><clipPath id="_clip2"><circle cx="72.133" cy="71.471" r="45"/></clipPath><g clip-path="url(#_clip2)"><path d="M72.133,25.757l39.953,79.907l-79.906,0l39.953,-79.907Z" style="fill:url(#_Linear3);"/><path d="M75.128,24.26c-0.567,-1.135 -1.727,-1.851 -2.995,-1.851c-1.268,-0 -2.428,0.716 -2.995,1.851l-39.953,79.907c-0.519,1.038 -0.464,2.27 0.146,3.257c0.61,0.988 1.688,1.588 2.849,1.588l79.906,0c1.161,0 2.239,-0.6 2.849,-1.588c0.61,-0.987 0.665,-2.219 0.146,-3.257l-39.953,-79.907Zm-2.995,1.497l39.953,79.907l-79.906,0l39.953,-79.907Z" style="fill:#49401c;"/><path d="M68.533,94.374l7.2,-0l-0,-7.2l-7.2,-0l-0,7.2Zm0.051,-13.64l7.047,-0l-0,-28.315l-7.047,0l0,28.315Z" style="fill:#49401c;fill-rule:nonzero;"/></g><defs><linearGradient id="_Linear1" x1="0" y1="0" x2="1" y2="0" gradientUnits="userSpaceOnUse" gradientTransform="matrix(48.9534,-112.32,112.32,48.9534,45.8529,123.311)"><stop offset="0" style="stop-color:#febbaa;stop-opacity:1"/><stop offset="1" style="stop-color:#ef725f;stop-opacity:1"/></linearGradient><linearGradient id="_Linear3" x1="0" y1="0" x2="1" y2="0" gradientUnits="userSpaceOnUse" gradientTransform="matrix(32.2068,68.22,-68.22,32.2068,46.0395,65.7106)"><stop offset="0" style="stop-color:#f9da44;stop-opacity:1"/><stop offset="1" style="stop-color:#ffa100;stop-opacity:1"/></linearGradient></defs></svg>