<?xml version="1.0" encoding="UTF-8" standalone="no"?><!DOCTYPE svg PUBLIC "-//W3C//DTD SVG 1.1//EN" "http://www.w3.org/Graphics/SVG/1.1/DTD/svg11.dtd"><svg width="100%" height="100%" viewBox="0 0 144 144" version="1.1" xmlns="http://www.w3.org/2000/svg" xmlns:xlink="http://www.w3.org/1999/xlink" xml:space="preserve" xmlns:serif="http://www.serif.com/" style="fill-rule:evenodd;clip-rule:evenodd;stroke-linejoin:round;stroke-miterlimit:2;"><rect x="0.136" y="0.151" width="144" height="144.002" style="fill:none;"/><path d="M71.514,15.869l39.953,79.906l-79.906,0l39.953,-79.906Z" style="fill:url(#_Linear1);"/><path d="M74.509,14.371c-0.567,-1.134 -1.727,-1.851 -2.995,-1.851c-1.268,0 -2.428,0.717 -2.995,1.851l-39.953,79.907c-0.519,1.038 -0.464,2.271 0.146,3.258c0.61,0.987 1.688,1.588 2.849,1.588l79.906,-0c1.161,-0 2.239,-0.601 2.849,-1.588c0.61,-0.987 0.665,-2.22 0.146,-3.258l-39.953,-79.907Zm-2.995,1.498l39.953,79.906l-79.906,0l39.953,-79.906Z" style="fill:#49401c;"/><path d="M68.454,84.485l7.2,-0l-0,-7.2l-7.2,-0l-0,7.2Zm0.051,-13.64l7.047,0l-0,-28.314l-7.047,-0l0,28.314Z" style="fill:#49401c;fill-rule:nonzero;"/><path d="M51.139,131.878l2.829,0l0,-0.576l10.947,0l0,0.576l2.901,0l0,-4.437l-16.677,0l0,4.437Zm-2.496,-16.079l1.56,1.681c0.36,-0.311 0.744,-0.695 1.08,-1.103l0,1.917l4.965,0l0.312,0.939l-4.845,0l0,1.557l15.429,0l0,-1.557l-9.021,0c1.055,-0.096 1.558,-0.528 1.75,-1.561c0.144,-0.768 0.216,-1.825 0.239,-3.314l0.768,0.865c0.312,-0.241 0.624,-0.481 0.912,-0.745c0.408,0.504 0.84,0.985 1.32,1.417c-0.864,0.456 -1.872,0.793 -2.952,0.985l1.056,1.945c1.44,-0.312 2.712,-0.841 3.792,-1.537c1.224,0.744 2.664,1.321 4.392,1.801l0.816,-2.041c-1.368,-0.312 -2.496,-0.721 -3.48,-1.201c0.744,-0.817 1.32,-1.777 1.68,-2.833l1.536,0l0,-1.965l-5.328,0c0.216,-0.408 0.408,-0.792 0.552,-1.2l-2.184,-0.552c-0.504,1.296 -1.536,2.64 -3,3.792l-6.862,0l0.12,-0.339l-0.696,-0.144l1.486,0l0,-0.672l1.971,0l0,0.672l2.229,0l0,-0.672l2.448,0l0,-1.773l-2.448,0l0,-0.696l-2.229,0l0,0.696l-1.971,0l0,-0.696l-2.253,0l0,0.696l-2.544,0l0,1.773l2.544,0l0,0.506l-0.72,-0.143c-0.456,1.319 -1.32,2.589 -2.424,3.502Zm0.48,7.271l20.781,0l0,-1.725l-20.781,0l0,1.725Zm2.568,3.792l15.453,0l0,-1.317l-15.453,0l-0,1.317Zm-0,-1.896l15.453,0l0,-1.317l-15.453,0l-0,1.317Zm0.36,-9.669c0.12,-0.194 0.24,-0.411 0.36,-0.603l5.592,0c0,0.793 -0.048,1.898 -0.168,2.427c-0.072,0.36 -0.216,0.408 -0.481,0.408l-0.506,0l0,-2.232l-4.797,0Zm0.909,1.8l0,-0.651l2.187,0l0,0.651l-2.187,0Zm1.008,12.6l0,-0.747l10.947,0l0,0.747l-10.947,0Zm9.387,-16.683l2.735,0c-0.287,0.601 -0.695,1.129 -1.199,1.609c-0.576,-0.48 -1.08,-1.008 -1.536,-1.609Z" style="fill:#49401c;fill-rule:nonzero;"/><path d="M93.881,120.646l-0,-2.709l-8.88,0l-0.001,-2.763l7.969,0l-0,-2.661l-7.968,0l-0,-2.928l-2.974,0l0.001,2.928l-3.243,0c0.336,-0.72 0.6,-1.44 0.817,-2.088l-2.712,-0.888c-0.672,2.136 -2.039,4.343 -3.671,6.094l2.28,1.874c0.671,-0.673 1.295,-1.49 1.846,-2.331l4.683,0l-0.001,2.763l-8.88,0l0,2.709l20.734,0Zm-18.694,11.016l2.901,0l0,-0.936l10.828,0l-0,0.936l2.949,0l-0,-9.141l-16.678,0l0,9.141Zm2.901,-3.573l0,-2.955l10.828,0l-0,2.955l-10.828,0Z" style="fill:#49401c;fill-rule:nonzero;"/><defs><linearGradient id="_Linear1" x1="0" y1="0" x2="1" y2="0" gradientUnits="userSpaceOnUse" gradientTransform="matrix(-1.19307e-13,79.9068,-79.9068,-1.19307e-13,71.514,15.8685)"><stop offset="0" style="stop-color:#f9da44;stop-opacity:1"/><stop offset="0.47" style="stop-color:#fad23a;stop-opacity:1"/><stop offset="0.63" style="stop-color:#fcbf24;stop-opacity:1"/><stop offset="0.78" style="stop-color:#feab0c;stop-opacity:1"/><stop offset="1" style="stop-color:#ff7c00;stop-opacity:1"/></linearGradient></defs></svg>