<?xml version="1.0" encoding="UTF-8" standalone="no"?>
<!DOCTYPE svg PUBLIC "-//W3C//DTD SVG 1.1//EN" "http://www.w3.org/Graphics/SVG/1.1/DTD/svg11.dtd">
<svg width="100%" height="100%" viewBox="0 0 800 800" version="1.1" xmlns="http://www.w3.org/2000/svg" xmlns:xlink="http://www.w3.org/1999/xlink" xml:space="preserve" xmlns:serif="http://www.serif.com/" style="fill-rule:evenodd;clip-rule:evenodd;stroke-linejoin:round;stroke-miterlimit:2;">
    <g transform="matrix(1,0,0,1,-1159,-809)">
        <g transform="matrix(2.02015,0,0,2.02017,872.216,252.584)">
            <rect x="142.327" y="275.741" width="396.011" height="396.011" style="fill:none;"/>
            <g transform="matrix(0.495014,0,0,0.495007,-1818.69,-130.418)">
                <circle cx="4361.54" cy="1220.52" r="308.919" style="fill:url(#_Linear1);"/>
            </g>
            <g transform="matrix(0.324517,0,0,0.324512,116.599,72.0292)">
                <path d="M994.515,1143.26C994.515,1064.9 930.897,1001.28 852.537,1001.28L526.339,1001.28C447.979,1001.28 384.36,1064.9 384.36,1143.26L384.36,1332.56C384.36,1410.92 447.979,1474.54 526.339,1474.54L852.537,1474.54C930.897,1474.54 994.515,1410.92 994.515,1332.56L994.515,1143.26Z" style="fill:white;"/>
            </g>
            <g transform="matrix(5.31459e-17,0.957976,-0.810779,-7.79345e-18,1287.34,151.685)">
                <path d="M336.189,1118.88L374.589,1195.68L297.789,1195.68L336.189,1118.88Z" style="fill:url(#_Linear2);"/>
            </g>
        </g>
    </g>
    <defs>
        <linearGradient id="_Linear1" x1="0" y1="0" x2="1" y2="0" gradientUnits="userSpaceOnUse" gradientTransform="matrix(5.38522e-14,879.472,-879.472,5.38522e-14,4361.54,911.598)"><stop offset="0" style="stop-color:rgb(206,65,81);stop-opacity:1"/><stop offset="1" style="stop-color:rgb(252,204,161);stop-opacity:1"/></linearGradient>
        <linearGradient id="_Linear2" x1="0" y1="0" x2="1" y2="0" gradientUnits="userSpaceOnUse" gradientTransform="matrix(245.091,-1.66684e-15,1.46953e-14,245.091,297.789,1157.28)"><stop offset="0" style="stop-color:rgb(206,65,81);stop-opacity:1"/><stop offset="1" style="stop-color:rgb(252,204,161);stop-opacity:1"/></linearGradient>
    </defs>
</svg>
