<?xml version="1.0" encoding="UTF-8" standalone="no"?>
<!DOCTYPE svg PUBLIC "-//W3C//DTD SVG 1.1//EN" "http://www.w3.org/Graphics/SVG/1.1/DTD/svg11.dtd">
<svg width="100%" height="100%" viewBox="0 0 800 800" version="1.1" xmlns="http://www.w3.org/2000/svg" xmlns:xlink="http://www.w3.org/1999/xlink" xml:space="preserve" xmlns:serif="http://www.serif.com/" style="fill-rule:evenodd;clip-rule:evenodd;stroke-linecap:round;stroke-linejoin:round;stroke-miterlimit:1;">
    <g transform="matrix(1,0,0,1,-235,-1950)">
        <g transform="matrix(2.02015,0,0,2.02017,-51.8034,1393.69)">
            <rect x="142.327" y="275.741" width="396.011" height="396.011" style="fill:none;"/>
            <g transform="matrix(1,0,0,1,-20.4205,-2.27374e-13)">
                <g transform="matrix(0.350027,0.350023,-0.350027,0.350023,538.642,-137.084)">
                    <path d="M522.487,1219.99C506.705,1210.91 485.51,1198.85 472.323,1191.81C456.44,1183.34 434.08,1186.96 418.857,1198.25C401.912,1210.82 393.823,1231.12 407.388,1251.69C415.805,1264.46 428.9,1272.38 443.91,1280.98C461.299,1290.94 481.612,1302.63 495.307,1333.27C505.142,1355.27 512.228,1375.45 519.966,1392.96C530.074,1415.85 541.502,1434.44 559.636,1447.73C577.648,1460.93 602.505,1469.16 640.491,1469.88C694.739,1470.91 735.48,1456.7 764.976,1433.28C809.256,1398.13 828.608,1341.65 828.608,1281.05C828.608,1281.05 828.608,1177.35 828.608,1177.35C828.608,1150.48 806.794,1128.67 779.926,1128.67C770.544,1128.67 761.778,1131.33 754.348,1135.94C746.545,1119.47 729.763,1108.07 710.34,1108.07C701.509,1108.07 693.223,1110.43 686.086,1114.56C679.001,1096.45 661.365,1083.61 640.755,1083.61C633.275,1083.61 626.186,1085.3 619.851,1088.33L619.851,998.019C619.851,971.15 598.037,949.337 571.169,949.337C544.301,949.337 522.487,971.15 522.487,998.019L522.487,1219.99ZM597.629,1227.11L597.629,998.019C597.629,983.415 585.772,971.559 571.169,971.559C556.566,971.559 544.71,983.415 544.71,998.019L544.71,1244.05C544.71,1247.03 543.115,1249.79 540.529,1251.27C537.943,1252.76 534.76,1252.75 532.183,1251.25C532.183,1251.25 484.795,1223.65 461.865,1211.42C452.977,1206.68 440.613,1209.79 432.094,1216.1C424.606,1221.66 419.946,1230.37 425.94,1239.46C432.512,1249.43 443.234,1254.98 454.953,1261.69C475.607,1273.52 499.328,1287.81 515.595,1324.2C525.444,1346.23 532.543,1366.44 540.294,1383.98C548.689,1402.99 557.711,1418.77 572.773,1429.81C587.907,1440.9 608.996,1447.05 640.913,1447.66C688.883,1448.57 725.077,1436.58 751.159,1415.88C790.26,1384.84 806.385,1334.56 806.385,1281.05C806.385,1281.05 806.385,1177.35 806.385,1177.35C806.385,1162.75 794.529,1150.89 779.926,1150.89C765.323,1150.89 753.466,1162.75 753.466,1177.35L753.428,1263.05C753.428,1267.65 749.694,1271.38 745.095,1271.38C740.495,1271.38 736.761,1267.65 736.761,1263.05L736.8,1156.75C736.8,1142.15 724.944,1130.29 710.34,1130.29C695.737,1130.29 683.881,1142.15 683.881,1156.75L683.862,1245.56C683.862,1250.16 680.128,1253.9 675.528,1253.9C670.929,1253.9 667.195,1250.16 667.195,1245.56L667.214,1132.29C667.214,1117.69 655.358,1105.83 640.755,1105.83C626.151,1105.83 614.295,1117.69 614.295,1132.29L614.295,1227.11C614.295,1231.71 610.561,1235.44 605.962,1235.44C601.363,1235.44 597.629,1231.71 597.629,1227.11Z"/>
                </g>
                <g transform="matrix(0.482184,-0.111966,0.111968,0.482178,-64.4579,-1.108)">
                    <path d="M739.38,925.411L774.019,857.411" style="fill:none;stroke:black;stroke-width:22.22px;"/>
                </g>
                <g transform="matrix(0.495014,0,0,0.495007,25.6434,-97.2687)">
                    <path d="M813.789,980.078L924.455,946.745" style="fill:none;stroke:black;stroke-width:22.22px;"/>
                </g>
            </g>
        </g>
    </g>
</svg>
