<?xml version="1.0" encoding="UTF-8" standalone="no"?>
<!DOCTYPE svg PUBLIC "-//W3C//DTD SVG 1.1//EN" "http://www.w3.org/Graphics/SVG/1.1/DTD/svg11.dtd">
<svg width="100%" height="100%" viewBox="0 0 800 800" version="1.1" xmlns="http://www.w3.org/2000/svg" xmlns:xlink="http://www.w3.org/1999/xlink" xml:space="preserve" xmlns:serif="http://www.serif.com/" style="fill-rule:evenodd;clip-rule:evenodd;stroke-linejoin:round;stroke-miterlimit:2;">
    <g transform="matrix(1,0,0,1,-3931,-809)">
        <g transform="matrix(2.02015,0,0,2.02017,3644.28,252.584)">
            <rect x="142.327" y="275.741" width="396.011" height="396.011" style="fill:none;"/>
            <g transform="matrix(1,0,0,1,-23.1711,3.50206)">
                <g transform="matrix(0.350027,0.350023,-0.350027,0.350023,538.642,-137.835)">
                    <path d="M597.629,1227.11L597.629,998.019C597.629,983.415 585.772,971.559 571.169,971.559C556.566,971.559 544.71,983.415 544.71,998.019L544.71,1244.05C544.71,1247.03 543.115,1249.79 540.529,1251.27C537.943,1252.76 534.76,1252.75 532.183,1251.25C532.183,1251.25 484.795,1223.65 461.865,1211.42C452.977,1206.68 440.613,1209.79 432.094,1216.1C424.606,1221.66 419.946,1230.37 425.94,1239.46C432.512,1249.43 443.234,1254.98 454.953,1261.69C475.607,1273.52 499.328,1287.81 515.595,1324.2C525.444,1346.23 532.543,1366.44 540.294,1383.98C548.689,1402.99 557.711,1418.77 572.773,1429.81C587.907,1440.9 608.996,1447.05 640.913,1447.66C688.883,1448.57 725.077,1436.58 751.159,1415.88C790.26,1384.84 806.385,1334.56 806.385,1281.05C806.385,1281.05 806.385,1177.35 806.385,1177.35C806.385,1162.75 794.529,1150.89 779.926,1150.89C765.323,1150.89 753.466,1162.75 753.466,1177.35L753.428,1263.05C753.428,1267.65 749.694,1271.38 745.095,1271.38C740.495,1271.38 736.761,1267.65 736.761,1263.05L736.8,1156.75C736.8,1142.15 724.944,1130.29 710.34,1130.29C695.737,1130.29 683.881,1142.15 683.881,1156.75L683.862,1245.56C683.862,1250.16 680.128,1253.9 675.528,1253.9C670.929,1253.9 667.195,1250.16 667.195,1245.56L667.214,1132.29C667.214,1117.69 655.358,1105.83 640.755,1105.83C626.151,1105.83 614.295,1117.69 614.295,1132.29L614.295,1227.11C614.295,1231.71 610.561,1235.44 605.962,1235.44C601.363,1235.44 597.629,1231.71 597.629,1227.11Z" style="fill:white;"/>
                    <path d="M516.932,1210.4C502.551,1202.17 485.956,1192.79 474.937,1186.91C457.305,1177.51 432.448,1181.26 415.547,1193.79C396.237,1208.11 387.291,1231.31 402.75,1254.75C411.628,1268.22 425.316,1276.73 441.149,1285.8C457.722,1295.29 477.183,1306.34 490.236,1335.54C500.066,1357.53 507.149,1377.7 514.885,1395.21C525.421,1419.06 537.449,1438.36 556.352,1452.21C575.084,1465.94 600.882,1474.68 640.385,1475.43C696.204,1476.49 738.08,1461.73 768.43,1437.63C814.005,1401.45 834.163,1343.42 834.163,1281.05C834.163,1281.05 834.163,1177.35 834.163,1177.35C834.163,1147.42 809.86,1123.12 779.926,1123.12C771.565,1123.12 763.644,1125.01 756.568,1128.4C747.028,1112.88 729.884,1102.52 710.34,1102.52C702.659,1102.52 695.349,1104.12 688.73,1107.01C679.643,1089.79 661.559,1078.06 640.755,1078.06C635.423,1078.06 630.271,1078.83 625.406,1080.28L625.406,998.019C625.406,968.084 601.103,943.781 571.169,943.781C541.235,943.781 516.932,968.084 516.932,998.019L516.932,1210.4ZM597.629,1227.11L597.629,998.019C597.629,983.415 585.772,971.559 571.169,971.559C556.566,971.559 544.71,983.415 544.71,998.019L544.71,1244.05C544.71,1247.03 543.115,1249.79 540.529,1251.27C537.943,1252.76 534.76,1252.75 532.183,1251.25C532.183,1251.25 484.795,1223.65 461.865,1211.42C452.977,1206.68 440.613,1209.79 432.094,1216.1C424.606,1221.66 419.946,1230.37 425.94,1239.46C432.512,1249.43 443.234,1254.98 454.953,1261.69C475.607,1273.52 499.328,1287.81 515.595,1324.2C525.444,1346.23 532.543,1366.44 540.294,1383.98C548.689,1402.99 557.711,1418.77 572.773,1429.81C587.907,1440.9 608.996,1447.05 640.913,1447.66C688.883,1448.57 725.077,1436.58 751.159,1415.88C790.26,1384.84 806.385,1334.56 806.385,1281.05C806.385,1281.05 806.385,1177.35 806.385,1177.35C806.385,1162.75 794.529,1150.89 779.926,1150.89C765.323,1150.89 753.466,1162.75 753.466,1177.35L753.428,1263.05C753.428,1267.65 749.694,1271.38 745.095,1271.38C740.495,1271.38 736.761,1267.65 736.761,1263.05L736.8,1156.75C736.8,1142.15 724.944,1130.29 710.34,1130.29C695.737,1130.29 683.881,1142.15 683.881,1156.75L683.862,1245.56C683.862,1250.16 680.128,1253.9 675.528,1253.9C670.929,1253.9 667.195,1250.16 667.195,1245.56L667.214,1132.29C667.214,1117.69 655.358,1105.83 640.755,1105.83C626.151,1105.83 614.295,1117.69 614.295,1132.29L614.295,1227.11C614.295,1231.71 610.561,1235.44 605.962,1235.44C601.363,1235.44 597.629,1231.71 597.629,1227.11Z" style="fill:url(#_Linear1);"/>
                </g>
                <g transform="matrix(0.482184,-0.111966,0.111968,0.482178,-64.4579,-1.85952)">
                    <path d="M749.28,930.455L783.92,862.455C786.703,856.99 784.527,850.294 779.062,847.511C773.598,844.727 766.902,846.904 764.118,852.368L729.479,920.368C726.696,925.832 728.872,932.528 734.336,935.312C739.801,938.095 746.497,935.919 749.28,930.455Z" style="fill:url(#_Linear2);"/>
                </g>
                <g transform="matrix(0.495014,0,0,0.495007,25.6434,-98.0202)">
                    <path d="M816.993,990.717L927.66,957.384C933.532,955.615 936.863,949.412 935.094,943.54C933.326,937.668 927.123,934.337 921.251,936.106L810.584,969.439C804.712,971.208 801.381,977.411 803.15,983.282C804.918,989.154 811.121,992.486 816.993,990.717Z" style="fill:url(#_Linear3);"/>
                </g>
            </g>
        </g>
    </g>
    <defs>
        <linearGradient id="_Linear1" x1="0" y1="0" x2="1" y2="0" gradientUnits="userSpaceOnUse" gradientTransform="matrix(0.00760238,1131.38,-1405.85,0.00944669,590.351,591.218)"><stop offset="0" style="stop-color:rgb(252,204,161);stop-opacity:1"/><stop offset="1" style="stop-color:rgb(223,100,78);stop-opacity:1"/></linearGradient>
        <linearGradient id="_Linear2" x1="0" y1="0" x2="1" y2="0" gradientUnits="userSpaceOnUse" gradientTransform="matrix(-960.222,598.324,-418.196,-671.142,1099.85,829.56)"><stop offset="0" style="stop-color:rgb(252,204,161);stop-opacity:1"/><stop offset="1" style="stop-color:rgb(223,100,78);stop-opacity:1"/></linearGradient>
        <linearGradient id="_Linear3" x1="0" y1="0" x2="1" y2="0" gradientUnits="userSpaceOnUse" gradientTransform="matrix(-800,800.011,-559.163,-559.156,1076.97,753.544)"><stop offset="0" style="stop-color:rgb(252,204,161);stop-opacity:1"/><stop offset="1" style="stop-color:rgb(223,100,78);stop-opacity:1"/></linearGradient>
    </defs>
</svg>
